<svg width="270" height="77" viewBox="0 0 270 77" fill="none" xmlns="http://www.w3.org/2000/svg">
<g clip-path="url(#clip0_4_19225)">
<path d="M268.88 63.4125C268.09 61.3236 266.58 59.9061 264.675 58.8989C264.531 58.8243 264.352 58.7497 264.172 58.6378C264.316 58.5259 264.424 58.4513 264.567 58.3767C267.515 56.4742 268.772 53.1916 267.874 49.7224C267.119 46.8128 265.25 44.985 262.663 43.7913C260.794 42.9333 258.853 42.6349 256.84 42.6349C254.576 42.6349 252.348 42.9706 250.299 44.0151C247.675 45.3207 245.878 47.335 245.375 50.3939C245.196 51.5129 245.196 52.632 245.447 53.7138H251.952C251.916 53.49 251.88 53.3408 251.88 53.1916C251.701 51.5875 252.132 50.2073 253.426 49.2002C255.115 47.9692 258.278 47.9319 259.967 49.1629C261.836 50.5058 262.016 53.2289 260.362 54.8329C259.5 55.6909 258.422 56.0639 257.236 56.1385C256.05 56.2131 254.864 56.2131 253.713 56.2131C253.57 56.2131 253.462 56.2131 253.282 56.2131C253.282 56.3996 253.282 56.5115 253.282 56.6234C253.282 58.1155 253.282 59.6076 253.282 61.1371C253.426 61.1371 253.57 61.1744 253.713 61.1744C254.504 61.1744 255.331 61.1744 256.121 61.1744C257.379 61.1744 258.601 61.3236 259.751 61.8085C260.794 62.2561 261.692 62.8903 262.267 63.9348C263.345 66.0237 262.699 68.523 260.65 69.7167C258.206 71.1342 255.69 71.1342 253.174 69.8286C251.916 69.1945 251.126 68.0754 250.91 66.6206C250.802 65.8745 250.874 65.1285 250.874 64.3451L244.153 65.3896C243.974 67.777 244.477 69.9778 245.95 71.9176C247.424 73.8573 249.401 75.0137 251.665 75.6478C254.54 76.4685 257.451 76.5431 260.362 76.0209C262.519 75.6105 264.531 74.7899 266.257 73.2978C269.132 70.9477 270.174 66.919 268.88 63.4125ZM227.836 70.0897C229.166 69.4556 230.532 68.896 231.826 68.1873C234.413 66.8444 236.857 65.2777 238.798 63.0768C242.248 59.1973 243.255 54.721 241.458 49.797C240.164 46.2906 237.468 44.2762 233.982 43.269C230.891 42.3738 227.729 42.3738 224.638 43.1944C221.978 43.9032 219.714 45.2461 218.133 47.5588C215.617 51.1399 215.545 56.3623 217.845 60.1299H224.817C223.308 57.9663 222.697 55.5789 223.236 52.9678C223.667 50.7669 224.889 49.2375 227.082 48.6033C228.411 48.193 229.741 48.193 231.107 48.4914C232.976 48.9018 234.234 50.0581 234.917 51.8487C235.42 53.117 235.528 54.4599 235.384 55.8401C235.132 58.0409 234.162 59.9061 232.616 61.4728C230.855 63.2633 228.771 64.6062 226.579 65.7999C223.452 67.5158 220.217 68.9706 216.982 70.3135C216.731 70.4255 216.623 70.5374 216.623 70.8358C216.623 72.3279 216.623 73.8573 216.623 75.3867C216.623 75.4986 216.623 75.6478 216.623 75.7598H242.248V70.3135H227.549C227.621 70.2016 227.729 70.1643 227.836 70.0897ZM170.26 70.0897C171.59 69.4556 172.956 68.896 174.285 68.1873C176.873 66.8444 179.281 65.2777 181.258 63.0768C184.708 59.1973 185.714 54.721 183.917 49.797C182.623 46.2906 179.928 44.2762 176.442 43.269C173.351 42.3738 170.188 42.3738 167.097 43.1944C164.438 43.9032 162.173 45.2461 160.592 47.5588C158.076 51.1399 158.004 56.3623 160.305 60.1299H167.277C165.767 57.9663 165.156 55.5789 165.696 52.9678C166.127 50.7669 167.349 49.2375 169.541 48.6033C170.871 48.193 172.201 48.193 173.567 48.4914C175.435 48.9018 176.693 50.0581 177.376 51.8487C177.879 53.117 177.987 54.4599 177.843 55.8401C177.592 58.0409 176.621 59.9061 175.076 61.4728C173.315 63.2633 171.23 64.6062 169.038 65.7999C165.911 67.5158 162.677 68.9706 159.442 70.3135C159.19 70.4255 159.083 70.5374 159.083 70.8358C159.083 72.3279 159.083 73.8573 159.083 75.3867C159.083 75.4986 159.083 75.6478 159.083 75.7598H184.708V70.3135H170.008C170.044 70.2016 170.152 70.1643 170.26 70.0897ZM123.933 69.4929C123.933 72.1041 122.963 73.447 121.022 73.447C119.081 73.447 118.111 72.1041 118.111 69.4929V62.0323H115.235V69.7167C115.235 73.82 117.284 76.0582 121.022 76.0582C124.724 76.0582 126.808 73.7454 126.808 69.7167V62.0323H123.897V69.4929H123.933ZM146.396 50.282H140.825V46.962H147.366V44.4627H137.914V58.2274H140.789V52.7812H146.36V50.282H146.396ZM135.146 68.2619H131.732V64.5316H135.146C136.368 64.5316 136.979 65.1658 136.979 66.3968C136.979 67.5904 136.368 68.2619 135.146 68.2619ZM137.806 69.754C139.208 69.0826 139.962 67.8516 139.962 66.1729C139.962 63.5617 138.165 62.0323 135.182 62.0323H128.857V75.797H131.732V70.6493H134.679C136.476 70.6493 137.195 71.9922 137.375 75.7225V75.8344H140.286V75.7225C140.106 72.5144 139.315 70.6493 137.806 69.754ZM129.54 46.7382C131.768 46.7382 133.277 48.566 133.277 51.3264C133.277 54.0868 131.768 55.952 129.54 55.952C127.311 55.952 125.802 54.0868 125.802 51.3264C125.802 48.566 127.311 46.7382 129.54 46.7382ZM129.576 58.4886C133.529 58.4886 136.296 55.5416 136.296 51.2891C136.296 47.0739 133.529 44.1643 129.576 44.1643C125.622 44.1643 122.855 47.1112 122.855 51.2891C122.855 55.467 125.658 58.4886 129.576 58.4886ZM206.847 66.0237C206.344 67.4039 205.661 68.6349 204.511 69.5675C202.175 71.5072 197.179 71.4326 195.095 67.7396C194.268 66.2848 193.801 64.7181 193.585 63.0768C193.154 60.0926 193.226 57.1457 193.945 54.1987C194.232 53.0424 194.699 51.9233 195.382 50.9161C197.718 47.335 203.828 47.3723 206.057 51.3264C206.955 52.8931 207.422 54.6091 207.638 56.3623C207.746 57.4068 207.818 58.4513 207.854 59.0481C207.782 61.7712 207.602 63.9348 206.847 66.0237ZM210.082 46.6263C207.458 43.8659 204.188 42.6349 200.414 42.6722C198.545 42.6722 196.712 43.0079 194.987 43.7913C192.004 45.1342 189.919 47.4096 188.554 50.3193C187.475 52.5947 186.972 54.9821 186.793 57.4441C186.541 60.7267 186.793 63.9721 187.871 67.1055C189.776 72.5517 193.477 75.909 199.408 76.4312C201.708 76.655 203.936 76.3193 206.057 75.3494C208.968 74.0438 211.016 71.8803 212.382 69.0452C213.856 66.061 214.323 62.853 214.359 59.5703C214.359 57.556 214.143 55.6162 213.676 53.6765C213.065 51.028 211.951 48.6406 210.082 46.6263ZM170.763 31.9663H165.156V12.6434H170.763C176.154 12.6434 179.425 15.8888 179.425 22.2676C179.425 28.9448 175.795 31.9663 170.763 31.9663ZM170.763 6.19007H158.759V38.457H170.799C179.964 38.457 186.002 31.9663 186.002 22.2676C186.002 12.6061 179.892 6.19007 170.763 6.19007ZM148.768 31.8171L130.51 31.8917C129.755 31.8917 127.419 31.8917 125.802 31.6679C123.394 31.2948 123.394 30.2877 123.142 28.6836C122.927 27.1915 121.166 26.8931 120.051 26.7439C118.254 26.4828 113.51 25.9232 106.682 25.8859C103.303 25.8859 100.356 25.9978 97.984 26.1471V19.9548C100.356 19.8056 103.303 19.6564 106.682 19.6937C114.193 19.731 118.254 20.2532 119.368 20.4024C120.483 20.5516 122.208 20.962 122.459 22.4541C122.711 24.0208 122.711 25.0653 125.119 25.4383C126.7 25.6621 129.036 25.6621 129.791 25.6621H148.732V31.8171H148.768ZM124.544 6.11546C122.136 5.74243 122.136 4.73526 121.884 3.13124C121.669 1.63913 119.908 1.2661 118.793 1.07959C117.679 0.930375 114.193 0.370833 106.682 0.333531C97.3371 0.296228 91.371 1.3034 91.371 1.3034V7.906C91.371 7.906 97.3371 6.89882 106.682 6.93612C114.193 6.97342 117.679 7.49566 118.793 7.68218C119.908 7.83139 121.633 8.20442 121.884 9.73383C122.136 11.3005 122.136 12.345 124.544 12.7181C126.125 12.9419 128.461 12.9419 129.216 12.9419H148.732V19.0595L129.791 19.1341C129.036 19.1341 126.7 19.1341 125.083 18.9103C122.675 18.5373 122.675 17.5301 122.423 15.9261C122.208 14.434 120.447 14.0237 119.333 13.8744C118.218 13.7252 114.157 13.203 106.646 13.1657C97.3011 13.1284 91.335 14.1356 91.335 14.1356V33.3838C91.335 33.3838 97.3011 32.5258 106.646 32.5631C114.157 32.6004 118.901 33.2346 120.015 33.4211C121.13 33.5703 122.855 33.8687 123.106 35.3608C123.358 36.9276 123.358 37.972 125.766 38.3451C127.347 38.5689 129.683 38.5689 130.438 38.5689H148.696H155.345V6.26467L129.252 6.33928C128.497 6.33928 126.161 6.33928 124.544 6.11546ZM144.958 69.9405H150.565V67.4412H144.958V64.4943H151.499V61.995H142.047V75.7598H151.679V73.2605H144.922V69.9405H144.958ZM101.901 64.5316H106.322V75.797H109.233V64.5316H113.654V62.0323H101.901V64.5316ZM97.6965 47.1112L99.7451 53.117H95.6479L97.6965 47.1112ZM100.536 55.5043L101.506 58.2274H104.489L99.3138 44.4627H95.8994L90.76 58.2274H93.8868L94.8572 55.5043H100.536ZM70.7053 58.2274H73.5805V53.4527L79.0434 44.5H75.8807L72.1069 50.4312L68.441 44.4627H65.1345L70.7053 53.4154V58.2274ZM89.7537 55.7282H82.9969V52.4082H88.6036V49.9089H82.9969V46.962H89.538V44.4627H80.1216V58.2274H89.7537V55.7282ZM89.2145 69.4929C89.2145 72.1041 88.2442 73.447 86.3034 73.447C84.3626 73.447 83.3922 72.1041 83.3922 69.4929V62.0323H80.517V69.7167C80.517 73.82 82.5656 76.0582 86.3034 76.0582C90.0052 76.0582 92.0898 73.7454 92.0898 69.7167V62.0323H89.2145V69.4929ZM111.929 50.6923H108.515V46.962H111.929C113.151 46.962 113.762 47.5962 113.762 48.8271C113.762 50.0581 113.115 50.6923 111.929 50.6923ZM117.032 58.1155C116.853 54.9821 116.062 53.0797 114.588 52.1844C115.99 51.5129 116.745 50.2819 116.745 48.6033C116.745 45.9921 114.948 44.4627 111.965 44.4627H105.639V58.2274H108.515V53.0797H111.462C113.259 53.0797 113.941 54.4226 114.157 58.1528V58.2647H117.068L117.032 58.1155ZM97.0136 62.0323H94.1384V75.797H103.77V73.2978H97.0136V62.0323ZM200.414 39.1657C208.141 39.1657 213.137 35.2489 213.137 28.7582C213.137 16.2618 194.448 22.193 194.448 15.0308C194.448 12.5688 196.64 11.0021 200.055 11.0021C204.188 11.0021 206.452 13.1657 205.913 16.9333H212.346C213.137 10.0696 208.249 5.48132 200.162 5.48132C192.759 5.48132 187.943 9.3235 187.943 15.7023C187.943 28.3852 206.596 22.2676 206.596 29.4297C206.596 31.929 204.331 33.6076 200.558 33.6076C196.209 33.6076 193.765 31.4067 193.981 27.6019H187.547C187.008 34.6894 192.22 39.1657 200.414 39.1657ZM88.6395 33.6076V26.7439C82.6734 27.49 76.3838 28.6463 72.7898 29.467V3.46696C72.7898 3.46696 68.9442 4.13841 65.9252 4.88447V38.457C65.8893 38.4943 74.0837 35.6593 88.6395 33.6076ZM75.9885 70.612C75.701 72.3652 74.4071 73.4843 72.682 73.4843C70.4178 73.4843 68.8364 71.5818 68.8364 68.8587C68.8364 66.1729 70.3818 64.2705 72.6461 64.2705C73.6164 64.2705 74.4431 64.6062 74.9462 65.2404C75.4494 65.8745 75.665 66.7698 75.4853 67.777L75.4494 67.8889H78.4324V67.8143C78.684 66.2848 78.3246 64.8673 77.4261 63.7483C76.3479 62.4427 74.5868 61.6593 72.6101 61.6593C68.6567 61.6593 65.8893 64.6062 65.8893 68.8214C65.8893 73.1113 68.6926 76.0582 72.682 76.0582C76.0963 76.0582 78.5762 73.9319 79.0075 70.6493V70.5374H75.9526L75.9885 70.612Z" fill="#2A545C"/>
</g>
<defs>
<clipPath id="clip0_4_19225">
<rect width="268.858" height="76.1652" fill="white" transform="translate(0.571289 0.33252)"/>
</clipPath>
</defs>
</svg>
