<svg width="113" height="44" viewBox="0 0 113 44" fill="none" xmlns="http://www.w3.org/2000/svg">
<g clip-path="url(#clip0_4_25123)">
<path d="M112.435 35.9825C112.001 34.8341 111.171 34.0549 110.124 33.5012C110.045 33.4602 109.946 33.4192 109.847 33.3576C109.926 33.2961 109.985 33.2551 110.064 33.2141C111.685 32.1682 112.376 30.3636 111.882 28.4565C111.467 26.8569 110.44 25.8521 109.017 25.1959C107.99 24.7242 106.923 24.5601 105.816 24.5601C104.572 24.5601 103.347 24.7447 102.22 25.3189C100.778 26.0366 99.7902 27.144 99.5136 28.8256C99.4148 29.4408 99.4148 30.056 99.5531 30.6507H103.129C103.11 30.5277 103.09 30.4456 103.09 30.3636C102.991 29.4818 103.228 28.7231 103.939 28.1694C104.868 27.4926 106.607 27.4721 107.535 28.1489C108.563 28.8871 108.662 30.3841 107.753 31.2659C107.278 31.7376 106.686 31.9427 106.034 31.9837C105.382 32.0247 104.73 32.0247 104.097 32.0247C104.018 32.0247 103.959 32.0247 103.86 32.0247C103.86 32.1272 103.86 32.1887 103.86 32.2503C103.86 33.0705 103.86 33.8908 103.86 34.7316C103.939 34.7316 104.018 34.7521 104.097 34.7521C104.532 34.7521 104.987 34.7521 105.421 34.7521C106.113 34.7521 106.785 34.8341 107.417 35.1007C107.99 35.3468 108.484 35.6954 108.8 36.2696C109.393 37.418 109.037 38.792 107.911 39.4482C106.567 40.2275 105.184 40.2275 103.801 39.5097C103.11 39.1611 102.675 38.5459 102.556 37.7461C102.497 37.336 102.537 36.9258 102.537 36.4952L98.8418 37.0694C98.743 38.3818 99.0196 39.5917 99.8297 40.6581C100.64 41.7245 101.726 42.3602 102.971 42.7088C104.552 43.16 106.152 43.201 107.753 42.9139C108.938 42.6883 110.045 42.2371 110.993 41.4169C112.574 40.1249 113.147 37.9102 112.435 35.9825ZM89.8717 39.6533C90.6028 39.3046 91.3535 38.997 92.0648 38.6074C93.4874 37.8692 94.831 37.0079 95.8979 35.798C97.7947 33.6652 98.3479 31.2044 97.36 28.4975C96.6487 26.5698 95.1668 25.4624 93.2503 24.9088C91.5511 24.4166 89.8124 24.4166 88.1132 24.8677C86.6512 25.2574 85.4064 25.9956 84.5371 27.2671C83.154 29.2357 83.1145 32.1067 84.379 34.1779H88.212C87.3822 32.9885 87.0463 31.6761 87.3427 30.2406C87.5798 29.0307 88.2515 28.1899 89.4568 27.8413C90.1878 27.6157 90.9189 27.6157 91.6697 27.7797C92.6971 28.0053 93.3886 28.641 93.764 29.6254C94.0406 30.3226 94.0999 31.0609 94.0209 31.8196C93.8826 33.0295 93.3491 34.0549 92.4995 34.9162C91.5314 35.9005 90.3854 36.6387 89.1802 37.295C87.4612 38.2383 85.683 39.0381 83.9048 39.7763C83.7665 39.8378 83.7072 39.8994 83.7072 40.0634C83.7072 40.8837 83.7072 41.7245 83.7072 42.5653C83.7072 42.6268 83.7072 42.7088 83.7072 42.7703H97.7946V39.7763H89.7136C89.7532 39.7148 89.8124 39.6943 89.8717 39.6533ZM58.2194 39.6533C58.9505 39.3046 59.7013 38.997 60.4323 38.6074C61.8549 37.8692 63.1787 37.0079 64.2654 35.798C66.1621 33.6652 66.7154 31.2044 65.7275 28.4975C65.0162 26.5698 63.5343 25.4624 61.6178 24.9088C59.9186 24.4166 58.1799 24.4166 56.4807 24.8677C55.0186 25.2574 53.7739 25.9956 52.9045 27.2671C51.5215 29.2357 51.482 32.1067 52.7465 34.1779H56.5795C55.7497 32.9885 55.4138 31.6761 55.7102 30.2406C55.9473 29.0307 56.619 28.1899 57.8243 27.8413C58.5553 27.6157 59.2864 27.6157 60.0372 27.7797C61.0646 28.0053 61.7561 28.641 62.1315 29.6254C62.4081 30.3226 62.4674 31.0609 62.3884 31.8196C62.2501 33.0295 61.7166 34.0549 60.867 34.9162C59.8989 35.9005 58.7529 36.6387 57.5477 37.295C55.8287 38.2383 54.0505 39.0381 52.2723 39.7763C52.134 39.8378 52.0747 39.8994 52.0747 40.0634C52.0747 40.8837 52.0747 41.7245 52.0747 42.5653C52.0747 42.6268 52.0747 42.7088 52.0747 42.7703H66.1621V39.7763H58.0811C58.1009 39.7148 58.1602 39.6943 58.2194 39.6533ZM32.7514 39.3252C32.7514 40.7606 32.2179 41.4989 31.151 41.4989C30.0841 41.4989 29.5506 40.7606 29.5506 39.3252V35.2238H27.97V39.4482C27.97 41.704 29.0962 42.9344 31.151 42.9344C33.1861 42.9344 34.332 41.663 34.332 39.4482V35.2238H32.7317V39.3252H32.7514ZM45.1001 28.7641H42.0377V26.9389H45.6336V25.565H40.4373V33.1321H42.0179V30.138H45.0804V28.7641H45.1001ZM38.9159 38.6484H37.0389V36.5977H38.9159C39.5877 36.5977 39.9235 36.9464 39.9235 37.6231C39.9235 38.2793 39.5877 38.6484 38.9159 38.6484ZM40.378 39.4687C41.1485 39.0996 41.5635 38.4229 41.5635 37.5C41.5635 36.0645 40.5756 35.2238 38.9357 35.2238H35.4583V42.7908H37.0389V39.9609H38.659C39.6469 39.9609 40.0421 40.6991 40.1409 42.7498V42.8113H41.7413V42.7498C41.6425 40.9862 41.2078 39.9609 40.378 39.4687ZM35.8337 26.8159C37.0586 26.8159 37.8885 27.8207 37.8885 29.3383C37.8885 30.8558 37.0586 31.8811 35.8337 31.8811C34.6087 31.8811 33.7788 30.8558 33.7788 29.3383C33.7788 27.8207 34.6087 26.8159 35.8337 26.8159ZM35.8534 33.2756C38.0268 33.2756 39.5482 31.6556 39.5482 29.3178C39.5482 27.0005 38.0268 25.4009 35.8534 25.4009C33.68 25.4009 32.1587 27.021 32.1587 29.3178C32.1587 31.6145 33.6998 33.2756 35.8534 33.2756ZM78.333 37.418C78.0564 38.1768 77.681 38.8535 77.0488 39.3662C75.7645 40.4325 73.0182 40.3915 71.8722 38.3613C71.4178 37.5616 71.1609 36.7003 71.0424 35.798C70.8053 34.1574 70.8448 32.5373 71.2399 30.9173C71.398 30.2816 71.6549 29.6664 72.0303 29.1127C73.3145 27.144 76.6734 27.1645 77.8984 29.3383C78.3923 30.1996 78.6492 31.1429 78.7677 32.1067C78.827 32.6809 78.8665 33.2551 78.8863 33.5832C78.8468 35.0802 78.748 36.2696 78.333 37.418ZM80.1113 26.7544C78.6689 25.2369 76.871 24.5601 74.7964 24.5806C73.769 24.5806 72.7613 24.7652 71.8129 25.1959C70.173 25.9341 69.027 27.185 68.2762 28.7846C67.6835 30.0355 67.4069 31.3479 67.3081 32.7014C67.1698 34.506 67.3081 36.2901 67.9008 38.0127C68.948 41.0067 70.9831 42.8524 74.2431 43.1395C75.5077 43.2625 76.7327 43.0779 77.8984 42.5448C79.4988 41.827 80.625 40.6376 81.3758 39.0791C82.1859 37.4385 82.4427 35.6749 82.4625 33.8703C82.4625 32.7629 82.3439 31.6966 82.0871 30.6302C81.7512 29.1742 81.1387 27.8618 80.1113 26.7544ZM58.496 18.6952H55.4138V8.07254H58.496C61.4597 8.07254 63.2577 9.85665 63.2577 13.3633C63.2577 17.0341 61.2622 18.6952 58.496 18.6952ZM58.496 4.52484H51.8969V22.2634H58.5158C63.5541 22.2634 66.8734 18.6952 66.8734 13.3633C66.8734 8.05204 63.5146 4.52484 58.496 4.52484ZM46.4042 18.6131L36.3671 18.6541C35.9522 18.6541 34.6679 18.6541 33.7788 18.5311C32.455 18.326 32.455 17.7723 32.3167 16.8905C32.1982 16.0703 31.23 15.9062 30.6175 15.8242C29.6297 15.6806 27.0216 15.373 23.2676 15.3525C21.4103 15.3525 19.7902 15.414 18.4862 15.4961V12.0919C19.7902 12.0099 21.4103 11.9279 23.2676 11.9484C27.397 11.9689 29.6296 12.256 30.2421 12.338C30.8546 12.42 31.803 12.6456 31.9413 13.4659C32.0796 14.3272 32.0796 14.9014 33.4034 15.1064C34.2728 15.2295 35.557 15.2295 35.972 15.2295H46.3844V18.6131H46.4042ZM33.0873 4.48382C31.7635 4.27875 31.7635 3.72507 31.6252 2.84327C31.5067 2.02299 30.5385 1.81792 29.926 1.71538C29.3135 1.63335 27.397 1.32575 23.2676 1.30524C18.1305 1.28474 14.8507 1.83842 14.8507 1.83842V5.46816C14.8507 5.46816 18.1305 4.91447 23.2676 4.93498C27.397 4.95548 29.3135 5.24258 29.926 5.34511C30.5385 5.42714 31.4869 5.63221 31.6252 6.473C31.7635 7.33429 31.7635 7.90849 33.0873 8.11356C33.9566 8.2366 35.2409 8.2366 35.6558 8.2366H46.3844V11.5997L35.972 11.6408C35.557 11.6408 34.2728 11.6408 33.3837 11.5177C32.0599 11.3126 32.0599 10.759 31.9216 9.87716C31.803 9.05688 30.8349 8.8313 30.2224 8.74927C29.6099 8.66724 27.3772 8.38015 23.2478 8.35964C18.1108 8.33913 14.8309 8.89282 14.8309 8.89282V19.4744C14.8309 19.4744 18.1108 19.0028 23.2478 19.0233C27.3772 19.0438 29.9853 19.3924 30.5978 19.4949C31.2103 19.5769 32.1587 19.741 32.297 20.5613C32.4353 21.4226 32.4353 21.9968 33.7591 22.2018C34.6284 22.3249 35.9127 22.3249 36.3276 22.3249H46.3647H50.0199V4.56585L35.6756 4.60686C35.2607 4.60686 33.9764 4.60686 33.0873 4.48382ZM44.3098 39.5712H47.3921V38.1973H44.3098V36.5772H47.9058V35.2033H42.7094V42.7703H48.0046V41.3964H44.2901V39.5712H44.3098ZM20.6398 36.5977H23.07V42.7908H24.6704V36.5977H27.1006V35.2238H20.6398V36.5977ZM18.3281 27.021L19.4543 30.3226H17.2019L18.3281 27.021ZM19.889 31.635L20.4224 33.1321H22.0623L19.2172 25.565H17.3402L14.5148 33.1321H16.2337L16.7672 31.635H19.889ZM3.48985 33.1321H5.07049V30.5072L8.0737 25.5855H6.335L4.26041 28.8461L2.2451 25.565H0.427368L3.48985 30.4867V33.1321ZM13.9616 31.7581H10.2471V29.933H13.3293V28.559H10.2471V26.9389H13.843V25.565H8.66644V33.1321H13.9616V31.7581ZM13.6652 39.3252C13.6652 40.7606 13.1317 41.4989 12.0648 41.4989C10.9979 41.4989 10.4644 40.7606 10.4644 39.3252V35.2238H8.88378V39.4482C8.88378 41.704 10.01 42.9344 12.0648 42.9344C14.0999 42.9344 15.2458 41.663 15.2458 39.4482V35.2238H13.6652V39.3252ZM26.1522 28.9896H24.2752V26.9389H26.1522C26.824 26.9389 27.1599 27.2876 27.1599 27.9643C27.1599 28.641 26.8043 28.9896 26.1522 28.9896ZM28.9579 33.0705C28.8591 31.3479 28.4244 30.3021 27.6143 29.8099C28.3849 29.4408 28.7998 28.7641 28.7998 27.8413C28.7998 26.4058 27.8119 25.565 26.172 25.565H22.6946V33.1321H24.2752V30.3021H25.8954C26.8833 30.3021 27.2587 31.0403 27.3772 33.091V33.1526H28.9776L28.9579 33.0705ZM17.9527 35.2238H16.3721V42.7908H21.6672V41.4169H17.9527V35.2238ZM74.7964 22.653C79.0443 22.653 81.7907 20.4998 81.7907 16.9315C81.7907 10.0617 71.5165 13.3223 71.5165 9.38499C71.5165 8.03153 72.7218 7.17023 74.5988 7.17023C76.871 7.17023 78.1157 8.35964 77.8193 10.4308H81.356C81.7907 6.65756 79.1036 4.13521 74.6581 4.13521C70.5879 4.13521 67.9404 6.24742 67.9404 9.75411C67.9404 16.7265 78.1947 13.3633 78.1947 17.3007C78.1947 18.6746 76.95 19.5975 74.8754 19.5975C72.4847 19.5975 71.1411 18.3875 71.2597 16.2958H67.723C67.4267 20.1922 70.2915 22.653 74.7964 22.653ZM13.3491 19.5975V15.8242C10.0693 16.2343 6.61161 16.87 4.63582 17.3212V3.02783C4.63582 3.02783 2.52171 3.39695 0.862044 3.80709V22.2634C0.842286 22.2839 5.3471 20.7253 13.3491 19.5975ZM6.39428 39.9404C6.23621 40.9042 5.52492 41.5194 4.57654 41.5194C3.33179 41.5194 2.46244 40.4735 2.46244 38.9765C2.46244 37.5 3.31203 36.4542 4.55678 36.4542C5.09025 36.4542 5.54468 36.6387 5.82129 36.9874C6.09791 37.336 6.21645 37.8281 6.11766 38.3818L6.09791 38.4434H7.73782V38.4023C7.87612 37.5616 7.67854 36.7823 7.18459 36.1671C6.59186 35.4493 5.62371 35.0187 4.53703 35.0187C2.36365 35.0187 0.842286 36.6387 0.842286 38.956C0.842286 41.3143 2.38341 42.9344 4.57654 42.9344C6.45355 42.9344 7.81685 41.7655 8.05394 39.9609V39.8994H6.37452L6.39428 39.9404Z" fill="#FCFBF9"/>
</g>
<defs>
<clipPath id="clip0_4_25123">
<rect width="112.961" height="42.3604" fill="white" transform="translate(0 0.819824)"/>
</clipPath>
</defs>
</svg>
