<svg width="2331" height="130" viewBox="0 0 2331 130" fill="none" xmlns="http://www.w3.org/2000/svg">
<path d="M703.31 83.7807C719.503 85.1766 729.973 93.8316 729.973 106.256C729.973 119.796 717.409 129.149 698.843 129.149C680.695 129.149 667.015 120.076 664.083 105.697H679.16C680.416 112.956 688.234 117.563 698.703 117.563C709.173 117.563 716.292 113.096 716.292 105.976C716.292 98.8571 709.033 93.9712 696.33 93.9712C689.909 93.9712 682.231 95.2276 675.251 97.1819V85.735C685.86 84.0599 694.934 80.9888 701.914 77.0801C699.541 77.6385 697.028 77.9176 694.236 77.9176C677.485 77.9176 666.177 68.4251 666.177 53.7675C666.177 38.4119 678.741 27.9422 697.168 27.9422C706.66 27.9422 714.338 30.5945 719.782 35.2012C721.597 31.8509 721.318 25.1503 720.201 20.9624H732.067C733.742 29.059 731.09 37.5743 725.227 41.7622C727.181 45.1125 728.158 49.0212 728.158 53.2091C728.158 65.7728 719.084 76.6613 703.31 83.7807ZM679.858 53.9071C679.858 62.4225 686.838 68.2855 697.307 68.2855C707.637 68.2855 714.478 62.4225 714.478 53.9071C714.478 45.3917 707.777 39.5287 697.307 39.5287C686.977 39.5287 679.858 45.3917 679.858 53.9071Z" fill="black"/>
<path d="M632.812 27.8027C655.147 27.8027 655.147 49.7193 655.147 61.1662V99.4156H642.165V61.585C642.165 52.3717 642.165 39.6684 628.624 39.6684C616.619 39.6684 608.382 49.9985 608.382 65.4937V99.4156H595.4V29.6175H608.382V42.8791C613.408 33.3866 622.063 27.8027 632.812 27.8027Z" fill="black"/>
<path d="M573.398 18.5894C568.233 18.5894 564.325 14.5411 564.325 9.51565C564.325 4.35059 568.233 0.441895 573.398 0.441895C578.424 0.441895 582.332 4.35059 582.332 9.51565C582.332 14.5411 578.424 18.5894 573.398 18.5894ZM566.837 99.4156V29.6175H579.82V99.4156H566.837Z" fill="black"/>
<path d="M545.693 29.6177H559.094L533.548 104.86C529.081 117.982 521.682 128.591 506.885 128.591C503.116 128.591 499.068 127.893 495.717 126.497V115.051C499.207 116.307 502.418 117.005 505.629 117.005C515.4 117.005 518.89 109.885 521.124 103.324V103.185L493.344 29.6177H507.025L526.987 87.6897L545.693 29.6177Z" fill="black"/>
<path d="M459.747 27.8027C479.291 27.8027 488.923 40.506 488.923 59.6307V99.4156H476.639V87.1311C471.613 96.0653 462.958 101.23 451.651 101.23C437.272 101.23 427.64 92.8545 427.64 80.4305C427.64 66.4709 439.925 57.8159 459.329 57.8159C464.912 57.8159 470.775 58.5139 475.941 59.9099V59.6307C475.941 47.9046 471.892 39.3892 459.608 39.3892C450.115 39.3892 444.113 44.4147 446.207 53.628H432.666C428.897 38.5516 441.879 27.8027 459.747 27.8027ZM453.605 90.2022C465.052 90.2022 474.405 82.664 476.359 70.6588C471.613 69.1232 465.75 68.2856 460.306 68.2856C447.882 68.2856 441.042 73.1715 441.042 80.5701C441.042 86.7123 445.788 90.2022 453.605 90.2022Z" fill="black"/>
<path d="M402.986 99.4156V1.69824H415.969V99.4156H402.986Z" fill="black"/>
<path d="M360.647 1.69824C380.61 1.69824 391.917 11.6096 391.917 29.6175C391.917 47.4858 380.61 57.9555 360.647 57.9555H330.494V99.4156H316.674V1.69824H360.647ZM360.647 45.671C371.536 45.671 377.678 39.808 377.678 29.6175C377.678 19.427 371.536 13.8431 360.647 13.8431H330.494V45.671H360.647Z" fill="black"/>
<path d="M259.538 29.6177H272.939L250.325 99.4158H235.946L219.614 47.9048L203.56 99.4158H189.042L166.427 29.6177H180.108L196.441 84.1998L212.913 29.6177H226.733L242.787 83.6414L259.538 29.6177Z" fill="black"/>
<path d="M129.202 101.23C108.542 101.23 94.7219 86.4331 94.7219 64.5165C94.7219 42.5999 108.542 27.8027 129.202 27.8027C149.862 27.8027 163.682 42.5999 163.682 64.5165C163.682 86.4331 149.862 101.23 129.202 101.23ZM129.202 89.6438C141.766 89.6438 150.002 79.4533 150.002 64.5165C150.002 49.4401 141.766 39.3892 129.202 39.3892C116.778 39.3892 108.402 49.4401 108.402 64.5165C108.402 79.4533 116.778 89.6438 129.202 89.6438Z" fill="black"/>
<path d="M65.6532 1.69824H79.4732V99.4156H60.0694L14.2818 17.6122V99.4156H0.461792V1.69824H20.1449L65.6532 82.664V1.69824Z" fill="black"/>
<path d="M1502.41 83.7807C1518.6 85.1766 1529.07 93.8316 1529.07 106.256C1529.07 119.796 1516.51 129.149 1497.94 129.149C1479.8 129.149 1466.11 120.076 1463.18 105.697H1478.26C1479.52 112.956 1487.33 117.563 1497.8 117.563C1508.27 117.563 1515.39 113.096 1515.39 105.976C1515.39 98.8571 1508.13 93.9712 1495.43 93.9712C1489.01 93.9712 1481.33 95.2276 1474.35 97.1819V85.735C1484.96 84.0599 1494.03 80.9888 1501.01 77.0801C1498.64 77.6385 1496.13 77.9176 1493.34 77.9176C1476.58 77.9176 1465.28 68.4251 1465.28 53.7675C1465.28 38.4119 1477.84 27.9422 1496.27 27.9422C1505.76 27.9422 1513.44 30.5945 1518.88 35.2012C1520.7 31.8509 1520.42 25.1503 1519.3 20.9624H1531.17C1532.84 29.059 1530.19 37.5743 1524.33 41.7622C1526.28 45.1125 1527.26 49.0212 1527.26 53.2091C1527.26 65.7728 1518.18 76.6613 1502.41 83.7807ZM1478.96 53.9071C1478.96 62.4225 1485.94 68.2855 1496.41 68.2855C1506.74 68.2855 1513.58 62.4225 1513.58 53.9071C1513.58 45.3917 1506.88 39.5287 1496.41 39.5287C1486.08 39.5287 1478.96 45.3917 1478.96 53.9071Z" fill="black"/>
<path d="M1431.91 27.8027C1454.25 27.8027 1454.25 49.7193 1454.25 61.1662V99.4156H1441.26V61.585C1441.26 52.3717 1441.26 39.6684 1427.72 39.6684C1415.72 39.6684 1407.48 49.9985 1407.48 65.4937V99.4156H1394.5V29.6175H1407.48V42.8791C1412.51 33.3866 1421.16 27.8027 1431.91 27.8027Z" fill="black"/>
<path d="M1372.5 18.5894C1367.33 18.5894 1363.42 14.5411 1363.42 9.51565C1363.42 4.35059 1367.33 0.441895 1372.5 0.441895C1377.52 0.441895 1381.43 4.35059 1381.43 9.51565C1381.43 14.5411 1377.52 18.5894 1372.5 18.5894ZM1365.94 99.4156V29.6175H1378.92V99.4156H1365.94Z" fill="black"/>
<path d="M1344.79 29.6177H1358.19L1332.65 104.86C1328.18 117.982 1320.78 128.591 1305.98 128.591C1302.22 128.591 1298.17 127.893 1294.82 126.497V115.051C1298.31 116.307 1301.52 117.005 1304.73 117.005C1314.5 117.005 1317.99 109.885 1320.22 103.324V103.185L1292.44 29.6177H1306.12L1326.09 87.6897L1344.79 29.6177Z" fill="black"/>
<path d="M1258.85 27.8027C1278.39 27.8027 1288.02 40.506 1288.02 59.6307V99.4156H1275.74V87.1311C1270.71 96.0653 1262.06 101.23 1250.75 101.23C1236.37 101.23 1226.74 92.8545 1226.74 80.4305C1226.74 66.4709 1239.02 57.8159 1258.43 57.8159C1264.01 57.8159 1269.88 58.5139 1275.04 59.9099V59.6307C1275.04 47.9046 1270.99 39.3892 1258.71 39.3892C1249.21 39.3892 1243.21 44.4147 1245.31 53.628H1231.77C1228 38.5516 1240.98 27.8027 1258.85 27.8027ZM1252.7 90.2022C1264.15 90.2022 1273.5 82.664 1275.46 70.6588C1270.71 69.1232 1264.85 68.2856 1259.41 68.2856C1246.98 68.2856 1240.14 73.1715 1240.14 80.5701C1240.14 86.7123 1244.89 90.2022 1252.7 90.2022Z" fill="black"/>
<path d="M1202.09 99.4156V1.69824H1215.07V99.4156H1202.09Z" fill="black"/>
<path d="M1159.75 1.69824C1179.71 1.69824 1191.02 11.6096 1191.02 29.6175C1191.02 47.4858 1179.71 57.9555 1159.75 57.9555H1129.59V99.4156H1115.77V1.69824H1159.75ZM1159.75 45.671C1170.64 45.671 1176.78 39.808 1176.78 29.6175C1176.78 19.427 1170.64 13.8431 1159.75 13.8431H1129.59V45.671H1159.75Z" fill="black"/>
<path d="M1058.64 29.6177H1072.04L1049.42 99.4158H1035.05L1018.71 47.9048L1002.66 99.4158H988.142L965.527 29.6177H979.208L995.54 84.1998L1012.01 29.6177H1025.83L1041.89 83.6414L1058.64 29.6177Z" fill="black"/>
<path d="M928.302 101.23C907.642 101.23 893.822 86.4331 893.822 64.5165C893.822 42.5999 907.642 27.8027 928.302 27.8027C948.962 27.8027 962.782 42.5999 962.782 64.5165C962.782 86.4331 948.962 101.23 928.302 101.23ZM928.302 89.6438C940.866 89.6438 949.102 79.4533 949.102 64.5165C949.102 49.4401 940.866 39.3892 928.302 39.3892C915.878 39.3892 907.502 49.4401 907.502 64.5165C907.502 79.4533 915.878 89.6438 928.302 89.6438Z" fill="black"/>
<path d="M864.753 1.69824H878.573V99.4156H859.169L813.382 17.6122V99.4156H799.562V1.69824H819.245L864.753 82.664V1.69824Z" fill="black"/>
<path d="M2301.51 83.7807C2317.7 85.1766 2328.17 93.8316 2328.17 106.256C2328.17 119.796 2315.61 129.149 2297.04 129.149C2278.89 129.149 2265.21 120.076 2262.28 105.697H2277.36C2278.62 112.956 2286.43 117.563 2296.9 117.563C2307.37 117.563 2314.49 113.096 2314.49 105.976C2314.49 98.8571 2307.23 93.9712 2294.53 93.9712C2288.11 93.9712 2280.43 95.2276 2273.45 97.1819V85.735C2284.06 84.0599 2293.13 80.9888 2300.11 77.0801C2297.74 77.6385 2295.23 77.9176 2292.44 77.9176C2275.68 77.9176 2264.38 68.4251 2264.38 53.7675C2264.38 38.4119 2276.94 27.9422 2295.37 27.9422C2304.86 27.9422 2312.54 30.5945 2317.98 35.2012C2319.8 31.8509 2319.52 25.1503 2318.4 20.9624H2330.27C2331.94 29.059 2329.29 37.5743 2323.43 41.7622C2325.38 45.1125 2326.36 49.0212 2326.36 53.2091C2326.36 65.7728 2317.28 76.6613 2301.51 83.7807ZM2278.06 53.9071C2278.06 62.4225 2285.04 68.2855 2295.51 68.2855C2305.84 68.2855 2312.68 62.4225 2312.68 53.9071C2312.68 45.3917 2305.98 39.5287 2295.51 39.5287C2285.18 39.5287 2278.06 45.3917 2278.06 53.9071Z" fill="black"/>
<path d="M2231.01 27.8027C2253.35 27.8027 2253.35 49.7193 2253.35 61.1662V99.4156H2240.36V61.585C2240.36 52.3717 2240.36 39.6684 2226.82 39.6684C2214.82 39.6684 2206.58 49.9985 2206.58 65.4937V99.4156H2193.6V29.6175H2206.58V42.8791C2211.61 33.3866 2220.26 27.8027 2231.01 27.8027Z" fill="black"/>
<path d="M2171.6 18.5894C2166.43 18.5894 2162.52 14.5411 2162.52 9.51565C2162.52 4.35059 2166.43 0.441895 2171.6 0.441895C2176.62 0.441895 2180.53 4.35059 2180.53 9.51565C2180.53 14.5411 2176.62 18.5894 2171.6 18.5894ZM2165.04 99.4156V29.6175H2178.02V99.4156H2165.04Z" fill="black"/>
<path d="M2143.89 29.6177H2157.29L2131.75 104.86C2127.28 117.982 2119.88 128.591 2105.08 128.591C2101.32 128.591 2097.27 127.893 2093.92 126.497V115.051C2097.41 116.307 2100.62 117.005 2103.83 117.005C2113.6 117.005 2117.09 109.885 2119.32 103.324V103.185L2091.54 29.6177H2105.22L2125.19 87.6897L2143.89 29.6177Z" fill="black"/>
<path d="M2057.95 27.8027C2077.49 27.8027 2087.12 40.506 2087.12 59.6307V99.4156H2074.84V87.1311C2069.81 96.0653 2061.16 101.23 2049.85 101.23C2035.47 101.23 2025.84 92.8545 2025.84 80.4305C2025.84 66.4709 2038.12 57.8159 2057.53 57.8159C2063.11 57.8159 2068.97 58.5139 2074.14 59.9099V59.6307C2074.14 47.9046 2070.09 39.3892 2057.81 39.3892C2048.31 39.3892 2042.31 44.4147 2044.41 53.628H2030.87C2027.1 38.5516 2040.08 27.8027 2057.95 27.8027ZM2051.8 90.2022C2063.25 90.2022 2072.6 82.664 2074.56 70.6588C2069.81 69.1232 2063.95 68.2856 2058.51 68.2856C2046.08 68.2856 2039.24 73.1715 2039.24 80.5701C2039.24 86.7123 2043.99 90.2022 2051.8 90.2022Z" fill="black"/>
<path d="M2001.19 99.4156V1.69824H2014.17V99.4156H2001.19Z" fill="black"/>
<path d="M1958.85 1.69824C1978.81 1.69824 1990.12 11.6096 1990.12 29.6175C1990.12 47.4858 1978.81 57.9555 1958.85 57.9555H1928.69V99.4156H1914.87V1.69824H1958.85ZM1958.85 45.671C1969.74 45.671 1975.88 39.808 1975.88 29.6175C1975.88 19.427 1969.74 13.8431 1958.85 13.8431H1928.69V45.671H1958.85Z" fill="black"/>
<path d="M1857.74 29.6177H1871.14L1848.52 99.4158H1834.15L1817.81 47.9048L1801.76 99.4158H1787.24L1764.63 29.6177H1778.31L1794.64 84.1998L1811.11 29.6177H1824.93L1840.99 83.6414L1857.74 29.6177Z" fill="black"/>
<path d="M1727.4 101.23C1706.74 101.23 1692.92 86.4331 1692.92 64.5165C1692.92 42.5999 1706.74 27.8027 1727.4 27.8027C1748.06 27.8027 1761.88 42.5999 1761.88 64.5165C1761.88 86.4331 1748.06 101.23 1727.4 101.23ZM1727.4 89.6438C1739.97 89.6438 1748.2 79.4533 1748.2 64.5165C1748.2 49.4401 1739.97 39.3892 1727.4 39.3892C1714.98 39.3892 1706.6 49.4401 1706.6 64.5165C1706.6 79.4533 1714.98 89.6438 1727.4 89.6438Z" fill="black"/>
<path d="M1663.85 1.69824H1677.67V99.4156H1658.27L1612.48 17.6122V99.4156H1598.66V1.69824H1618.34L1663.85 82.664V1.69824Z" fill="black"/>
</svg>
