<svg width="1369" height="694" viewBox="0 0 1369 694" fill="none" xmlns="http://www.w3.org/2000/svg">
<g clip-path="url(#clip0_237_39705)">
<path d="M1440.95 -1183.43C1440.16 -1182.71 1435.63 -1177.7 1430.91 -1171.98L1422.25 -1161.6L1409.07 -1164.64C1363.62 -1175.02 1288.85 -1187.36 1242.81 -1192.02C1230.22 -1193.27 1216.64 -1194.7 1212.71 -1195.24C1208.97 -1195.59 1192.05 -1197.02 1175.52 -1198.1C1149.74 -1199.89 1136.95 -1200.07 1086.98 -1200.07C1015.75 -1200.24 999.811 -1199.35 941.177 -1192.55C919.533 -1190.05 911.86 -1188.8 878.804 -1182.89C827.253 -1173.77 766.454 -1156.77 719.822 -1138.7C712.739 -1135.84 703.098 -1132.26 698.769 -1130.47C688.341 -1126.36 641.512 -1105.07 637.774 -1102.75C636.199 -1101.67 634.822 -1100.96 634.625 -1100.96C633.248 -1100.96 600.979 -1082.89 584.058 -1072.87C566.35 -1062.14 537.032 -1042.99 524.046 -1033.33C480.956 -1001.67 451.049 -976.623 415.632 -942.812C392.021 -920.092 389.463 -917.408 366.245 -892.899C342.241 -867.496 316.465 -837.62 290.296 -804.703C288.132 -802.019 285.574 -798.799 284.787 -797.726C284 -796.653 279.868 -791.286 275.736 -785.74C266.488 -773.575 250.747 -751.749 248.386 -748.171C246.025 -744.593 234.416 -727.777 232.449 -725.094C231.465 -723.841 228.907 -719.727 226.546 -715.97C224.185 -712.213 220.446 -706.488 218.479 -703.268C214.15 -696.649 206.87 -685.021 194.671 -664.805C185.423 -649.778 165.157 -613.283 156.696 -596.287C153.548 -590.026 149.219 -581.439 147.055 -577.324C144.891 -573.21 143.12 -569.632 143.12 -569.274C143.12 -569.095 141.742 -566.233 140.168 -563.013C136.823 -556.214 126.986 -534.926 125.018 -530.274C124.231 -528.485 123.05 -525.802 122.46 -524.371C119.705 -518.646 110.064 -495.568 105.735 -484.656C103.374 -478.394 100.226 -470.702 99.0455 -467.66C96.8812 -462.114 91.5688 -447.982 83.8951 -426.514C70.7123 -390.019 53.3974 -331.34 42.5756 -286.616C40.4113 -277.492 37.8533 -267.295 37.0663 -263.717C36.2792 -260.139 34.3117 -251.91 32.9344 -245.47C31.557 -238.851 29.9831 -231.695 29.5895 -229.548C29.196 -227.222 27.0316 -217.025 25.064 -206.649C23.0964 -196.273 21.1289 -185.539 20.5386 -182.498C16.8002 -162.998 10.5038 -117.737 8.1427 -93.407C7.1589 -84.641 5.97825 -73.5493 5.58473 -68.719C1.45278 -34.3707 -0.711526 58.6558 1.45283 112.683C4.20747 183.705 13.4553 288.718 21.7192 345.428C25.4576 370.653 30.7701 403.212 32.7377 413.946C33.9182 419.671 35.6891 430.583 36.6729 438.097C39.6243 458.134 44.3465 486.936 46.7076 498.028C54.7747 536.312 57.9229 550.266 64.2192 574.417C65.5965 579.426 67.1707 586.403 67.761 589.981C74.6476 628.623 88.8143 685.154 102.194 726.122L104.162 732.204L124.624 732.204C136.036 732.204 145.284 731.846 145.284 731.489C145.284 730.952 143.71 728.268 141.743 725.227C135.643 716.282 116.164 679.787 107.9 662.077C103.571 652.953 100.226 645.26 100.226 644.902C100.226 644.545 99.0456 642.219 97.8651 639.536C94.5202 632.737 91.5688 623.614 90.7818 618.247C90.3883 615.742 89.7979 611.806 89.2076 609.481C88.2238 605.366 82.518 567.798 79.5666 546.33C78.386 537.385 75.041 508.404 71.1058 474.055C68.9414 454.913 64.8095 401.065 63.0387 369.401C60.2841 321.098 60.8743 208.572 64.0225 171.003C64.416 164.563 65.7932 150.609 66.5802 139.875C72.8765 63.4861 91.5688 -32.5819 117.344 -121.673C127.182 -155.842 133.282 -175.7 143.907 -208.08C162.796 -265.148 190.736 -337.96 210.018 -380.358C212.182 -385.367 215.724 -393.06 217.692 -397.354C219.659 -401.647 222.611 -407.73 224.185 -410.95C225.759 -414.17 227.136 -416.853 227.136 -417.211C227.136 -417.569 228.317 -419.716 244.254 -451.023C250.551 -463.009 255.863 -473.385 256.257 -473.922C256.65 -474.279 260.389 -480.72 264.521 -488.055C284 -522.224 296.986 -542.439 318.236 -571.063C328.271 -584.659 346.372 -607.558 348.537 -609.705C348.93 -610.063 350.308 -611.852 352.079 -613.819C355.424 -618.113 380.215 -645.126 382.576 -647.273C383.56 -648.168 388.282 -652.819 393.201 -657.828C409.139 -673.75 444.752 -705.594 464.232 -721.337C468.167 -724.557 472.102 -727.598 472.692 -728.135C476.824 -731.534 505.157 -752.465 511.06 -756.401C513.225 -757.832 515.389 -759.263 515.586 -759.442C515.979 -759.979 528.769 -768.745 536.246 -773.575C546.674 -780.373 562.808 -790.57 566.35 -792.538C568.514 -793.79 574.614 -797.368 579.926 -800.23C624.394 -826.528 682.044 -851.753 735.366 -868.211C778.063 -881.45 829.614 -891.289 875.656 -894.867C898.677 -896.656 942.554 -897.551 968.133 -896.656C994.696 -895.583 1042.31 -892.005 1055.89 -890.037C1060.61 -889.321 1071.23 -887.89 1079.89 -886.817C1110.78 -883.06 1168.63 -872.326 1207.59 -863.202C1239.46 -855.689 1272.52 -847.281 1273.5 -846.386C1273.7 -846.207 1272.72 -841.377 1271.34 -835.652C1264.65 -806.671 1258.94 -766.956 1254.81 -722.231C1250.88 -677.865 1250.29 -662.122 1250.88 -583.765C1251.86 -424.546 1251.27 -155.663 1250.09 -117.558C1247.53 -42.2424 1246.94 -25.0682 1245.96 -19.3434C1243.99 -8.60967 1238.09 40.0505 1233.96 76.1878C1231.79 95.8665 1229.63 115.366 1228.84 119.66L1227.66 127.531L1216.84 124.311C1131.84 99.0865 1038.97 76.9033 967.936 64.7382C956.328 62.7705 944.719 60.6237 942.358 60.087C936.848 59.0136 899.07 53.4677 879.985 50.9632C759.568 35.3991 654.301 36.8303 581.304 55.2568C546.28 64.0227 513.421 78.1556 493.549 93.3619C487.252 98.0132 472.299 111.431 467.773 116.44C441.801 144.884 429.799 170.824 420.551 217.338C419.37 223.062 417.796 228.787 417.009 230.397C416.222 231.828 414.255 237.374 412.287 242.92C410.516 248.287 407.171 257.411 404.81 262.778C400.875 271.901 398.514 277.805 392.414 296.232C391.234 299.452 389.463 306.071 388.282 310.722C387.102 315.552 384.937 321.993 383.363 325.213C376.477 339.525 366.048 369.758 362.703 384.786C361.72 389.079 359.949 394.446 358.768 396.951C355.62 403.212 346.963 427.721 343.028 440.244C337.322 459.207 332.206 484.61 329.845 505.72C328.074 520.569 328.074 586.582 329.845 602.146C332.206 623.077 337.912 651.343 343.815 671.021C347.356 683.365 356.407 709.305 358.768 714.136C359.555 715.746 361.326 720.039 362.9 723.975L365.655 730.952L577.368 730.952C693.85 730.952 788.688 730.594 788.098 730.236C787.704 729.879 780.424 725.585 772.16 720.934C754.846 711.094 714.313 686.228 708.804 681.934C708.41 681.576 705.656 679.787 703.098 678.177C700.54 676.567 697.785 674.778 696.998 674.241C696.211 673.526 691.096 669.948 685.586 666.191C680.077 662.434 673.977 658.141 672.01 656.531C670.042 655.1 666.304 652.237 663.943 650.627C661.385 648.838 657.646 645.976 655.285 644.187C653.121 642.398 648.595 638.82 645.251 636.315C618.688 616.279 568.711 570.66 553.167 552.234C551.79 550.802 550.609 549.371 550.216 549.014C548.248 547.403 531.13 527.546 522.866 516.991C517.553 510.193 511.847 503.037 510.273 501.069C504.37 493.555 487.843 468.51 479.382 454.198C470.331 438.813 456.164 410.726 453.213 401.96C452.229 399.276 450.852 395.698 450.065 394.267C445.343 384.249 435.505 351.332 431.766 332.727L430.192 324.14L434.718 320.383C450.065 307.86 475.644 293.011 498.074 283.709C516.373 276.016 547.264 267.25 567.924 264.03C601.373 258.663 609.834 257.947 651.94 258.126C690.112 258.126 692.669 258.305 718.838 260.989C752.484 264.567 784.95 269.576 810.922 274.943C855.586 284.245 884.904 291.401 923.468 302.135C939.406 306.608 976.2 317.52 987.809 321.456C990.76 322.529 1000.4 325.571 1008.86 328.254C1024.01 333.084 1045.07 340.24 1067.3 347.754C1091.7 356.341 1146 376.556 1160.56 382.818C1163.91 384.249 1167.25 385.501 1167.65 385.501C1169.81 385.501 1169.61 387.469 1166.07 397.487C1155.64 427.721 1153.28 434.161 1146.4 452.23C1142.27 462.964 1136.17 478.17 1133.21 485.505C1130.07 493.019 1126.52 502.142 1125.15 505.541C1123.57 509.119 1121.8 513.592 1120.82 515.56C1119.83 517.528 1117.87 522.358 1116.29 526.115C1114.72 529.871 1113.14 533.449 1112.75 533.807C1112.36 534.344 1110.78 537.922 1109.21 541.5C1107.64 545.257 1105.47 550.445 1104.09 552.949C1102.72 555.454 1099.96 561.536 1097.8 566.188C1093.27 575.848 1073.2 609.123 1062.97 623.793C1061.79 625.581 1058.05 630.948 1054.9 635.957C1048.02 646.334 1024.41 678.893 1019.09 685.512C1016.93 688.017 1013.98 691.773 1012.4 693.741C1002.76 705.906 992.728 717.713 984.267 727.016L980.922 730.594L1020.47 730.594L1060.02 730.594L1066.91 716.282C1074.38 700.539 1091.5 661.898 1093.67 656.173C1094.26 654.205 1095.24 652.237 1095.63 651.7C1096.03 651.343 1097.6 647.407 1099.17 642.934C1100.75 638.641 1102.52 633.99 1103.31 632.38C1107.64 623.435 1130.66 559.032 1139.51 530.05C1140.3 527.546 1142.07 522.716 1143.45 519.138C1145.02 515.738 1149.55 503.931 1153.68 493.019C1157.81 482.285 1161.74 472.088 1162.14 470.656C1166.07 460.638 1180.63 420.744 1184.57 409.473C1187.13 401.96 1189.68 395.519 1190.08 395.162C1190.86 394.446 1200.31 398.203 1234.35 412.873C1241.24 415.735 1250.48 419.85 1254.81 421.638C1283.34 433.625 1373.26 475.129 1417.53 496.596C1431.11 503.216 1442.72 508.583 1442.91 508.583C1443.31 508.583 1443.31 439.17 1443.31 354.194L1443.31 199.806L1439.57 198.196C1434.06 196.049 1399.43 183.526 1386.44 178.875C1380.34 176.728 1368.93 172.613 1360.87 169.751C1345.32 164.384 1321.12 156.155 1294.95 147.568C1286.1 144.705 1278.42 142.022 1278.03 141.664C1277.64 141.306 1278.82 136.297 1280.78 130.572C1290.03 104.275 1312.86 41.4816 1313.45 40.5871C1313.84 40.2293 1315.22 37.0092 1316.2 33.789C1317.38 30.5689 1320.33 22.6975 1322.89 16.436C1334.7 -13.6187 1337.65 -20.7747 1338.63 -22.3847C1339.02 -23.4582 1341.19 -28.1094 1343.16 -32.9396C1345.12 -37.7698 1348.47 -45.9992 1350.83 -51.1872C1363.62 -80.7053 1365.59 -85.3566 1375.43 -107.361C1377.39 -111.833 1379.75 -117.022 1380.74 -118.453C1381.52 -120.063 1383.3 -123.998 1384.67 -127.219C1386.05 -130.439 1388.21 -135.448 1389.79 -138.31C1391.17 -141.173 1392.15 -144.214 1391.95 -144.93C1391.56 -145.645 1391.76 -146.003 1392.35 -145.645C1392.94 -145.287 1393.72 -146.003 1394.12 -147.255C1394.51 -148.507 1395.89 -151.549 1397.07 -153.874C1398.25 -156.379 1400.22 -160.672 1401.59 -163.356C1402.77 -166.039 1404.55 -169.975 1405.53 -172.122C1406.51 -174.269 1408.68 -178.92 1410.25 -182.677C1412.02 -186.434 1417.34 -197.704 1422.06 -207.722C1426.98 -217.741 1432.49 -229.727 1434.65 -234.199C1436.81 -238.672 1439.57 -244.754 1441.14 -247.795L1443.7 -253.162L1443.7 -718.117C1442.52 -1120.81 1442.32 -1184.32 1440.95 -1183.43Z" fill="#FFC906"/>
<path d="M1367.56 460.278C1366.18 453.123 1362.84 443.641 1356.93 431.476C1346.7 410.545 1322.89 390.509 1291.02 375.839C1251.47 357.77 1227.27 355.445 1212.71 368.504C1207.99 372.619 1207.2 374.05 1204.44 382.279C1202.67 387.288 1200.9 393.371 1200.71 395.697C1200.31 399.632 1200.31 399.99 1202.48 400.885C1204.84 401.6 1208.58 403.21 1231.79 413.228C1237.3 415.554 1242.22 417.343 1242.62 416.985C1243.01 416.628 1243.6 415.375 1243.6 413.944C1243.8 410.187 1249.31 396.412 1251.67 394.086C1257.37 388.541 1268.78 387.467 1280.39 391.403C1297.51 397.307 1310.69 408.398 1320.93 425.036C1325.65 433.086 1327.03 437.38 1328.01 447.935C1328.4 452.228 1328.99 455.985 1329.19 456.164C1329.39 456.343 1338.63 460.636 1349.46 465.824L1369.33 475.127L1369.33 471.728C1368.94 469.76 1368.34 464.572 1367.56 460.278Z" fill="#EE3796"/>
<path d="M1365.97 324.136C1362.82 310.361 1358.49 300.7 1351.41 292.113C1336.06 273.329 1306.35 255.976 1269.75 244.705C1243.19 236.476 1218.79 235.224 1204.43 241.306C1200.1 243.095 1198.72 244.348 1196.17 248.283C1192.23 254.903 1190.26 261.522 1189.48 271.898C1188.89 282.274 1189.87 289.788 1193.41 296.049C1200.1 308.214 1222.53 332.007 1236.7 341.489C1263.46 359.736 1302.02 376.195 1323.86 378.878C1341.97 381.204 1352.98 376.195 1361.25 361.883C1368.33 349.897 1369.51 339.521 1365.97 324.136ZM1320.32 339.342C1315.01 348.824 1311.66 351.149 1301.63 351.507C1292.58 351.865 1283.72 349.539 1272.9 343.815C1259.72 336.659 1244.77 323.42 1239.26 313.402C1234.93 305.709 1233.75 299.806 1234.34 288.714C1235.32 272.077 1240.83 263.132 1251.85 260.269C1255.78 259.196 1257.56 259.375 1265.62 261.164C1292.97 266.71 1311.47 279.233 1318.94 297.122C1323.27 307.32 1324.26 312.865 1324.06 323.241C1324.26 331.65 1323.86 332.902 1320.32 339.342Z" fill="#EE3796"/>
<path d="M1359.11 211.773C1358.12 208.553 1357.14 201.218 1356.75 195.672C1355.96 184.223 1355.57 182.255 1351.83 175.099C1348.68 169.017 1344.94 165.796 1339.04 164.007C1336.48 163.292 1324.48 159.177 1312.48 155.241C1292.01 148.443 1285.72 146.654 1292.6 149.875C1297.13 152.021 1303.82 157.925 1306.57 161.861C1309.33 166.154 1311.69 174.741 1312.48 183.507C1312.87 186.727 1313.85 192.81 1314.64 196.746C1315.62 200.86 1316.41 205.154 1316.41 206.585C1316.41 212.131 1308.54 221.076 1300.67 224.296C1286.31 230.378 1259.94 223.044 1244.59 208.732C1241.05 205.333 1235.15 196.925 1232.59 191.379C1231.22 188.337 1228.07 182.434 1225.71 178.14C1221.77 170.984 1221.38 170.09 1221.97 164.902C1222.95 155.241 1231.61 142.361 1239.87 138.604C1242.23 137.352 1245.97 136.815 1249.51 136.636L1255.42 136.457L1246.96 133.774C1242.23 132.343 1238.1 130.733 1237.71 130.375C1237.31 130.017 1236.53 127.155 1235.94 124.113C1235.15 118.746 1234.95 118.746 1234.95 122.861C1234.76 127.87 1233.77 129.659 1231.41 128.944C1230.03 128.407 1229.84 126.976 1230.23 118.031L1230.82 107.655L1229.25 116.6C1228.46 121.609 1227.67 126.081 1227.48 126.797C1227.28 127.691 1223.15 126.797 1212.52 123.577C1204.46 121.072 1197.18 119.104 1196.19 119.104C1193.04 119.104 1185.57 127.333 1180.65 136.278C1176.91 143.255 1175.93 146.118 1175.53 150.769C1175.14 156.136 1175.53 157.209 1178.48 162.755C1180.45 166.154 1183.01 171.7 1184.39 175.099C1188.12 185.654 1194.03 195.136 1200.13 201.397C1209.57 210.7 1232.99 223.759 1257.78 233.241C1261.91 234.851 1266.63 236.64 1268.4 237.534C1273.72 239.681 1296.54 246.121 1305.2 248.089C1316.61 250.594 1328.41 251.309 1334.32 249.878C1340.42 248.447 1348.29 242.901 1353.6 236.461C1361.47 226.8 1362.26 223.044 1359.11 211.773Z" fill="#EE3796"/>
<path d="M1331.74 -44.7225C1329.38 -47.7637 1327.02 -50.6261 1326.23 -51.3417C1324.85 -52.2362 1324.85 -53.1307 1325.84 -56.7086C1329.77 -71.0204 1331.15 -84.0799 1328.79 -86.2267C1325.84 -88.9101 1321.51 -86.0478 1317.97 -79.0708C1316.79 -76.7451 1313.64 -66.7269 1310.88 -56.7086C1308.13 -46.6904 1304.98 -36.6721 1304.39 -34.5253C1303.21 -31.1263 1303.21 -30.2317 1304.39 -28.4428C1307.15 -24.6859 1307.74 -17.8879 1306.56 -2.3238C1305.38 12.7036 1305.97 18.7861 1308.92 28.4466L1310.1 32.0245L1312.46 26.4786C1314.82 20.7539 1314.82 20.9329 1311.48 10.0202C1309.11 2.32758 1309.51 -5.36507 1312.26 -13.4155C1313.64 -17.1723 1315.8 -23.7914 1317.38 -28.4428C1321.51 -40.9656 1321.71 -41.1446 1326.82 -33.452C1329.18 -30.0529 1330.95 -26.6539 1330.95 -25.9383C1330.95 -23.9704 1332.73 -26.4749 1334.3 -31.1262C1336.46 -37.2087 1336.27 -38.4611 1331.74 -44.7225ZM1322.89 -51.5206C1320.92 -44.3647 1313.64 -22.5391 1311.87 -18.6034C1310.29 -15.0255 1310.49 -36.4931 1312.26 -40.9656C1313.05 -42.9334 1315.02 -49.3737 1316.79 -55.2774C1320.13 -66.369 1323.08 -72.2727 1324.85 -71.0204C1326.43 -70.3048 1325.44 -60.4654 1322.89 -51.5206Z" fill="#EE3796"/>
<path d="M1301.63 -8.24199C1301.04 -10.3888 1300.25 -12.8934 1299.86 -13.7879C1298.88 -15.2191 1298.88 -15.0401 1298.29 -13.4301C1295.73 -5.37968 1295.53 -4.12735 1297.11 1.59736C1298.29 6.24869 1298.48 8.57434 1297.5 14.6568C1296.91 18.7715 1296.32 28.0742 1296.32 35.5879C1296.32 52.9409 1294.55 64.3903 1290.02 77.4498C1287.86 83.5323 1285.69 87.4681 1284.12 87.4681C1282.54 87.4681 1280.97 81.5644 1280.38 74.2296C1279.99 69.2205 1280.38 64.0325 1281.56 58.3078C1282.74 52.0464 1282.94 48.4684 1282.35 45.9639L1281.36 42.3859L1279.99 46.5005C1279.2 48.8262 1278.81 53.4776 1278.81 57.0555C1279 60.8124 1278.22 66.537 1277.04 71.1884C1275.26 77.8076 1275.26 80.1333 1276.05 86.5736C1277.04 94.4451 1278.61 99.9908 1280.38 101.959C1282.74 104.642 1286.87 97.6652 1292.19 82.1012C1299.07 61.528 1299.27 60.0967 1300.25 29.1475C1300.65 13.4045 1301.43 -0.728304 1301.63 -1.98059C1302.22 -3.41176 1302.02 -6.09522 1301.63 -8.24199Z" fill="#EE3796"/>
<path d="M1282.17 -13.8006C1278.63 1.04786 1277.45 4.08918 1277.45 -1.09884C1277.45 -4.319 1273.51 -14.1584 1269.77 -19.8831C1268.4 -22.0298 1266.63 -26.8601 1265.45 -30.7959L1263.67 -38.1306L1262.3 -32.7637C1260.53 -25.6078 1262.69 -16.484 1269.58 -3.42449C1273.91 5.16259 1274.69 7.48823 1274.69 12.3185C1274.89 15.3597 1274.89 18.0431 1275.09 17.8642C1275.28 17.6853 1276.46 14.6441 1277.84 10.7083C1280.79 2.12126 1284.14 -12.7272 1284.92 -21.4932C1285.51 -27.039 1284.92 -25.6078 1282.17 -13.8006Z" fill="#EE3796"/>
<path d="M1275.67 65.9853C1275.07 64.5541 1274.29 65.9852 1272.91 71.531C1271.73 75.4668 1268.98 84.7695 1266.81 91.9254C1256.78 124.842 1255.6 129.136 1255.6 131.283C1255.6 133.072 1255.99 132.714 1256.97 129.852L1258.15 126.274L1258.74 131.998C1259.14 135.218 1259.53 137.902 1259.73 138.081C1259.92 138.26 1261.5 138.618 1263.47 138.975C1267.2 139.691 1267.2 141.301 1264.06 125.558C1262.29 117.508 1262.29 116.076 1263.66 111.425C1264.45 108.563 1265.04 105.522 1265.04 104.985C1264.84 104.269 1265.43 103.733 1265.83 103.733C1266.42 103.733 1266.61 103.017 1266.22 102.301C1265.83 101.586 1266.02 100.691 1266.61 100.334C1267.2 99.9758 1267.4 99.2602 1267.01 98.5446C1266.81 97.829 1266.81 97.1134 1267.2 96.7556C1267.6 96.3978 1267.79 95.6822 1268.19 94.9666C1268.39 94.2511 1270.35 88.5263 1272.52 81.9071C1276.65 70.0998 1276.85 69.0265 1275.67 65.9853Z" fill="#EE3796"/>
<path d="M1264.67 40.4021C1263.69 38.4342 1261.52 34.3195 1259.95 31.2782C1256.01 23.5857 1255.82 20.3656 1258.77 4.6226C1260.54 -4.32227 1261.13 -10.5837 1260.73 -13.0883C1260.34 -15.0562 1259.95 -16.6663 1259.75 -16.4874C1259.55 -16.3085 1257.98 -8.43695 1256.41 1.2235C1254.64 10.884 1252.08 25.9113 1250.5 34.8562C1248.73 44.1588 1247.95 52.0304 1248.34 53.4616C1248.73 55.2505 1249.52 53.1038 1250.9 45.4112C1253.26 32.1728 1254.05 30.3838 1254.64 35.214C1255.23 39.8653 1264.08 57.2184 1265.06 55.6083C1266.64 52.9249 1266.44 43.98 1264.67 40.4021Z" fill="#EE3796"/>
<path d="M1245.97 111.799C1242.23 105.359 1240.65 99.4552 1240.85 92.836C1241.24 87.1113 1241.24 87.1113 1240.26 91.047C1239.67 93.3727 1239.08 99.4552 1239.08 104.822C1238.69 113.946 1238.88 114.661 1242.23 121.817L1245.57 129.152L1246.75 125.574C1248.92 119.849 1248.52 116.45 1245.97 111.799Z" fill="#EE3796"/>
<path d="M1245.97 -12.1875L1244.59 -16.3021L1243.8 -8.60956C1243.41 -4.13713 1243.41 0.156366 1244 1.40865L1244.98 3.7344L1245.57 1.05094C1247.15 -5.56826 1247.15 -8.43066 1245.97 -12.1875Z" fill="#EE3796"/>
<path d="M1240.65 20.0142C1239.47 21.0876 1232.78 76.3669 1233.57 77.0825C1234.35 77.7981 1234.94 74.578 1236.13 64.5597C1236.52 59.7295 1238.09 49.7112 1239.08 42.1975C1241.44 28.6014 1242.03 18.9409 1240.65 20.0142Z" fill="#EE3796"/>
<path d="M1175.69 373.355C1159.75 360.295 1150.89 354.392 1130.23 341.869C1107.61 328.273 1095.41 318.075 1078.09 298.576C1077.5 297.681 1075.34 295.177 1073.37 292.672C1071.4 290.167 1069.44 287.484 1068.45 286.768C1065.7 284.264 1064.52 280.149 1065.5 277.466C1068.06 270.489 1085.77 272.099 1107.02 281.401C1119.02 286.589 1128.66 294.64 1133.97 304.121C1138.69 312.351 1138.69 314.14 1132.99 318.612L1128.46 322.19L1134.17 324.158C1137.32 325.41 1142.63 327.378 1145.97 328.809C1149.32 330.24 1155.42 332.566 1159.55 334.355C1163.68 335.965 1168.6 337.933 1170.37 338.648C1173.72 339.901 1173.72 339.901 1177.65 336.323C1179.82 334.355 1181.59 331.85 1181.59 330.598C1181.59 324.516 1174.5 310.204 1167.42 301.796C1159.16 292.314 1146.37 284.085 1123.35 273.709C1086.55 257.071 1038.54 247.053 1025.16 253.315C1020.05 255.819 1017.88 258.145 1017.1 261.365C1016.7 263.869 1017.49 265.48 1023 273.172C1024.18 274.603 1028.31 280.507 1032.44 286.411C1042.68 300.543 1053.89 310.562 1071.21 320.938C1078.49 325.231 1086.95 330.419 1090.1 332.387C1096.78 337.038 1115.28 350.277 1115.28 350.814C1115.28 351.171 1080.45 338.649 1074.55 336.144C1072.98 335.428 1068.45 333.818 1064.52 332.566C1060.78 331.135 1056.65 329.704 1055.47 329.346C1054.28 328.988 1048.97 327.02 1043.46 325.231C1037.95 323.442 1032.05 321.474 1030.28 320.58C1028.51 319.864 1026.74 319.149 1026.15 319.149C1024.97 319.149 1023.59 332.924 1024.57 333.818C1024.97 334.176 1031.66 336.502 1039.53 339.185C1047.2 341.69 1055.86 344.731 1058.61 345.626C1061.37 346.699 1075.14 351.708 1089.31 356.717C1113.51 365.483 1147.16 378.185 1158.17 382.836C1160.93 383.91 1165.85 386.056 1169.19 387.309C1172.54 388.74 1176.67 390.35 1178.24 391.065C1181.59 392.497 1181.78 392.318 1182.97 384.088L1183.56 379.795L1175.69 373.355Z" fill="#EE3796"/>
<path d="M1175.52 396.603C1174.93 397.139 1166.86 427.015 1167.26 427.373C1167.65 427.731 1172.76 415.566 1174.34 409.662C1175.72 404.653 1176.5 395.529 1175.52 396.603Z" fill="#EE3796"/>
<path d="M1168.26 253.477C1159.4 247.574 1127.13 228.432 1116.11 222.528C1109.03 218.592 1095.46 211.973 1086.01 207.5C1061.42 196.23 1054.14 191.4 1049.41 182.992C1047.05 178.698 1045.68 171.184 1046.66 167.606C1047.84 163.85 1052.96 162.239 1063.38 162.776C1074.6 163.492 1082.08 165.281 1093.09 170.111C1109.82 177.625 1119.46 186.391 1119.66 193.904C1119.85 200.166 1114.93 208.037 1110.8 208.216C1109.03 208.395 1133.82 215.73 1148.58 219.665C1157.63 221.991 1157.83 221.991 1160.39 220.381C1165.7 216.803 1167.86 208.037 1164.71 201.418C1162.75 196.946 1148.38 179.95 1140.91 173.331C1125.56 159.556 1103.13 149.18 1073.61 142.382C1040.95 134.868 1016.55 136.657 1003.37 147.391C998.649 151.327 997.862 154.368 999.24 163.134C1000.03 168.143 1001.01 170.469 1004.36 174.762C1009.08 181.203 1013.21 184.244 1026.79 190.684C1038.59 196.588 1057.48 206.606 1073.81 216.267C1080.3 220.023 1088.77 225.032 1092.7 227.179C1096.64 229.505 1099.59 231.473 1099.39 231.473C1099.19 231.652 1096.64 231.115 1093.68 230.042C1088.37 228.253 1065.94 221.812 1039.38 214.478C1031.9 212.331 1022.26 209.647 1017.93 208.395C1013.6 207.143 1009.67 206.248 1009.08 206.248C1008.49 206.248 1008.09 210.542 1008.29 216.803L1008.68 227.358L1019.31 230.399C1059.45 242.028 1073.22 245.963 1106.67 256.518C1127.33 262.959 1149.56 269.936 1156.06 272.082C1162.35 274.229 1168.45 276.197 1169.44 276.376C1171.01 276.734 1171.21 276.018 1171.21 266C1170.81 255.266 1170.81 255.087 1168.26 253.477Z" fill="#EE3796"/>
<path d="M1166.26 413.783C1164.29 420.581 1163.31 435.966 1164.88 433.641C1165.67 432.746 1166.26 428.81 1166.46 424.875C1166.65 420.939 1167.05 415.751 1167.24 413.246L1167.64 408.595L1166.26 413.783Z" fill="#EE3796"/>
<path d="M1161.15 420.027C1160.96 417.165 1160.56 414.66 1160.17 414.66C1159.78 414.66 1158.4 417.88 1157.02 421.816C1155.84 425.573 1152.3 435.233 1149.35 443.105C1144.82 454.912 1143.84 459.206 1142.46 469.582C1140.49 484.609 1140.49 486.756 1142.46 481.926C1143.25 479.958 1144.63 472.623 1145.41 466.004C1146.99 454.375 1148.76 447.22 1155.05 431.298L1157.42 425.394L1158.01 430.403L1158.4 435.412L1159.97 430.403C1160.76 427.541 1161.35 422.889 1161.15 420.027Z" fill="#EE3796"/>
<path d="M1159.98 439.353C1159.58 438.638 1158.79 438.28 1158.6 438.459C1157.81 439.175 1151.32 457.601 1147.78 468.693C1146.01 474.417 1144.23 479.784 1144.04 480.5C1143.84 481.215 1144.23 480.858 1145.22 479.605C1146.01 478.353 1147.19 475.312 1147.97 472.628C1148.76 469.945 1149.55 467.977 1149.94 468.335C1150.33 468.692 1150.53 468.156 1150.33 467.44C1149.35 464.936 1154.66 451.339 1156.83 451.339C1157.81 451.339 1160.96 443.826 1160.96 441.858C1160.96 441.321 1160.57 440.069 1159.98 439.353Z" fill="#EE3796"/>
<path d="M1156.81 153.666C1156.42 152.592 1155.83 149.372 1155.83 146.331L1155.83 140.785L1149.73 137.207C1144.22 133.987 1128.28 123.611 1118.05 116.634C1101.92 105.542 1075.16 89.6205 1066.89 86.4003C1064.53 85.327 1055.68 83.1802 1047.61 81.3912C1039.35 79.6023 1027.93 77.0977 1022.23 75.8455C1016.52 74.5932 1011.6 73.6986 1011.41 73.8775C1011.21 74.0564 1015.74 77.2766 1021.83 81.2124C1027.74 84.9692 1035.8 90.5151 1039.74 93.1985C1055.28 104.469 1070.83 114.666 1078.11 118.244C1080.47 119.496 1082.24 120.57 1082.04 120.749C1081.85 120.928 1066.5 117.707 1048.2 113.414C1015.54 105.9 992.321 100.891 990.156 100.891C988.386 100.891 988.779 107.331 990.943 111.446L992.714 115.203L1007.67 118.423C1038.56 125.221 1105.26 142.037 1146.38 153.487C1150.71 154.739 1155.24 155.991 1156.22 156.17C1157.99 157.065 1158.19 156.528 1156.81 153.666Z" fill="#EE3796"/>
<path d="M1137.35 484.253L1136.16 476.56L1134.39 481.033C1133.41 483.537 1132.62 487.115 1132.62 488.904C1132.62 490.693 1130.66 496.955 1128.29 502.679C1122.39 516.633 1122.59 516.454 1123.18 512.519C1123.57 510.551 1123.57 509.12 1123.38 509.12C1122.19 509.12 1119.64 518.78 1116.1 535.239C1114.13 544.362 1112.16 552.771 1111.57 554.202C1111.18 555.633 1110.98 556.706 1111.18 556.706C1112.36 556.706 1114.91 549.014 1117.28 539.353C1119.44 530.408 1124.36 516.455 1127.7 509.656C1128.1 508.583 1129.67 505.184 1130.85 501.964L1133.21 496.06L1133.8 499.638L1134.2 503.216L1135.18 500.533C1135.57 499.101 1136.56 496.776 1137.35 495.523C1138.13 494.271 1138.72 493.019 1138.72 492.661C1138.53 492.124 1137.94 488.547 1137.35 484.253Z" fill="#EE3796"/>
<path d="M1126.11 564.571C1124.73 564.571 1120.4 573.873 1121.58 574.589C1121.98 574.947 1122.57 575.483 1122.76 576.199C1122.96 576.736 1124.14 574.41 1125.32 570.832C1126.9 566.36 1127.09 564.571 1126.11 564.571Z" fill="#EE3796"/>
<path d="M1110.77 605.017C1108.01 606.985 1103.29 615.751 1104.27 616.645C1105.06 617.361 1109.78 612.889 1111.16 610.384C1111.95 609.132 1112.73 606.985 1113.13 605.375L1113.91 602.87L1110.77 605.017Z" fill="#EE3796"/>
<path d="M1107.24 545.089C1105.86 548.13 1104.09 552.424 1102.91 554.749C1092.29 576.038 1090.71 580.689 1089.14 592.675C1088.15 599.295 1087.76 604.662 1087.76 604.841C1088.35 605.198 1105.67 570.134 1108.03 563.694C1110.39 557.075 1109.8 556.359 1107.04 562.621C1101.14 575.322 1093.27 591.423 1093.07 591.244C1092.88 591.065 1093.27 587.487 1093.86 583.194C1094.84 575.68 1096.61 570.313 1102.12 559.401C1105.47 552.781 1109.8 542.047 1109.8 540.795C1109.4 539.901 1108.42 542.048 1107.24 545.089Z" fill="#EE3796"/>
<path d="M1101.94 629.721C1098 631.331 1097.22 632.046 1094.27 639.202C1092.1 644.211 1079.9 673.551 1076.75 680.885C1076.36 681.601 1077.93 680.885 1079.9 679.096C1084.62 675.161 1088.76 668.72 1088.95 664.964C1089.35 660.67 1089.35 660.67 1090.33 661.028C1090.72 661.386 1091.12 660.491 1091.12 659.06C1091.31 656.376 1095.64 645.285 1098 641.528C1099.58 639.202 1100.96 636.519 1102.73 632.404C1103.32 631.152 1104.1 629.9 1104.3 629.363C1104.5 629.005 1103.51 629.184 1101.94 629.721Z" fill="#EE3796"/>
<path d="M1088.95 610.369C1088.17 611.621 1087.58 613.052 1087.58 613.589C1087.58 614.126 1088.17 613.41 1088.95 612.158C1089.74 610.906 1090.33 609.474 1090.33 608.938C1090.33 608.58 1089.74 609.117 1088.95 610.369Z" fill="#EE3796"/>
<path d="M1090.13 614.137C1089.94 614.316 1087.38 619.504 1084.43 625.408C1081.47 631.49 1078.92 636.499 1078.72 636.857C1077.54 637.931 1080.1 631.132 1083.44 623.44C1085.61 618.788 1086.98 615.032 1086.79 615.032C1086.2 615.032 1081.08 625.765 1079.51 630.238C1078.72 632.385 1077.74 633.816 1077.34 633.637C1076.75 633.279 1076.75 633.995 1077.15 634.71C1077.54 635.963 1077.54 636.141 1076.36 635.605C1075.38 635.247 1075.18 635.247 1075.77 635.963C1076.16 636.499 1075.77 639.183 1074.79 641.866C1074 644.371 1073.21 649.201 1073.41 652.6L1073.41 658.683L1075.57 653.673C1076.75 650.99 1077.93 647.412 1078.33 645.802C1078.72 644.371 1081.67 636.857 1084.82 628.986C1090.33 615.568 1091.12 613.243 1090.13 614.137Z" fill="#EE3796"/>
<path d="M1077.92 606.813C1077.52 606.813 1074.77 612.001 1070.83 620.588C1069.85 622.377 1069.06 626.67 1068.87 630.248C1068.67 633.826 1067.88 639.014 1067.1 641.698C1065.33 647.422 1065.72 649.032 1067.49 643.665C1068.08 641.519 1069.06 639.909 1069.46 639.909C1070.64 639.909 1072.41 632.574 1074.18 622.377C1074.97 617.368 1076.15 612.001 1076.93 610.212C1077.72 608.065 1078.11 606.634 1077.92 606.813Z" fill="#EE3796"/>
<path d="M1073.98 638.639C1073.19 639.891 1072.4 641.859 1072.01 643.29C1071.62 644.542 1072.4 643.826 1073.39 641.859C1075.55 637.744 1075.95 635.24 1073.98 638.639Z" fill="#EE3796"/>
<path d="M1069.46 648.846C1068.28 650.635 1067.49 652.424 1067.49 652.961C1067.49 653.498 1068.28 652.424 1069.46 650.635C1070.64 648.846 1071.42 647.057 1071.42 646.52C1071.23 645.984 1070.44 647.057 1069.46 648.846Z" fill="#EE3796"/>
<path d="M1067.09 654.193C1066.3 654.193 1058.63 672.262 1056.66 678.344C1055.09 683.354 1054.89 683.711 1053.71 682.101C1052.93 681.207 1052.33 680.133 1052.33 679.597C1052.33 677.629 1050.56 679.239 1048.01 683.89C1044.86 689.615 1045.05 690.867 1050.56 694.803C1053.71 697.129 1053.71 697.129 1052.73 702.317C1052.33 705 1051.94 707.147 1052.33 706.789C1054.3 704.642 1057.25 696.055 1057.25 692.477C1057.25 685.143 1062.37 665.464 1066.89 655.982C1067.29 654.909 1067.29 654.372 1067.09 654.193Z" fill="#EE3796"/>
<path d="M1049.96 658.877C1048.97 658.877 1041.89 669.253 1038.94 675.336C1028.51 695.73 1026.35 700.024 1026.74 700.024C1026.94 700.024 1028.71 697.34 1031.07 693.941C1033.82 689.29 1035 688.217 1035.2 689.648C1035.99 694.12 1022.8 716.84 1021.23 713.441C1020.84 712.368 1019.66 713.441 1016.51 718.092C1012.18 724.711 1009.43 730.973 1010.61 731.868C1011 732.225 1011.59 731.867 1012.18 731.152C1012.57 730.436 1014.54 727.932 1016.51 725.606C1024.38 715.767 1038.55 691.973 1042.09 683.028C1044.65 676.051 1045.24 671.221 1043.46 672.116C1042.87 672.474 1044.25 669.611 1046.42 665.854C1048.38 661.919 1050.15 658.877 1049.96 658.877Z" fill="#EE3796"/>
<path d="M1009.45 297.668C1008.66 295.163 1007.29 293.195 1006.3 292.837C1001.19 291.406 980.134 284.787 978.363 284.071C977.183 283.714 973.247 282.282 969.312 281.209C965.574 280.136 961.639 279.062 961.048 278.704C960.065 278.347 960.065 279.062 961.048 281.209C963.016 285.503 962.229 287.113 956.326 289.975C951.604 292.48 950.226 292.658 940.979 292.48C932.321 292.48 929.567 292.122 921.893 289.617C911.662 286.397 902.807 281.746 896.314 276.2C890.018 271.012 882.344 262.246 882.738 260.457C882.935 259.563 884.312 258.131 885.689 257.058C888.247 255.448 889.821 255.269 901.627 255.269C915.007 255.448 920.516 256.342 937.831 261.352L942.75 262.783L941.963 256.521C941.569 253.122 940.979 249.723 940.782 249.008C940.192 247.397 935.273 245.966 922.483 242.925C906.546 239.347 889.034 232.907 884.312 228.971C873.097 219.668 907.923 221.994 930.944 231.833C939.208 235.411 946.488 240.599 946.488 243.104C946.488 243.998 950.227 245.43 957.31 247.397C963.213 249.008 973.838 252.049 980.921 254.017C988.004 255.985 994.104 257.416 994.301 257.237C995.088 256.342 991.743 250.26 988.398 246.503C980.134 237.021 954.949 225.035 924.845 216.09C890.018 205.714 850.273 201.958 837.68 207.861C825.678 213.407 829.416 219.132 851.453 229.508L863.849 235.232L854.995 236.306C845.354 237.558 840.828 238.81 835.909 241.673C831.187 244.535 830.203 247.397 832.171 252.586C836.696 264.751 848.699 283.535 853.027 285.145C854.208 285.503 860.504 287.292 866.8 288.723C900.25 296.773 953.965 311.979 985.25 321.998C988.791 323.25 990.169 323.25 992.53 322.355C996.859 320.745 1006.3 312.158 1008.47 307.686C1011.42 303.035 1011.42 303.213 1009.45 297.668Z" fill="#EE3796"/>
<path d="M990.168 184.602C988.79 183.171 982.1 181.203 965.179 177.268C952.587 174.226 941.568 171.722 941.174 171.722C940.584 171.722 940.781 172.08 941.371 172.795C943.142 174.405 942.945 178.52 940.781 180.13C928.385 190.327 883.721 181.382 868.373 165.639C864.045 161.167 862.274 157.41 864.241 155.621C866.602 153.474 893.755 156.336 912.251 160.63C916.383 161.703 919.924 162.419 920.121 162.24C920.318 162.061 919.728 158.841 919.137 154.905C917.957 146.855 919.531 147.928 903.987 144.708C881.163 140.057 864.241 130.754 864.241 123.062C864.241 120.378 864.438 120.378 871.718 119.305C882.343 117.695 908.709 123.956 919.924 130.575C926.221 134.332 927.401 135.584 927.401 138.805C927.401 140.772 927.008 140.594 941.371 143.814C951.603 146.139 969.311 150.254 972.853 151.327C976.001 152.222 975.017 146.139 971.082 141.13C966.163 134.869 956.128 125.745 950.029 122.167C939.01 115.369 920.318 108.213 904.774 104.814C891.001 101.773 867.193 98.7316 856.174 98.7316C838.663 98.7316 822.922 102.488 816.035 108.392C813.084 110.897 812.69 111.791 813.281 114.117C815.445 122.167 825.283 132.543 836.695 138.447L842.795 141.488L828.235 143.456C820.167 144.529 813.281 145.603 812.887 145.782C811.313 147.213 812.69 154.19 815.642 159.199C825.873 177.804 859.716 194.621 906.741 204.818C929.959 209.827 936.255 210.721 951.406 210.721C963.408 210.721 965.769 210.364 972.459 208.217C981.904 205.175 987.216 201.776 989.774 197.483C992.529 192.653 992.529 186.928 990.168 184.602Z" fill="#EE3796"/>
<path d="M975.195 74.0476C974.998 72.7953 974.408 71.9008 974.211 71.9008C973.818 71.9008 968.112 70.8274 961.422 69.5751C949.813 67.4284 926.989 63.6715 925.612 63.6715C925.218 63.6715 925.218 65.4605 925.218 67.7861C926.005 74.942 920.496 80.8457 911.052 82.9924C899.639 85.497 875.438 82.2768 862.452 76.3732C846.121 69.0384 840.218 55.4422 851.433 50.7909C853.794 49.8964 855.368 49.0019 855.172 49.0019C847.105 47.9286 826.838 45.9607 815.033 44.8873L799.489 43.4561L797.128 45.9607C794.963 48.1074 794.766 49.0019 795.16 54.5477C796.734 72.7952 810.31 80.6667 856.352 89.7905C895.901 97.8409 932.892 103.029 947.845 103.029C960.438 103.029 967.915 99.272 972.44 90.8638C974.605 85.8547 976.179 77.9833 975.195 74.0476Z" fill="#EE3796"/>
<path d="M754.021 240.601C751.66 230.225 748.709 218.954 745.757 206.789C741.035 188.721 739.067 177.808 737.297 156.34C736.116 143.102 735.329 139.166 733.755 135.946C732.181 133.084 731.394 129.148 730.607 119.487C730.016 112.689 728.836 105.176 728.246 102.85C727.459 100.524 726.278 95.3363 725.688 91.0428C724.901 86.7493 723.72 80.8457 722.933 77.9833C722.146 75.1209 720.966 66.1761 720.179 58.3046C719.392 50.2542 718.408 43.0983 718.014 42.3827C717.621 41.4882 716.44 40.9515 715.456 40.9515C714.079 40.9515 713.686 41.3093 714.079 42.3827C714.473 43.2772 715.456 50.4331 716.243 58.1256C717.03 65.9971 718.408 74.5842 719.195 76.9099C719.982 79.4144 721.162 85.497 721.753 90.1483C722.343 94.9785 723.523 100.882 724.31 103.387C725.098 105.891 726.278 113.047 726.672 119.309C727.262 127.001 728.443 132.01 729.82 135.23C731.394 138.451 732.181 143.102 732.771 152.226C733.952 166.895 738.28 193.909 740.838 203.569C747.725 227.72 750.676 243.106 750.676 256.881C750.676 265.11 750.873 265.647 752.644 265.647C754.612 265.647 754.612 265.11 754.612 254.018C754.415 247.578 754.218 241.495 754.021 240.601Z" fill="#EE3796"/>
<path d="M706.844 711.484C702.515 703.613 697.99 698.603 688.939 692.163C678.707 685.007 670.05 681.429 662.18 681.429C656.474 681.429 655.096 681.787 651.358 684.113C646.045 687.512 642.504 693.415 644.274 695.383C644.865 696.099 649.193 699.319 653.522 702.36L661.589 708.085L663.36 705.401C667.099 699.856 673.985 699.677 681.068 704.865C686.971 709.158 689.726 713.989 689.136 718.461C687.758 727.585 678.51 728.837 667.689 721.323C665.328 719.534 662.77 718.282 662.376 718.282C661.392 718.282 658.244 725.617 658.244 727.764C658.244 731.52 660.606 731.878 685.594 732.057C712.55 732.057 710.582 732.773 710.582 723.47C710.386 718.998 709.795 716.672 706.844 711.484Z" fill="#EE3796"/>
<path d="M638.938 667.984C638.348 665.659 636.183 660.829 634.216 657.072C629.494 648.664 616.508 636.32 606.866 630.953C600.57 627.554 599.98 627.375 591.716 627.375C583.452 627.375 582.862 627.554 578.139 630.595C574.794 632.742 572.237 635.425 570.269 638.824C567.711 643.118 567.514 644.549 567.908 649.737L568.301 655.641L577.156 663.691L586.01 671.741L585.616 665.838C585.42 662.618 585.616 658.503 586.403 656.714C588.961 649.558 597.028 645.444 603.718 647.948C610.408 650.453 616.901 657.609 618.672 663.87C620.443 671.384 615.327 682.117 607.85 685.517C603.915 687.484 603.128 687.484 597.815 686.411C592.306 685.338 572.63 677.287 569.285 674.783C568.498 674.067 566.728 673.351 565.547 672.994C563.776 672.636 563.186 672.815 562.596 674.425C562.202 675.677 560.825 678.003 559.447 679.971L557.086 683.37L563.973 690.347C567.711 694.282 579.32 705.016 589.748 714.498L608.637 731.672L615.524 731.672C621.427 731.672 622.607 731.314 623.591 729.883C623.985 728.81 624.575 727.736 624.575 727.379C624.575 727.021 616.901 719.865 607.457 711.635C598.012 703.585 590.732 696.787 590.929 696.787C591.126 696.787 593.093 697.503 595.258 698.576C600.964 701.26 612.179 704.122 616.704 704.122C622.804 704.122 628.116 701.259 632.052 695.535C638.741 687.305 641.103 677.108 638.938 667.984Z" fill="#EE3796"/>
<path d="M630.887 210.917C629.706 201.077 628.723 193.027 628.526 192.848C628.132 192.49 609.047 193.922 599.405 194.995L594.29 195.532L595.077 201.972C595.47 205.55 595.864 213.421 595.864 219.146L595.864 229.88L592.716 230.238C558.873 235.247 536.836 240.256 519.521 246.696C514.799 248.306 509.289 250.274 507.322 250.99C503.78 252.063 500.632 255.999 501.419 258.146C501.616 258.682 506.338 257.43 511.847 255.462C543.132 244.192 588.977 235.962 626.952 234.173C632.264 233.995 632.461 233.816 632.658 231.311C632.658 230.059 631.871 220.756 630.887 210.917Z" fill="#EE3796"/>
<path d="M625.989 170.647C625.595 167.963 624.218 157.408 623.037 147.39C620.086 123.239 620.676 125.207 616.741 125.564C607.296 126.638 591.162 128.785 589.588 129.142C588.014 129.5 588.014 130.931 588.211 140.234C588.408 146.138 589.195 155.082 590.178 160.092C592.343 172.793 592.736 171.899 585.062 173.33C564.599 176.55 533.315 185.137 517.18 191.935C512.458 193.903 511.278 194.798 510.491 197.302C509.9 198.912 509.704 200.344 509.704 200.522C509.9 200.701 512.065 199.807 514.819 198.733C532.134 191.756 560.074 184.601 585.259 181.023C597.458 179.234 619.692 176.908 625.792 176.908C626.382 176.908 626.972 176.55 626.972 176.192C626.776 175.835 626.382 173.33 625.989 170.647Z" fill="#EE3796"/>
<path d="M617.299 101.596C617.103 101.239 615.725 91.3993 614.545 80.3076C613.167 69.0371 611.79 59.7344 611.593 59.3766C611.2 59.0188 583.26 63.6702 581.883 64.5647C581.489 64.9225 581.489 67.6059 581.883 71.005C583.063 79.592 585.818 106.069 585.424 106.427C585.228 106.606 578.341 108.216 570.077 110.184C545.482 116.087 512.623 128.073 510.853 131.83C510.459 132.725 510.459 133.619 510.459 133.619C510.656 133.798 513.017 132.903 515.772 131.651C539.186 121.275 571.454 112.688 605.494 108.037C616.512 106.427 617.693 106.248 617.693 104.459C617.89 103.385 617.693 102.133 617.299 101.596Z" fill="#EE3796"/>
<path d="M568.308 604.472C564.176 588.55 548.239 569.766 534.465 563.862C523.25 559.211 509.477 561.894 502 570.302C497.671 575.312 496.688 578.889 498.655 584.078C501.607 592.665 503.377 598.568 505.345 609.66C508.1 625.045 511.445 633.811 517.741 642.219C528.563 656.889 541.942 664.045 553.551 661.719C558.273 660.646 560.438 658.32 561.225 652.416C561.618 649.733 563.192 644.187 564.766 639.715C569.882 625.045 570.866 614.49 568.308 604.472ZM547.648 622.898C546.074 627.55 544.697 632.916 544.697 634.705C544.697 638.283 541.549 642.04 538.991 641.146C538.204 640.788 537.023 640.609 536.63 640.609C534.859 640.609 528.563 635.063 525.808 630.77C522.266 625.761 515.38 609.66 513.609 601.967C512.035 595.706 512.625 593.022 517.15 588.55C521.873 583.72 528.366 581.573 533.482 582.825C539.188 584.435 544.303 588.908 547.648 595.169C551.78 603.041 551.78 611.091 547.648 622.898Z" fill="#EE3796"/>
<path d="M539.013 699.467C533.7 684.082 510.089 653.312 498.677 646.872C491.791 642.936 482.543 645.44 475.853 652.775C469.557 659.752 468.966 662.615 468.77 683.546C468.77 705.371 469.95 712.169 476.246 724.513L480.182 732.027L507.728 732.027L535.274 732.027L537.832 724.692C540.784 716.284 541.177 705.908 539.013 699.467ZM521.895 704.119C520.124 711.632 514.418 722.724 509.892 727.018C505.17 731.49 501.628 731.311 495.332 725.944C484.904 716.999 479.395 697.142 483.723 683.546C486.478 674.78 490.61 669.949 497.496 667.445C501.038 666.193 501.629 666.192 505.564 667.803C513.041 670.844 520.517 681.041 522.288 690.701C523.469 696.784 523.469 696.963 521.895 704.119Z" fill="#EE3796"/>
<path d="M503.764 526.298C502.19 521.288 493.926 505.188 491.761 503.22C491.171 502.504 489.203 500.357 487.629 498.211C480.546 489.445 470.708 484.436 463.625 486.224C457.328 487.835 452.212 494.812 451.229 502.862C450.835 506.977 451.229 508.408 454.77 514.848C456.935 518.963 459.493 523.435 460.673 525.045L462.641 527.908L462.641 523.077C462.838 517.174 466.773 510.197 470.905 508.766C479.365 505.903 490.384 520.573 489.007 533.275C488.023 542.041 481.136 549.912 475.824 548.66C473.463 548.123 468.544 542.756 457.328 528.444C454.574 525.045 452.212 522.72 452.212 523.435C452.212 524.151 450.835 526.476 449.261 528.444C447.687 530.412 446.31 532.559 446.31 532.917C446.31 535.421 467.363 571.022 479.956 589.627C481.923 592.668 484.678 596.425 485.662 598.214C486.842 599.824 488.023 601.077 488.416 601.077C489.597 601.077 494.516 593.384 494.516 591.416C494.516 590.343 493.729 588.554 492.745 587.301C491.761 586.049 489.991 583.724 488.81 581.935C487.629 580.146 483.694 574.242 479.956 568.696C469.724 553.49 469.724 552.953 478.578 561.361C488.613 570.843 490.384 571.201 496.09 565.297C502.78 558.32 504.944 552.595 505.338 541.325C505.141 534.527 504.747 529.518 503.764 526.298Z" fill="#EE3796"/>
<path d="M501.829 103.031C501.042 98.2012 500.255 94.2655 500.058 94.0866C499.861 93.9077 495.729 96.5911 490.613 99.8112C482.349 105.178 466.018 118.774 459.919 125.394C452.639 133.444 438.866 154.733 438.866 157.953C438.866 162.604 440.243 162.246 443.785 156.701C450.278 146.325 459.328 135.591 468.97 126.646L478.611 117.88L479.201 120.563C479.595 122.173 479.792 124.857 479.988 127.004C480.185 130.403 479.595 131.118 471.331 138.453C466.412 142.747 461.296 147.398 459.919 149.008C455.984 153.302 446.342 166.003 443.981 170.118C441.227 175.306 441.227 178.347 443.981 174.054C448.704 166.719 456.771 157.595 465.428 149.545C477.824 137.916 478.021 137.916 478.021 144.536C478.021 149.902 478.021 149.902 471.724 155.627L465.428 161.352L472.905 155.806C477.037 152.765 484.711 147.577 490.22 144.357C495.926 140.958 500.451 137.559 500.845 136.306C501.238 135.233 501.632 130.582 501.829 126.109C502.025 121.637 502.222 116.449 502.616 114.66C502.813 113.05 502.419 107.862 501.829 103.031Z" fill="#EE3796"/>
<path d="M499.45 157.754C497.876 157.754 482.529 167.235 473.084 174.212C457.147 185.84 446.128 196.753 434.126 213.212C428.617 220.725 428.223 221.262 429.6 220.546C431.765 219.294 430.978 220.904 426.846 226.271C424.681 229.134 422.911 232.175 422.911 233.069C422.911 235.037 425.862 241.835 426.846 241.835C427.239 241.835 430.387 238.257 433.929 233.606C441.996 223.409 466.001 201.583 469.149 201.583C470.526 201.583 472.101 207.666 472.101 212.138C472.101 215.359 471.707 216.253 467.968 218.579C465.607 220.189 459.114 225.377 453.605 230.207L443.57 238.973L453.605 231.638C466.001 222.693 480.955 213.57 490.202 209.097C496.105 206.235 497.482 205.161 498.466 202.478C500.237 197.648 499.844 193.354 496.892 183.873C493.351 172.423 493.547 169.74 497.286 166.698C499.647 164.731 500.237 163.478 500.237 160.795C500.237 159.364 499.843 157.754 499.45 157.754ZM456.36 196.753C450.851 201.226 442.98 208.203 438.848 212.496C434.913 216.611 431.371 219.831 431.174 219.652C429.6 218.221 460.492 188.882 466.198 186.019C470.723 183.873 465.804 189.239 456.36 196.753Z" fill="#EE3796"/>
<path d="M497.47 225.398C497.273 223.43 496.879 221.999 496.486 221.999C496.092 221.999 492.157 223.788 487.632 226.114C458.118 241.141 436.671 257.779 416.995 281.214L411.289 287.833L412.666 293.558L414.044 299.283L421.324 290.517C430.178 279.783 447.099 263.861 458.708 255.632C463.43 252.233 467.563 249.549 468.153 249.549C469.137 249.549 469.137 258.136 468.153 261.178C467.759 262.251 465.201 264.577 462.25 266.724C453.593 272.627 441.787 282.645 434.31 290.338C430.572 294.453 423.882 301.072 419.553 305.365C415.224 309.659 410.502 314.489 408.731 316.099L405.977 319.14L404.009 310.553C401.845 300.714 402.238 300.356 393.778 315.205C384.727 331.305 376.069 351.163 368.986 371.379C366.034 380.145 365.838 382.649 368.592 376.209C369.576 374.062 372.724 368.158 375.676 363.507C378.627 358.498 381.185 354.025 381.185 353.31C381.185 352.058 390.039 338.104 390.826 338.104C391.023 338.104 391.023 338.819 390.629 339.714C390.236 340.966 390.236 340.966 391.417 339.535C400.861 327.012 425.456 302.682 436.474 294.989C439.032 293.379 441.984 291.232 442.967 290.159C446.706 287.118 469.924 273.522 478.384 269.228C485.271 266.008 486.648 264.935 486.648 262.967C486.648 261.714 488.419 259.389 491.174 256.884C493.731 254.559 495.896 251.338 496.683 249.371C498.257 246.15 498.454 232.554 497.47 225.398Z" fill="#EE3796"/>
<path d="M476.429 621.283C475.052 615.2 464.82 594.627 458.327 584.251C457.343 582.82 455.179 579.242 453.408 576.379C448.883 569.223 441.996 562.783 438.848 562.783C435.306 562.783 430.584 565.824 427.829 569.76C425.862 572.801 425.468 574.412 425.468 580.315C425.468 586.755 425.862 587.829 430.978 597.668L436.684 608.044L436.684 601.604C436.684 592.122 439.832 587.292 446.128 587.292C449.866 587.292 453.605 590.691 457.934 598.92C463.246 608.939 462.853 617.705 456.95 625.576C454.392 628.796 453.408 629.512 450.85 629.512C447.505 629.512 442.39 626.471 437.864 621.819C436.29 620.388 434.126 618.062 432.748 616.81C431.371 615.558 427.633 611.801 424.288 608.402L418.385 602.319L412.482 607.508C409.334 610.37 406.579 613.232 406.579 613.59C406.579 615.021 424.681 648.833 430.387 657.957C444.751 680.855 448.686 686.401 450.063 686.044C450.85 685.865 453.015 683.36 455.179 680.319C458.327 676.025 458.721 674.594 457.934 673.521C455.966 671.016 440.225 644.718 437.864 640.067L435.7 635.594L440.422 639.709C443.177 641.856 446.325 644.539 447.702 645.792C449.079 646.865 452.424 648.833 455.179 650.085C459.901 652.59 460.098 652.59 464.033 650.979C468.165 649.19 470.133 647.223 473.871 640.067C476.429 635.415 477.61 626.471 476.429 621.283Z" fill="#EE3796"/>
<path d="M442.781 421.643C440.223 404.111 427.631 373.877 421.531 370.836C418.973 369.584 418.58 369.584 416.809 371.73C413.661 375.487 410.709 386.937 410.709 396.06C410.709 400.533 409.922 410.014 409.135 416.991C407.758 427.725 407.561 431.303 408.742 438.996C411.103 457.959 418.383 474.417 426.844 480.142C434.911 485.867 437.075 483.362 433.14 472.807C431.959 469.945 429.992 461.537 428.614 454.202C427.237 446.688 424.876 435.776 423.499 429.693C419.17 411.088 418.383 397.134 421.334 393.914C422.712 392.125 424.089 393.377 426.647 398.744C432.156 410.014 434.124 428.083 430.582 433.092C429.598 434.523 430.189 436.491 432.943 443.647C437.665 455.991 437.469 455.633 439.83 451.34C443.568 444.899 444.749 434.523 442.781 421.643ZM426.45 459.569C424.286 459.569 418.383 441.679 417.399 431.661L417.006 426.115L419.367 434.344C420.744 438.996 423.105 445.615 424.482 449.372C426.647 456.17 427.434 459.569 426.45 459.569Z" fill="#EE3796"/>
<path d="M433.931 173.329L433.144 169.214L430.586 176.907C427.635 185.673 422.125 205.71 421.338 211.255C420.945 213.223 421.732 210.897 423.306 206.246C424.683 201.416 426.061 197.48 426.454 197.122C427.044 196.586 426.061 206.962 425.274 209.466C424.88 210.54 425.864 209.109 427.635 206.246C429.405 203.205 430.586 199.806 430.783 197.48C430.783 195.512 431.767 191.934 432.751 189.788C434.915 185.852 435.112 181.379 433.931 173.329Z" fill="#EE3796"/>
<path d="M422.322 703.221C421.142 696.602 417.6 684.973 415.829 681.038C406.188 661.359 395.76 648.12 389.267 646.51C381.986 644.9 377.068 650.983 376.084 662.79C375.493 669.767 377.264 675.492 383.167 687.478L385.528 692.129L385.922 685.868C386.709 673.166 392.415 668.336 398.711 675.134C406.188 683.542 409.926 699.643 406.385 709.124C404.417 714.312 400.875 717.712 397.924 716.817C395.956 716.459 390.841 711.629 386.315 706.083C384.544 704.115 382.774 701.79 381.987 701.253C381.396 700.716 378.445 696.959 375.493 693.382C372.739 689.625 369.984 686.583 369.591 686.583C368.804 686.583 363.491 695.349 363.491 696.959C363.491 698.212 370.575 713.776 376.674 725.762L380.019 732.381L386.315 732.381C389.857 732.381 392.612 732.023 392.612 731.844C392.612 731.487 391.431 729.519 390.054 727.551C386.315 721.826 387.102 721.826 392.415 727.372L397.137 732.381L408.156 732.56L419.371 732.56L420.551 728.267C422.125 723.078 422.913 707.693 422.322 703.221Z" fill="#EE3796"/>
<path d="M414.451 497.859C408.941 475.854 400.284 446.336 398.316 443.474C395.759 440.075 390.84 440.254 387.495 443.832C386.117 445.442 384.74 446.515 384.346 446.515C382.772 446.515 383.953 435.245 385.921 430.772C392.414 416.281 393.791 404.653 392.217 378.892L391.43 365.654L389.659 368.516C388.478 370.484 387.888 373.704 387.888 378.534C387.691 382.47 387.101 388.91 386.117 393.025C385.133 397.139 384.15 407.516 383.953 416.281L383.363 432.203L381.395 428.625C379.624 425.405 379.428 423.259 379.624 409.483C379.821 394.635 380.018 393.919 382.379 390.699C384.15 388.374 385.134 385.511 385.527 381.039L386.314 374.598L384.346 376.924C381.198 380.502 369.983 400.36 370.77 401.075C371.164 401.433 370.967 401.612 370.376 401.612C369.786 401.612 369.393 402.685 369.393 403.759C369.393 405.011 368.212 408.768 367.032 412.346C364.08 420.933 364.474 434.887 368.015 442.937C371.557 451.167 378.444 457.249 384.15 457.249C385.92 457.249 386.117 457.786 386.117 460.827C386.117 465.657 383.756 473.35 380.805 478.717C370.377 497.501 368.802 517.716 376.279 537.037C377.853 541.152 380.805 546.698 382.969 549.381C387.298 555.285 395.168 559.757 400.284 559.399C405.006 559.042 407.958 555.285 407.761 550.097C407.564 546.698 401.858 523.441 398.12 511.097C394.971 500.9 390.446 478.896 390.446 474.423C390.446 468.52 392.807 464.226 395.759 464.584C399.103 464.942 401.464 468.877 404.022 478.538C407.17 490.166 407.367 498.038 404.219 504.299L401.858 508.95L404.022 515.391C405.203 518.79 407.171 523.799 408.154 526.124L410.122 530.418L413.467 524.336C417.205 517.001 417.402 511.097 414.451 497.859ZM398.12 533.996C396.545 535.785 396.545 535.785 394.184 533.101C392.807 531.67 390.84 527.556 389.462 523.978C387.495 518.611 387.101 515.57 387.101 506.088C387.101 493.923 388.282 486.409 389.659 488.735C390.053 489.45 391.627 495.175 393.004 501.437C394.381 507.698 396.546 515.748 397.529 519.326C399.891 527.556 400.087 531.67 398.12 533.996Z" fill="#EE3796"/>
<path d="M412.685 262.603C411.111 259.562 409.734 255.984 409.734 254.374L409.537 251.691L407.963 254.911C401.47 267.97 393.009 290.869 388.287 307.865C385.729 317.525 385.926 317.525 391.041 307.865C397.338 296.236 405.995 282.103 411.308 275.305C413.669 272.264 415.636 269.402 415.44 268.865C415.636 268.328 414.259 265.645 412.685 262.603Z" fill="#EE3796"/>
<path d="M413.265 340.418C411.887 341.849 410.707 344.175 410.313 345.606C409.92 347.037 408.543 350.078 407.362 352.225L405.001 356.34L404.607 353.12L404.214 349.9L400.279 354.73L396.344 359.56L397.524 365.285C398.705 371.546 403.033 381.028 406.575 384.606L408.739 386.931L408.346 382.996C407.952 380.133 408.543 377.45 410.313 373.514C412.871 367.61 414.445 358.844 415.036 345.964L415.429 337.913L413.265 340.418Z" fill="#EE3796"/>
<path d="M366.638 576.563C365.458 569.228 355.423 521.462 354.046 516.274L353.259 513.948L352.472 516.632C352.078 518.242 350.701 523.609 349.52 528.797C347.749 536.847 347.553 540.604 347.749 556.705C348.143 566.902 348.93 582.287 350.111 590.874C352.078 607.512 351.685 613.237 348.536 613.773C344.798 614.489 339.682 596.42 339.682 583.361C339.682 578.531 340.469 573.7 341.847 569.586C344.208 562.251 344.208 562.787 343.224 549.549C342.634 540.962 342.24 539.889 341.059 540.962C338.895 542.751 334.96 553.843 333.189 562.43C328.467 584.792 336.534 629.874 346.766 638.282C349.717 640.787 353.652 640.429 356.21 637.566C358.178 635.241 358.374 633.81 358.374 622.897C358.374 615.92 357.194 601.429 355.62 588.549C353.062 566.902 352.078 545.256 353.849 541.499C354.833 538.994 355.423 540.246 357.194 548.655C360.932 566.365 361.916 577.457 359.949 584.076C359.162 586.76 359.555 589.622 361.523 598.209C362.9 604.113 364.277 609.122 364.474 609.301C364.671 609.48 365.654 607.512 366.442 604.828C367.622 599.64 367.819 585.686 366.638 576.563Z" fill="#EE3796"/>
<path d="M358.166 428.621C354.821 432.378 352.657 436.314 349.115 445.795C346.557 452.594 344.589 458.318 344.786 458.497C345.77 459.392 353.64 450.805 355.805 446.511C357.772 442.933 362.495 427.011 362.495 424.328C362.495 423.97 360.527 426.117 358.166 428.621Z" fill="#EE3796"/>
<path d="M350.507 492.3C347.556 503.212 342.637 507.327 338.702 501.96C337.324 499.992 336.931 497.667 336.931 491.584L337.128 483.891L335.75 490.332C334.963 493.91 333.783 499.813 332.996 503.57C330.831 513.767 330.241 520.387 330.831 523.965C331.618 527.721 335.554 532.015 338.505 532.015C345.785 532.015 352.672 513.767 352.475 494.089L352.475 485.859L350.507 492.3Z" fill="#EE3796"/>
<path d="M120.084 721.847C117.92 717.016 115.165 711.47 114.181 709.503C108.278 698.769 105.327 691.613 104.54 688.214C104.146 685.351 103.359 684.278 101.982 684.278C98.8338 684.278 97.85 686.246 99.0305 690.182C99.8176 692.686 99.8176 694.833 99.0305 697.516C97.6532 702.525 97.6532 710.934 99.0305 715.764C103.556 731.149 103.753 731.686 107.098 731.686C109.459 731.686 110.049 731.328 109.656 730.076C106.507 720.058 106.508 716.479 110.049 717.195C111.623 717.553 112.017 717.374 111.427 715.764C110.836 713.259 115.952 722.204 118.116 727.75C119.297 730.612 120.281 731.507 121.855 731.507C123.035 731.507 124.019 731.149 124.019 730.791C124.019 730.791 122.248 726.677 120.084 721.847Z" fill="#EE3796"/>
<path d="M117.535 681.759C116.157 679.076 112.222 671.204 109.074 664.406C105.729 657.608 102.384 650.452 101.401 648.663C100.023 646.159 99.2362 645.443 97.6621 645.443C96.088 645.622 95.4978 645.085 95.3011 642.76C94.9076 640.255 94.5139 639.718 92.7431 639.718C88.6111 639.718 87.0372 637.751 85.4631 629.7C84.676 625.407 83.1018 618.609 82.118 614.673C80.9375 610.737 80.1505 604.655 79.9537 601.434C79.757 596.246 80.1506 594.994 82.5117 591.416L85.2661 587.301L83.4955 574.958C81.1344 557.426 80.7408 555.816 79.757 555.816C79.3635 555.816 77.7895 557.426 76.6089 559.572L74.0509 563.329L73.0671 560.825C72.0833 558.32 72.0833 558.32 69.3286 563.508C64.6064 572.274 65.1967 580.682 74.0509 621.65C78.9699 644.549 81.9214 652.599 88.4145 659.755C91.1691 662.796 92.9399 666.016 93.5302 668.521C94.1205 671.741 94.9074 672.636 96.875 672.814C98.2523 672.993 99.8264 672.457 100.613 671.562C101.597 670.31 101.991 670.668 103.565 674.961C105.926 681.58 105.926 681.401 108.877 679.255C112.616 676.571 113.6 676.929 116.158 682.117C117.535 684.622 118.912 686.947 119.306 687.126C120.486 687.484 120.486 687.484 117.535 681.759Z" fill="#EE3796"/>
<path d="M93.935 -53.1397C93.148 -53.6764 89.4095 -55.6442 85.2776 -57.4332C80.9488 -59.401 77.8007 -61.5478 77.4072 -62.8001C76.2266 -66.1991 75.0461 -62.2635 74.4558 -53.1397C74.259 -48.4884 73.4721 -42.2269 73.0786 -39.1856C72.685 -36.1444 71.5044 -28.8097 70.5206 -22.7272C69.5368 -16.6446 68.3562 -9.4887 67.5692 -6.80524C65.9951 -0.901627 64.8146 8.40103 65.6016 7.50655C65.9951 7.14875 66.7821 4.64421 67.5692 1.60295L68.7499 -3.58511L68.7499 3.03411C68.9467 10.7267 70.1271 14.1258 75.4396 19.4927L79.1781 23.6073L80.5555 19.1349C82.5231 12.1579 82.3262 10.3689 78.391 6.96987C72.4882 1.78185 70.5207 -3.22731 71.111 -11.6355C71.5045 -17.8969 75.6363 -45.9837 76.4234 -46.6993C76.6201 -46.8782 80.1619 -45.0893 84.6874 -42.9425L92.7545 -39.0068L93.935 -44.0159C95.3123 -50.4562 95.3123 -51.8874 93.935 -53.1397Z" fill="#EE3796"/>
<path d="M75.6677 34.8533C74.4871 33.9588 73.1096 33.4221 72.5194 33.4221C70.355 33.4221 65.633 29.3075 63.8621 25.9084L62.0912 22.1516L61.3042 29.1285C60.9106 32.8854 60.9106 36.4633 61.3042 37.1789C61.6977 37.7156 60.9105 47.7339 59.73 59.5411C58.5494 71.3483 57.7626 81.7244 57.9593 82.6189C58.1561 83.5134 59.1398 75.9997 60.1236 65.9815C61.1074 55.9632 62.0911 46.4816 62.4847 45.0504L63.075 42.5458L66.6166 45.0504C68.7809 46.4816 70.355 47.555 70.5518 47.7339C70.7485 47.9128 69.3714 59.3622 67.7973 73.3162C64.8459 97.2884 64.8458 98.8986 66.4199 99.972C67.4037 100.688 68.3874 101.045 68.5842 100.866C68.7809 100.688 69.568 95.4995 70.3551 89.2381C72.5194 72.2429 76.8481 41.6514 77.4383 38.789C78.0286 37.0001 77.6353 36.1056 75.6677 34.8533Z" fill="#EE3796"/>
<path d="M70.3166 478.712C68.5457 478.712 62.8398 481.932 62.8398 483.006C62.8398 484.616 63.8235 484.437 67.5619 482.29C70.3165 480.859 71.8906 478.712 70.3166 478.712Z" fill="#EE3796"/>
<path d="M61.8441 555.111C60.6636 548.671 59.6797 541.336 59.2861 539.189C58.8926 535.611 58.4992 535.433 57.1218 536.685C55.7445 538.116 55.9412 539.547 59.4829 554.396C64.4019 576.579 65.189 576.758 61.8441 555.111Z" fill="#EE3796"/>
<path d="M58.1169 164.03C55.3622 162.778 52.6076 160.989 52.0174 159.737L50.6399 157.411L51.2303 160.095C52.2141 163.673 53.3945 164.925 57.5265 166.535C61.6584 168.145 62.8391 168.145 62.8391 166.893C62.8391 166.535 60.6747 165.104 58.1169 164.03Z" fill="#EE3796"/>
<path d="M57.3343 474.613C53.2024 473.897 51.825 473.897 51.825 474.792C51.825 476.402 53.0056 476.938 58.3181 477.475C61.8598 477.833 62.8437 477.833 62.8437 476.76C62.8437 475.865 60.876 475.149 57.3343 474.613Z" fill="#EE3796"/>
<path d="M60.0654 39.3259C59.8678 40.2204 59.8678 41.6516 60.0654 42.5461C60.4607 43.4405 60.4606 42.725 60.4606 40.936C60.6582 39.1471 60.4607 38.2525 60.0654 39.3259Z" fill="#EE3796"/>
<path d="M59.1072 48.4599C58.9096 49.3544 58.9096 50.7856 59.1072 51.6801C59.5024 52.5745 59.5023 51.8589 59.5023 50.0699C59.6999 48.281 59.5024 47.5654 59.1072 48.4599Z" fill="#EE3796"/>
<path d="M54.3935 10.5288C50.2615 8.56092 40.8169 2.29949 35.1109 -2.35184L32.1595 -4.85645L31.5694 0.868291C30.5856 8.91867 26.6504 55.2531 26.6504 59.5466C26.6504 66.8814 27.8308 61.6934 29.2081 47.7394C31.3725 26.0928 32.7498 12.1388 33.1433 11.9599C33.3401 11.7811 34.7175 12.8545 36.6851 14.1067C39.6365 16.2535 39.8333 16.7902 39.2431 19.6525C37.4722 28.0607 35.1109 60.6201 36.0947 61.8724C36.4882 62.5879 37.4721 62.7668 37.8656 62.2301C38.2591 61.8723 39.4398 53.4642 40.2269 43.6248C41.2107 33.7854 42.1944 24.3038 42.3912 22.336L42.9813 18.937L47.5069 21.7993C49.868 23.2305 51.8355 25.0194 51.8355 25.5561C51.8355 26.2717 50.6551 34.8589 49.2778 44.8771C44.5555 79.4043 44.5555 76.7208 46.5231 78.152C48.8842 79.762 49.2776 78.8676 51.8355 58.4733C53.016 48.8128 54.9838 34.501 56.1643 26.6296L58.5254 12.4966L54.3935 10.5288Z" fill="#EE3796"/>
<path d="M58.1411 57.9647C57.9435 59.038 57.9435 60.6481 58.1411 61.5426C58.5364 62.4371 58.5363 61.3637 58.5363 59.3958C58.5363 57.6068 58.3387 56.8913 58.1411 57.9647Z" fill="#EE3796"/>
<path d="M57.1323 66.1865C56.9347 67.2599 56.9347 69.0488 57.1323 70.3011C57.33 71.3745 57.5275 70.4801 57.5275 68.1544C57.5275 66.0077 57.33 65.1131 57.1323 66.1865Z" fill="#EE3796"/>
<path d="M53.7842 232.007C51.2263 231.292 49.2588 230.039 48.275 228.608C47.0945 226.461 46.8978 227.714 46.1107 242.92C45.7172 252.223 45.5203 261.346 45.7171 262.956C46.1106 264.745 46.3074 262.599 46.5041 257.947C46.7009 250.434 48.0782 241.31 48.6685 243.278C48.8652 243.814 49.0621 260.81 49.0621 280.846C49.2589 314.121 49.4554 317.699 50.8328 319.309C51.8166 320.204 52.9972 321.993 53.3907 323.066C54.3745 325.57 55.3584 308.038 56.1454 266.534C56.5389 251.686 56.9325 238.09 57.1292 236.301C57.7195 233.259 57.7193 233.081 53.7842 232.007Z" fill="#EE3796"/>
<path d="M57.1294 397.659C56.7359 392.293 56.5392 391.935 53.9813 391.398C51.2266 390.861 51.2265 390.683 50.6362 381.917C50.2427 377.086 49.6525 361.343 49.259 347.032C48.8655 332.183 48.0784 319.66 47.4881 317.692C46.8978 315.903 46.1107 306.422 45.7172 296.582C45.3237 286.743 45.3238 302.128 45.5205 330.752C45.7173 359.554 45.7173 382.632 45.5205 382.453C45.3238 382.274 44.34 369.573 43.5529 354.187C40.995 312.504 40.4048 305.885 38.6339 303.917C37.6501 302.844 37.0598 300.518 36.863 297.298C36.863 293.899 36.4695 293.005 36.076 294.257C35.2889 295.688 35.0923 295.33 34.502 291.931C33.5182 285.67 31.9441 247.386 31.9441 233.968C31.9441 222.34 31.9441 222.161 33.9116 223.771C35.8792 225.381 35.8792 225.381 35.8792 219.836C35.8792 212.322 34.6988 209.996 30.3701 208.207C28.4025 207.492 26.6317 206.776 26.4349 206.776C25.6479 206.776 26.0413 266.707 26.8284 279.587C27.6154 291.573 27.8121 292.826 30.1732 295.33C32.9278 298.372 32.7312 296.225 35.4858 339.339C37.4534 372.077 37.6501 371.004 34.6987 370.646C32.3376 370.288 32.3375 369.752 31.157 358.66C29.7797 345.243 29.1894 337.013 28.0089 313.041C27.0251 296.582 25.451 287.459 24.0737 291.037C23.6802 291.931 23.2866 281.734 23.2866 268.496C23.0898 255.257 22.8933 233.432 22.4997 219.836L21.9094 195.148L19.1547 192.643L16.4 190.139L15.8099 192.643C15.4163 194.432 15.0228 193.895 15.0228 190.139C15.0228 186.024 14.6293 184.772 12.8585 183.877C10.8909 182.804 10.8909 182.983 10.8909 187.097C10.8909 193.538 13.4487 223.235 15.8099 245.955C17.7775 263.665 19.3514 273.147 20.3352 272.252C20.532 272.074 19.9417 261.697 19.1547 249.175C18.1709 236.473 17.3838 223.056 17.1871 218.941C16.9903 214.826 16.7935 209.102 16.4 206.06C16.0065 203.019 16.0065 201.23 16.4 201.946C16.7935 202.661 17.3839 204.093 17.7775 205.166C18.3677 206.239 19.1548 218.404 19.7451 232.179C20.3353 245.955 21.3191 261.876 21.7127 267.422C22.3029 272.968 22.6965 278.514 22.6965 279.766C22.6965 281.913 22.6965 281.913 21.7127 280.124C20.9256 278.693 20.9255 279.23 21.319 281.913C21.5157 283.881 22.3028 293.541 23.0899 303.381C24.0737 316.082 24.664 320.018 25.0575 317.156C25.451 314.83 25.4511 317.871 25.4511 323.596C25.2544 330.394 25.2542 333.256 26.0413 331.825C26.6315 330.394 26.6317 332.541 26.4349 338.266C26.2382 343.096 26.4348 346.495 26.8284 345.779C27.2219 345.243 27.6154 348.642 27.8122 353.651C27.8122 358.481 28.796 367.963 29.7798 374.582L31.7474 386.568L37.2567 388.178C41.5854 389.43 42.9627 390.325 43.1595 391.935C43.3563 393.008 44.34 394.439 45.5205 394.797C47.0946 395.513 47.4881 396.765 47.4881 400.343C47.4881 404.994 49.259 407.678 52.2104 407.678C53.1942 407.678 54.965 408.036 56.1456 408.214C58.1132 408.751 58.3099 408.572 58.1132 405.71C57.7197 404.636 57.3261 400.701 57.1294 397.659ZM23.877 305.706C23.6802 303.738 23.6802 300.518 23.877 298.371C24.0737 296.225 24.2704 297.656 24.2704 301.771C24.2704 305.885 24.0737 307.674 23.877 305.706Z" fill="#EE3796"/>
<path d="M56.3585 75.102C55.5715 77.2488 55.3748 82.7946 55.9651 82.7946C56.3586 82.7946 56.7519 80.8268 56.7519 78.5011C56.7519 76.1755 56.5553 74.5653 56.3585 75.102Z" fill="#EE3796"/>
<path d="M49.6498 149.884C48.8627 149.526 46.1082 147.916 43.3536 146.485C40.5989 145.054 37.2539 142.728 35.8766 141.297C34.4993 139.866 31.1545 137.719 28.3999 136.288C24.0712 133.962 23.6775 133.962 24.071 135.393C24.2678 136.288 26.6291 138.256 29.3837 139.508C32.1383 140.939 35.2864 143.086 36.6637 144.696C37.8443 146.127 40.9925 148.095 43.3536 148.99C45.7147 149.884 48.4693 151.315 49.4531 152.031C51.0271 153.283 51.224 153.283 51.224 152.031C50.8304 151.315 50.2401 150.242 49.6498 149.884Z" fill="#EE3796"/>
<path d="M49.8748 460.097C49.4812 459.202 46.9235 457.592 44.3656 456.877C40.2337 455.445 39.6433 455.266 40.0368 456.519C40.2335 457.234 42.2012 458.665 44.7591 459.381C47.1202 460.276 49.4814 461.528 50.0717 462.243C51.0555 463.854 51.0553 462.601 49.8748 460.097Z" fill="#EE3796"/>
<path d="M35.0935 265.458C34.8959 267.068 34.8959 270.109 35.0935 271.898C35.2911 273.866 35.4889 272.614 35.4889 269.036C35.4889 265.458 35.2911 263.848 35.0935 265.458Z" fill="#EE3796"/>
<path d="M23.099 -14.345C20.5411 -16.3129 17.7866 -19.1752 16.8028 -20.7853C15.819 -22.3954 13.6545 -24.5421 11.4902 -25.7944L7.75192 -27.7623L7.16154 -19.1753C6.76802 -14.5239 6.17784 0.861294 5.78432 14.9942C5.19404 40.2187 5.19395 40.7553 7.16154 41.6498C9.12914 42.7232 9.12919 42.3655 9.91622 16.7832C10.3097 2.65027 10.9 -9.33583 11.0967 -9.69363C11.2935 -10.0514 12.4741 -9.87261 13.6547 -9.33592C15.6223 -8.26254 15.819 -7.9047 15.0319 11.0584C14.6384 21.6134 14.0482 32.5261 13.8514 35.2096C13.4579 38.0719 13.6546 40.0398 14.2448 40.0398C14.8351 40.0398 15.6222 31.4527 16.0157 18.751C16.4092 7.12266 16.9995 -2.71665 17.1962 -2.89555C17.393 -3.07445 19.1638 -2.00109 21.1314 -0.569909C24.6731 1.93466 24.8698 1.93466 24.2795 7.48047C23.099 19.2877 22.3119 56.1406 23.2957 56.6773C23.886 57.035 24.6732 47.3746 25.4603 30.5583C26.0506 15.8887 26.8374 0.50352 27.2309 -3.43222L27.8213 -10.7671L23.099 -14.345Z" fill="#EE3796"/>
<path d="M18.942 123.236C16.3841 121.447 13.8263 118.943 12.8425 117.154C11.8587 114.828 10.0878 113.397 6.34932 111.608C-0.340512 108.567 -0.537175 110.713 5.95589 114.112C9.10405 115.544 11.4652 117.511 12.8425 119.837C15.0068 123.415 23.4676 129.498 23.4676 127.351C23.6643 126.814 21.4999 124.846 18.942 123.236Z" fill="#EE3796"/>
</g>
<defs>
<clipPath id="clip0_237_39705">
<rect width="1932.64" height="1443.1" fill="white" transform="matrix(4.37114e-08 1 1 -4.37114e-08 0.599854 -1200.09)"/>
</clipPath>
</defs>
</svg>
