<svg width="653" height="358" viewBox="0 0 653 358" fill="none" xmlns="http://www.w3.org/2000/svg">
<mask id="mask0_196_45849" style="mask-type:alpha" maskUnits="userSpaceOnUse" x="0" y="0" width="762" height="358">
<rect width="762" height="358" fill="#D9D9D9"/>
</mask>
<g mask="url(#mask0_196_45849)">
<g clip-path="url(#clip0_196_45849)">
<path d="M649.849 -367.687C649.551 -367.416 647.836 -365.518 646.046 -363.348L642.765 -359.416L637.769 -360.569C620.545 -364.501 592.209 -369.179 574.761 -370.942C569.989 -371.416 564.844 -371.958 563.352 -372.162C561.936 -372.297 555.523 -372.84 549.259 -373.247C539.491 -373.925 534.644 -373.992 515.705 -373.992C488.712 -374.06 482.672 -373.721 460.451 -371.145C452.249 -370.196 449.341 -369.721 436.814 -367.484C417.277 -364.026 394.236 -357.586 376.564 -350.738C373.88 -349.653 370.226 -348.297 368.586 -347.619C364.634 -346.06 346.887 -337.992 345.47 -337.111C344.874 -336.704 344.352 -336.433 344.277 -336.433C343.755 -336.433 331.526 -329.585 325.114 -325.789C318.403 -321.721 307.292 -314.467 302.371 -310.806C286.041 -298.806 274.707 -289.314 261.285 -276.501C252.337 -267.89 251.368 -266.873 242.569 -257.585C233.472 -247.958 223.704 -236.636 213.786 -224.161C212.966 -223.144 211.997 -221.924 211.698 -221.517C211.4 -221.11 209.834 -219.077 208.268 -216.975C204.764 -212.365 198.799 -204.093 197.904 -202.738C197.009 -201.382 192.61 -195.009 191.864 -193.992C191.491 -193.517 190.522 -191.958 189.627 -190.534C188.732 -189.11 187.315 -186.941 186.57 -185.721C184.929 -183.212 182.17 -178.805 177.547 -171.144C174.043 -165.449 166.362 -151.619 163.156 -145.178C161.963 -142.805 160.322 -139.551 159.502 -137.992C158.682 -136.432 158.011 -135.076 158.011 -134.941C158.011 -134.873 157.489 -133.788 156.892 -132.568C155.625 -129.992 151.896 -121.924 151.151 -120.161C150.853 -119.483 150.405 -118.466 150.181 -117.924C149.137 -115.754 145.484 -107.008 143.843 -102.873C142.949 -100.5 141.755 -97.5846 141.308 -96.4321C140.488 -94.3304 138.475 -88.9744 135.566 -80.8388C130.571 -67.0082 124.009 -44.7708 119.908 -27.8217C119.087 -24.364 118.118 -20.4995 117.82 -19.1436C117.521 -17.7877 116.776 -14.6691 116.254 -12.2284C115.732 -9.71988 115.135 -7.008 114.986 -6.19443C114.837 -5.31308 114.017 -1.44867 113.271 2.48355C112.526 6.41577 111.78 10.4836 111.556 11.6361C110.139 19.026 107.753 36.1786 106.859 45.399C106.486 48.721 106.038 52.9244 105.889 54.7549C104.323 67.7719 103.503 103.026 104.323 123.501C105.367 150.416 108.872 190.213 112.004 211.705C113.42 221.264 115.434 233.603 116.179 237.671C116.627 239.84 117.298 243.976 117.671 246.823C118.789 254.417 120.579 265.332 121.473 269.535C124.531 284.044 125.724 289.332 128.11 298.485C128.632 300.383 129.228 303.027 129.452 304.383C132.062 319.027 137.431 340.451 142.501 355.976L143.247 358.281L151.002 358.281C155.326 358.281 158.831 358.146 158.831 358.01C158.831 357.807 158.235 356.79 157.489 355.637C155.177 352.247 147.795 338.417 144.664 331.705C143.023 328.247 141.756 325.332 141.756 325.197C141.756 325.061 141.308 324.18 140.861 323.163C139.593 320.586 138.475 317.129 138.176 315.095C138.027 314.146 137.803 312.654 137.58 311.773C137.207 310.213 135.045 295.976 133.926 287.841C133.479 284.451 132.211 273.468 130.72 260.451C129.899 253.196 128.334 232.789 127.662 220.789C126.619 202.484 126.842 159.84 128.035 145.603C128.184 143.162 128.706 137.874 129.005 133.806C131.391 104.857 138.475 68.4499 148.243 34.6871C151.971 21.7379 154.283 14.2124 158.309 1.94119C165.468 -19.686 176.056 -47.2793 183.363 -63.3472C184.184 -65.2455 185.526 -68.1608 186.271 -69.7879C187.017 -71.415 188.136 -73.7201 188.732 -74.9405C189.329 -76.1608 189.851 -77.1778 189.851 -77.3134C189.851 -77.4489 190.298 -78.2625 196.338 -90.127C198.724 -94.6693 200.737 -98.6016 200.886 -98.805C201.036 -98.9406 202.452 -101.381 204.018 -104.161C211.4 -117.11 216.322 -124.771 224.375 -135.619C228.178 -140.771 235.038 -149.449 235.858 -150.263C236.007 -150.398 236.529 -151.076 237.2 -151.822C238.468 -153.449 247.863 -163.687 248.758 -164.5C249.131 -164.839 250.92 -166.602 252.784 -168.5C258.824 -174.534 272.321 -186.602 279.703 -192.568C281.194 -193.788 282.685 -194.941 282.909 -195.144C284.475 -196.432 295.213 -204.365 297.45 -205.856C298.27 -206.399 299.09 -206.941 299.165 -207.009C299.314 -207.212 304.161 -210.534 306.994 -212.365C310.946 -214.941 317.06 -218.805 318.403 -219.551C319.223 -220.026 321.534 -221.382 323.548 -222.466C340.4 -232.433 362.248 -241.992 382.455 -248.229C398.636 -253.246 418.172 -256.975 435.621 -258.331C444.345 -259.009 460.973 -259.348 470.667 -259.009C480.733 -258.602 498.778 -257.246 503.923 -256.5C505.713 -256.229 509.739 -255.687 513.02 -255.28C524.727 -253.856 546.65 -249.789 561.414 -246.331C573.493 -243.483 586.02 -240.297 586.393 -239.958C586.468 -239.89 586.095 -238.06 585.573 -235.89C583.038 -224.907 580.875 -209.856 579.31 -192.907C577.818 -176.093 577.595 -170.127 577.818 -140.432C578.191 -80.093 577.967 21.8056 577.52 36.2463C576.551 64.7888 576.327 71.2973 575.954 73.4668C575.208 77.5346 572.971 95.9754 571.406 109.67C570.585 117.128 569.765 124.518 569.467 126.145L569.019 129.128L564.918 127.908C532.706 118.348 497.511 109.942 470.592 105.331C466.193 104.586 461.793 103.772 460.899 103.569C458.811 103.162 444.494 101.06 437.261 100.111C391.627 94.2127 351.734 94.7551 324.07 101.738C310.797 105.06 298.344 110.416 290.813 116.179C288.427 117.942 282.76 123.026 281.045 124.925C271.202 135.704 266.654 145.535 263.149 163.162C262.702 165.332 262.105 167.501 261.807 168.111C261.509 168.654 260.763 170.755 260.017 172.857C259.346 174.891 258.079 178.349 257.184 180.383C255.693 183.84 254.798 186.077 252.486 193.061C252.039 194.281 251.368 196.789 250.92 198.552C250.473 200.383 249.653 202.823 249.056 204.044C246.446 209.467 242.494 220.925 241.227 226.62C240.854 228.247 240.183 230.281 239.735 231.23C238.542 233.603 235.261 242.891 233.77 247.637C231.608 254.823 229.669 264.451 228.774 272.451C228.103 278.078 228.103 303.095 228.774 308.993C229.669 316.925 231.831 327.637 234.068 335.095C235.411 339.773 238.841 349.603 239.735 351.434C240.034 352.044 240.705 353.671 241.301 355.163L242.345 357.807L322.578 357.807C366.722 357.807 402.662 357.671 402.439 357.536C402.29 357.4 399.531 355.773 396.399 354.01C389.837 350.281 374.476 340.858 372.389 339.23C372.239 339.095 371.195 338.417 370.226 337.807C369.257 337.197 368.213 336.519 367.915 336.315C367.616 336.044 365.678 334.688 363.59 333.264C361.502 331.841 359.19 330.213 358.445 329.603C357.699 329.061 356.282 327.976 355.387 327.366C354.418 326.688 353.001 325.603 352.107 324.925C351.286 324.247 349.571 322.891 348.304 321.942C338.237 314.349 319.297 297.061 313.407 290.078C312.885 289.535 312.437 288.993 312.288 288.857C311.543 288.247 305.055 280.722 301.924 276.722C299.91 274.145 297.748 271.434 297.151 270.688C294.914 267.84 288.651 258.349 285.444 252.925C282.014 247.095 276.646 236.45 275.527 233.128C275.154 232.112 274.632 230.756 274.334 230.213C272.544 226.417 268.816 213.942 267.399 206.891L266.803 203.637L268.518 202.213C274.334 197.467 284.028 191.84 292.528 188.315C299.463 185.399 311.17 182.077 318.999 180.857C331.675 178.823 334.882 178.552 350.839 178.62C365.305 178.62 366.274 178.688 376.191 179.705C388.942 181.06 401.246 182.959 411.088 184.993C428.015 188.518 439.125 191.23 453.74 195.298C459.78 196.993 473.724 201.128 478.123 202.62C479.242 203.027 482.896 204.179 486.102 205.196C491.843 207.027 499.822 209.739 508.248 212.586C517.494 215.84 538.074 223.501 543.592 225.874C544.86 226.417 546.128 226.891 546.277 226.891C547.097 226.891 547.022 227.637 545.68 231.434C541.728 242.891 540.833 245.332 538.224 252.179C536.658 256.247 534.346 262.01 533.228 264.79C532.035 267.637 530.692 271.095 530.17 272.383C529.574 273.739 528.903 275.434 528.53 276.179C528.157 276.925 527.411 278.756 526.815 280.179C526.218 281.603 525.622 282.959 525.473 283.095C525.324 283.298 524.727 284.654 524.131 286.01C523.534 287.434 522.714 289.4 522.192 290.349C521.67 291.298 520.626 293.603 519.806 295.366C518.091 299.027 510.485 311.637 506.608 317.197C506.16 317.874 504.743 319.908 503.55 321.807C500.941 325.739 491.993 338.078 489.979 340.586C489.159 341.536 488.041 342.959 487.444 343.705C483.79 348.315 479.987 352.79 476.781 356.315L475.514 357.671L490.501 357.671L505.489 357.671L508.099 352.247C510.932 346.281 517.42 331.637 518.24 329.468C518.464 328.722 518.836 327.976 518.986 327.773C519.135 327.637 519.731 326.146 520.328 324.451C520.924 322.824 521.595 321.061 521.894 320.451C523.534 317.061 532.258 292.654 535.614 281.671C535.912 280.722 536.583 278.891 537.105 277.535C537.702 276.247 539.417 271.773 540.983 267.637C542.548 263.569 544.04 259.705 544.189 259.162C545.68 255.366 551.198 240.247 552.689 235.976C553.659 233.128 554.628 230.688 554.777 230.552C555.076 230.281 558.655 231.705 571.555 237.264C574.164 238.349 577.669 239.908 579.31 240.586C590.122 245.128 624.198 260.857 640.976 268.993C646.121 271.501 650.52 273.535 650.595 273.535C650.744 273.535 650.744 247.23 650.744 215.027L650.744 156.518L649.327 155.908C647.239 155.094 634.116 150.348 629.194 148.586C626.883 147.772 622.558 146.213 619.501 145.128C613.61 143.094 604.438 139.976 594.521 136.721C591.166 135.637 588.258 134.62 588.108 134.484C587.959 134.348 588.407 132.45 589.152 130.281C592.657 120.314 601.307 96.5178 601.53 96.1788C601.679 96.0432 602.201 94.8229 602.574 93.6025C603.022 92.3822 604.14 89.3991 605.109 87.0262C609.583 75.6363 610.702 72.9244 611.075 72.3143C611.224 71.9075 612.044 70.1448 612.79 68.3143C613.535 66.4838 614.803 63.3651 615.698 61.399C620.545 50.2125 621.29 48.4498 625.019 40.1108C625.764 38.4159 626.659 36.4497 627.032 35.9074C627.33 35.2972 628.001 33.8057 628.523 32.5854C629.045 31.365 629.865 29.4667 630.462 28.3819C630.984 27.2972 631.357 26.1446 631.282 25.8735C631.133 25.6023 631.208 25.4667 631.431 25.6023C631.655 25.7379 631.953 25.4667 632.102 24.9921C632.252 24.5175 632.774 23.365 633.221 22.4836C633.668 21.5345 634.414 19.9073 634.936 18.8904C635.383 17.8734 636.054 16.3819 636.427 15.5683C636.8 14.7548 637.62 12.9921 638.217 11.5683C638.888 10.1446 640.901 5.87339 642.691 2.07676C644.555 -1.71984 646.643 -6.26223 647.463 -7.95715C648.283 -9.65209 649.327 -11.9572 649.924 -13.1097L650.893 -15.1436L650.893 -191.348C650.446 -343.958 650.371 -368.026 649.849 -367.687Z" fill="#FFC906"/>
<path d="M647.315 173.059C641.648 169.059 640.38 167.161 640.604 163.5C640.977 159.229 642.915 156.924 646.495 156.517C648.732 156.313 648.732 156.246 647.539 155.839C646.942 155.568 642.244 153.941 637.249 152.11L628.077 148.788L627.033 149.873C625.616 151.296 624.348 154.483 624.125 157.466C623.752 161.602 624.647 162.958 631.656 168.856C633.073 170.008 634.862 171.703 635.757 172.652C640.902 178.28 642.543 179.974 646.196 183.364L650.298 187.161L650.298 181.263L650.298 175.297L647.315 173.059Z" fill="#EE3796"/>
<path d="M649.332 188.653C648.735 188.382 646.722 187.569 644.858 186.891C642.919 186.145 641.279 185.535 641.055 185.331C640.906 185.196 640.011 184.857 639.191 184.518C638.371 184.247 634.568 182.755 630.839 181.399C627.111 179.975 623.979 178.755 623.83 178.755C623.457 178.755 624.054 182.484 624.576 183.636C625.173 184.789 625.545 184.992 632.182 187.569C640.086 190.619 644.187 192.247 647.766 193.67C649.108 194.213 650.227 194.687 650.301 194.687C650.376 194.687 650.45 193.467 650.45 191.908C650.45 189.264 650.376 189.128 649.332 188.653Z" fill="#EE3796"/>
<path d="M649.098 196.857C646.339 195.84 641.12 194.891 638.063 194.891C633.887 194.891 632.023 195.433 630.084 197.196C627.847 199.23 627.101 201.467 627.325 205.128C627.474 207.637 627.772 208.247 629.711 211.772C632.545 216.789 635.155 220.654 638.435 224.925C641.567 228.925 646.638 234.213 648.949 235.84L650.515 236.993L650.515 230.416L650.515 223.84L649.248 222.281C646.414 218.891 643.953 215.026 643.431 213.264C642.164 208.857 644.773 204.992 649.098 204.992L650.515 204.992L650.515 201.128L650.515 197.331L649.098 196.857Z" fill="#EE3796"/>
<path d="M648.804 238.487C647.909 238.08 642.466 235.572 636.65 232.86L626.062 227.911L626.062 229.809C626.062 230.826 626.211 232.521 626.509 233.47L626.956 235.233L635.308 239.097C639.931 241.199 644.628 243.369 645.672 243.911C646.716 244.453 648.208 245.131 649.028 245.403L650.445 245.945L650.445 242.555L650.445 239.233L648.804 238.487Z" fill="#EE3796"/>
<path d="M649.617 249.396C648.275 248.718 644.621 247.701 641.937 247.159C636.345 246.074 632.765 246.752 630.156 249.396C629.112 250.481 628.291 251.701 627.993 252.65C627.322 255.091 627.471 259.091 628.366 261.6L629.112 263.837L634.033 266.21C636.717 267.498 640.297 269.261 642.012 270.074L645.143 271.634L644.174 270.074C641.49 265.735 642.235 259.973 645.665 258.345C646.336 258.074 647.604 257.871 648.648 257.871L650.438 257.939L650.438 253.803C650.438 250.074 650.363 249.735 649.617 249.396Z" fill="#EE3796"/>
<path d="M633.368 19.1581C632.324 15.1581 631.578 13.7343 629.267 11.158C625.613 7.2936 625.538 7.09023 625.24 1.3953C624.867 -4.50303 624.494 -5.45218 620.841 -9.11321C614.428 -15.6217 612.116 -19.2149 609.656 -26.6048C608.761 -29.1811 607.866 -30.4014 603.84 -34.0625C600.26 -37.3167 599.813 -37.9269 599.067 -39.9608C598.62 -41.1811 598.247 -41.9947 598.247 -41.6557C598.247 -41.3845 598.62 -40.0964 599.067 -38.9438C599.813 -36.9777 600.409 -36.2998 604.212 -32.7065C608.388 -28.7065 608.537 -28.5709 609.507 -25.7234C610.103 -24.1641 610.7 -22.537 610.849 -22.1302C610.998 -21.7234 611.669 -20.2997 612.266 -18.9438C613.309 -16.5709 619.648 -8.43525 620.393 -8.43525C621.064 -8.43525 623.972 -4.36746 624.42 -2.74033C624.643 -1.79118 624.942 0.51393 624.942 2.27665C624.942 6.88683 625.538 8.51394 628.521 11.497C631.28 14.2767 631.951 15.4292 632.622 18.4123C633.144 20.7852 633.741 22.0733 633.741 20.6496C633.591 20.2428 633.517 19.5649 633.368 19.1581Z" fill="#EE3796"/>
<path d="M622.036 255.23C621.515 252.518 620.247 248.924 618.01 244.314C614.132 236.382 605.11 228.789 593.03 223.229C578.042 216.382 568.871 215.501 563.353 220.45C561.563 222.009 561.265 222.551 560.221 225.67C559.55 227.568 558.879 229.873 558.804 230.755C558.655 232.246 558.655 232.382 559.475 232.721C560.37 232.992 561.787 233.602 570.586 237.399C572.674 238.28 574.538 238.958 574.687 238.823C574.836 238.687 575.06 238.213 575.06 237.67C575.134 236.246 577.222 231.026 578.117 230.145C580.279 228.043 584.604 227.636 589.004 229.128C595.491 231.365 600.487 235.568 604.364 241.874C606.154 244.924 606.676 246.552 607.049 250.552C607.198 252.179 607.422 253.602 607.496 253.67C607.571 253.738 611.075 255.365 615.176 257.331L622.708 260.857L622.708 259.569C622.558 258.823 622.335 256.857 622.036 255.23Z" fill="#EE3796"/>
<path d="M621.436 203.635C620.243 198.415 618.602 194.754 615.918 191.5C610.102 184.381 598.842 177.805 584.973 173.534C574.906 170.415 565.66 169.94 560.217 172.246C558.576 172.923 558.055 173.398 557.085 174.89C555.594 177.398 554.848 179.907 554.55 183.839C554.326 187.771 554.699 190.618 556.041 192.991C558.576 197.602 567.077 206.619 572.446 210.212C582.587 217.127 597.202 223.364 605.479 224.381C612.339 225.263 616.514 223.364 619.646 217.941C622.33 213.398 622.778 209.466 621.436 203.635ZM604.136 209.398C602.123 212.991 600.855 213.873 597.053 214.008C593.623 214.144 590.267 213.263 586.166 211.093C581.17 208.381 575.503 203.364 573.415 199.568C571.775 196.652 571.327 194.415 571.551 190.212C571.924 183.907 574.012 180.517 578.187 179.432C579.679 179.025 580.35 179.093 583.407 179.771C593.772 181.873 600.781 186.618 603.614 193.398C605.255 197.263 605.628 199.364 605.553 203.296C605.628 206.483 605.479 206.957 604.136 209.398Z" fill="#EE3796"/>
<path d="M621.004 37.8747C620.183 36.6543 619.587 36.1798 619.363 36.7221C619.214 36.9933 618.17 39.8408 616.902 43.095C615.635 46.4171 614.591 49.129 614.591 49.3324C614.591 49.468 614.367 50.0781 614.069 50.6205C613.771 51.2307 613.323 52.3832 613.1 53.0612C612.652 54.2815 612.578 54.3493 612.13 53.8069C611.459 52.9934 610.49 49.8069 610.49 48.6544C610.49 47.773 612.056 42.5527 614.815 34.3492C615.56 32.1119 616.157 29.8069 616.082 29.3323C615.933 28.4509 615.411 29.9425 612.578 38.8916L611.385 42.6882L611.161 40.451C611.012 39.2306 610.713 37.6713 610.49 37.1289C610.042 36.1798 610.117 35.7052 610.788 33.6713C611.235 32.3831 612.13 29.5357 612.801 27.3662C615.784 17.2644 615.56 18.417 614.815 17.3322C613.994 16.2475 613.1 15.4339 612.95 15.5695C612.95 15.6373 611.459 20.7221 609.744 26.8916L606.612 38.0781L607.656 39.3662C609.744 42.0781 610.117 44.9255 609.297 50.9595C608.775 54.6883 609.073 56.1798 610.937 59.9087L612.13 62.2138L613.025 60.112C613.472 58.9595 614.516 56.3154 615.337 54.3493C616.157 52.3154 617.872 48.112 619.065 45.0611C620.333 41.9425 621.451 39.2306 621.451 39.0272C621.526 38.7561 621.227 38.2815 621.004 37.8747Z" fill="#EE3796"/>
<path d="M618.835 161.053C618.462 159.833 618.09 157.053 617.941 154.952C617.642 150.613 617.493 149.867 616.076 147.155C614.883 144.85 613.467 143.629 611.23 142.951C610.26 142.68 605.712 141.121 601.163 139.629C593.408 137.053 591.022 136.375 593.632 137.595C595.347 138.409 597.882 140.646 598.926 142.138C599.97 143.765 600.865 147.019 601.163 150.341C601.312 151.562 601.685 153.867 601.983 155.358C602.356 156.918 602.654 158.545 602.654 159.087C602.654 161.189 599.672 164.579 596.689 165.799C591.246 168.104 581.254 165.324 575.438 159.901C574.096 158.613 571.859 155.426 570.889 153.324C570.367 152.172 569.174 149.935 568.28 148.307C566.788 145.596 566.639 145.257 566.863 143.29C567.236 139.629 570.516 134.748 573.648 133.324C574.543 132.85 575.96 132.646 577.302 132.579L579.539 132.511L576.333 131.494C574.543 130.951 572.977 130.341 572.828 130.206C572.679 130.07 572.381 128.985 572.157 127.833C571.859 125.799 571.784 125.799 571.784 127.358C571.71 129.257 571.337 129.934 570.442 129.663C569.92 129.46 569.845 128.918 569.994 125.528L570.218 121.595L569.622 124.985C569.323 126.884 569.025 128.579 568.951 128.85C568.876 129.189 567.31 128.85 563.284 127.629C560.226 126.68 557.467 125.934 557.095 125.934C555.902 125.934 553.068 129.053 551.204 132.443C549.787 135.087 549.414 136.172 549.265 137.934C549.116 139.968 549.265 140.375 550.384 142.477C551.129 143.765 552.099 145.867 552.621 147.155C554.037 151.155 556.274 154.748 558.586 157.121C562.165 160.646 571.038 165.596 580.434 169.189C582 169.799 583.789 170.477 584.46 170.816C586.474 171.63 595.123 174.07 598.404 174.816C602.729 175.765 607.203 176.036 609.44 175.494C611.752 174.952 614.734 172.85 616.747 170.409C619.73 166.748 620.028 165.324 618.835 161.053Z" fill="#EE3796"/>
<path d="M608.464 63.8489C607.569 62.6963 606.674 61.6116 606.376 61.3404C605.854 61.0014 605.854 60.6624 606.227 59.3065C607.718 53.8827 608.24 48.9336 607.345 48.12C606.227 47.1031 604.586 48.1878 603.244 50.8319C602.797 51.7132 601.604 55.5099 600.56 59.3065C599.516 63.1031 598.323 66.8998 598.099 67.7133C597.652 69.0015 597.652 69.3405 598.099 70.0184C599.143 71.4422 599.367 74.0184 598.919 79.9167C598.472 85.6117 598.696 87.9168 599.814 91.5778L600.262 92.9338L601.156 90.832C602.051 88.6625 602.051 88.7304 600.784 84.5947C599.889 81.6795 600.038 78.7642 601.082 75.7133C601.604 74.2896 602.424 71.7811 603.021 70.0184C604.586 65.2726 604.661 65.2048 606.6 68.1201C607.494 69.4082 608.166 70.6964 608.166 70.9676C608.166 71.7133 608.837 70.7642 609.433 69.0015C610.253 66.6964 610.179 66.2218 608.464 63.8489ZM605.108 61.2726C604.363 63.9845 601.604 72.2557 600.933 73.7473C600.336 75.1032 600.411 66.9676 601.082 65.2726C601.38 64.5269 602.126 62.0862 602.797 59.8489C604.064 55.6455 605.183 53.4082 605.854 53.8827C606.451 54.1539 606.078 57.8828 605.108 61.2726Z" fill="#EE3796"/>
<path d="M607.279 6.69112L606.459 5.33519L605.937 7.43687C605.713 8.58942 604.967 11.5725 604.296 14.0132C603.7 16.5217 602.954 19.5047 602.73 20.7929C602.134 23.4369 601.985 23.1658 601.015 18.3522C600.568 15.7081 600.493 14.6911 600.866 13.3352C601.09 12.3861 601.835 9.064 602.432 5.87755C603.401 1.13177 603.476 -0.0207639 603.178 -1.10551C602.357 -3.5462 602.357 -3.47841 599.897 8.92841C599.524 10.6911 599.226 12.0471 599.076 11.9793C599.002 11.8437 597.883 10.6233 596.616 9.13179C593.931 5.94534 594.006 7.30131 595.87 -4.02077L597.138 -11.7496L596.392 -13.0377L595.646 -14.3259L594.975 -10.3937C594.603 -8.22419 593.857 -3.27503 593.26 0.657188C591.993 9.064 591.993 9.1318 595.87 14.0132C598.853 17.742 599.449 19.1658 600.27 24.5895C601.015 28.9963 601.761 31.437 602.134 30.4878C602.283 30.2166 602.805 28.2505 603.327 26.1488C605.489 17.4708 607.279 10.4878 607.652 9.33522C607.875 8.65725 608.099 8.11484 608.099 8.11484C608.099 8.04704 607.726 7.43689 607.279 6.69112Z" fill="#EE3796"/>
<path d="M600.031 33.8777C599.658 32.9963 599.36 31.9794 599.36 31.5726C599.285 31.1658 599.136 30.6234 598.838 30.2844C598.391 29.6743 598.316 29.6743 597.72 30.2166C597.123 30.759 597.048 30.6912 597.272 28.9285C597.57 26.5556 596.899 22.42 595.855 20.5895C595.11 19.2336 593.097 17.1996 592.5 17.1996C591.903 17.1996 591.009 18.3522 590.636 19.6403C590.263 20.8607 589.443 25.742 587.802 35.8438C587.355 38.5557 587.355 38.8946 588.175 40.9285C588.623 42.1489 589.816 44.3184 590.71 45.8099C593.171 49.7421 593.619 51.437 593.619 56.9286C593.619 59.5049 593.768 61.471 593.917 61.3354C594.811 60.5218 595.11 57.6065 594.737 52.1828C594.588 48.6574 594.588 45.9455 594.812 45.1997C594.961 44.5218 595.408 42.4879 595.781 40.7252C596.601 36.1828 597.049 34.8268 597.72 34.8268C598.018 34.8268 598.316 35.3692 598.465 36.2505C598.614 37.0641 598.913 38.2845 599.211 38.8946L599.658 40.115L600.106 38.2167C600.404 37.1997 600.628 36.0472 600.702 35.776C600.777 35.7082 600.479 34.759 600.031 33.8777ZM594.513 39.1658L593.469 44.2506L592.425 42.6235C591.829 41.7421 590.934 40.115 590.263 39.0302L589.145 37.0641L590.039 31.5726C591.158 24.5217 591.232 24.3861 592.127 23.6403C592.798 23.098 592.873 23.098 593.991 24.1827C594.588 24.7929 595.259 25.8776 595.483 26.5556C596.079 28.5895 595.706 33.6743 594.513 39.1658Z" fill="#EE3796"/>
<path d="M597.052 77.674C596.829 76.8604 596.53 75.9112 596.381 75.5722C596.009 75.0299 596.008 75.0977 595.785 75.7078C594.815 78.7587 594.741 79.2333 595.337 81.4028C595.785 83.1655 595.859 84.0469 595.487 86.3519C595.263 87.9113 595.039 91.4367 595.039 94.2842C595.039 100.86 594.368 105.199 592.653 110.149C591.833 112.454 591.013 113.945 590.416 113.945C589.82 113.945 589.223 111.708 588.999 108.928C588.85 107.03 588.999 105.064 589.447 102.894C589.894 100.522 589.969 99.1656 589.745 98.2164L589.372 96.8605L588.85 98.4198C588.552 99.3011 588.403 101.064 588.403 102.42C588.477 103.844 588.179 106.013 587.732 107.776C587.061 110.284 587.061 111.166 587.359 113.606C587.732 116.589 588.328 118.691 588.999 119.437C589.894 120.454 591.46 117.81 593.473 111.911C596.083 104.115 596.158 103.572 596.53 91.8435C596.68 85.8774 596.978 80.5214 597.052 80.0468C597.276 79.5045 597.202 78.4875 597.052 77.674Z" fill="#EE3796"/>
<path d="M593.031 -23.6856C592.509 -24.4313 591.987 -24.9737 591.913 -24.8381C591.838 -24.7703 591.242 -20.9059 590.645 -16.2279C589.974 -11.6177 589.452 -7.54989 589.377 -7.27871C589.228 -6.60074 587.066 -8.70246 586.022 -10.6008C585.053 -12.2279 584.605 -12.5669 584.605 -11.4143C584.605 -10.8042 584.531 -10.8041 583.71 -11.6855C582.592 -12.838 581.772 -12.5669 580.728 -10.7364C580.131 -9.71942 580.057 -8.43128 580.057 -0.227859L580.057 9.06032L581.25 10.7552C582.07 11.9078 582.517 12.3824 582.741 12.0434C583.188 11.3654 583.114 8.51795 582.592 7.83998C582.219 7.36541 582.144 5.67047 582.294 0.924696C582.517 -5.5838 582.741 -6.80416 583.636 -6.46518C583.934 -6.32958 584.158 -6.53297 584.158 -6.80416C584.158 -7.61773 584.829 -7.41432 585.053 -6.53296C585.202 -6.12618 585.947 -4.97362 586.842 -4.02447C587.662 -3.07531 588.855 -1.65157 589.452 -0.838007L590.57 0.58571L591.242 -3.4821C592.211 -9.44822 594.15 -21.6517 594.15 -22.0585C594.001 -22.2618 593.553 -23.0076 593.031 -23.6856Z" fill="#EE3796"/>
<path d="M592.14 56.4493C591.991 55.9748 590.873 53.873 589.68 51.7713C588.561 49.6696 587.368 47.2968 587.07 46.4832C586.846 45.6696 586.473 45.1272 586.324 45.195C586.175 45.2628 585.951 46.1442 585.802 47.1612C585.504 49.5341 586.548 52.7883 589.158 57.1273C591.022 60.3816 591.096 60.4494 591.246 63.907C591.395 66.6189 591.469 67.1612 591.768 66.3477C592.29 64.8561 592.513 57.4663 592.14 56.4493Z" fill="#EE3796"/>
<path d="M589.677 75.5676C588.335 81.1947 587.888 82.3473 587.888 80.3812C587.888 79.1608 586.396 75.432 584.98 73.2625C584.458 72.4489 583.787 70.6184 583.339 69.1269L582.668 66.3472L582.146 68.3811C581.475 71.093 582.295 74.5506 584.905 79.4998C586.545 82.7541 586.844 83.6354 586.844 85.4659C586.918 86.6185 586.918 87.6354 586.993 87.5676C587.067 87.4998 587.515 86.3473 588.037 84.8557C589.155 81.6015 590.423 75.9743 590.721 72.6523C590.945 70.5506 590.721 71.093 589.677 75.5676Z" fill="#EE3796"/>
<path d="M589.146 4.37771C588.847 3.90313 587.58 2.75061 586.238 1.73366L583.926 -0.0968628L583.628 2.20825L583.255 4.51332L585.194 6.14046C586.238 7.02182 587.505 8.24216 588.027 8.85233L588.922 9.93706L589.295 7.49639C589.593 5.66588 589.518 4.98788 589.146 4.37771Z" fill="#EE3796"/>
<path d="M587.212 105.804C586.988 105.262 586.69 105.804 586.168 107.906C585.721 109.397 584.677 112.923 583.857 115.634C580.054 128.109 579.606 129.736 579.606 130.55C579.606 131.228 579.756 131.092 580.128 130.007L580.576 128.651L580.799 130.821C580.949 132.041 581.098 133.058 581.172 133.126C581.247 133.194 581.843 133.329 582.589 133.465C584.006 133.736 584.006 134.346 582.813 128.38C582.142 125.329 582.142 124.787 582.664 123.024C582.962 121.94 583.186 120.787 583.186 120.584C583.111 120.312 583.335 120.109 583.484 120.109C583.708 120.109 583.782 119.838 583.633 119.567C583.484 119.296 583.558 118.957 583.782 118.821C584.006 118.685 584.08 118.414 583.931 118.143C583.857 117.872 583.857 117.601 584.006 117.465C584.155 117.329 584.23 117.058 584.379 116.787C584.453 116.516 585.199 114.346 586.019 111.838C587.585 107.363 587.66 106.956 587.212 105.804Z" fill="#EE3796"/>
<path d="M584.084 24.0433C583.264 22.7552 582.518 20.9247 582.444 20.0433C582.295 19.162 581.773 17.6026 581.176 16.5857L580.132 14.6873L579.983 16.9925C579.834 19.0264 579.983 19.5009 580.878 20.6535C581.623 21.6704 581.847 22.4162 581.847 23.9755C581.847 25.5349 582.145 26.484 583.338 28.7213L584.83 31.501L585.277 29.9416C585.874 27.5687 585.65 26.6874 584.084 24.0433Z" fill="#EE3796"/>
<path d="M583.045 96.1085C582.672 95.3627 581.852 93.8034 581.255 92.6508C579.764 89.7355 579.689 88.5152 580.808 82.5491C581.479 79.1593 581.703 76.7864 581.554 75.8372C581.404 75.0914 581.255 74.4812 581.181 74.549C581.106 74.6168 580.51 77.5999 579.913 81.2609C579.242 84.922 578.273 90.6169 577.676 94.0067C577.005 97.5322 576.707 100.515 576.856 101.058C577.005 101.736 577.303 100.922 577.825 98.0068C578.72 92.9898 579.018 92.3118 579.242 94.1423C579.466 95.9051 582.821 102.481 583.194 101.871C583.791 100.854 583.716 97.4644 583.045 96.1085Z" fill="#EE3796"/>
<path d="M581.852 36.0414C581.48 33.8719 581.032 31.9736 580.958 31.7024C580.809 31.499 580.734 34.5499 580.659 38.5499C580.585 46.2109 580.063 50.5499 578.944 52.1093C578.571 52.6516 578.199 54.0753 578.124 55.5669C577.9 58.0076 577.975 58.1432 578.646 58.0754C579.615 57.9398 580.883 54.4821 581.629 49.7364C582.598 43.7702 582.673 40.3804 581.852 36.0414Z" fill="#EE3796"/>
<path d="M579.907 36.9891C579.609 36.6501 579.534 37.2602 579.534 39.023C579.534 40.4467 579.609 41.5314 579.683 41.4636C580.056 41.1246 580.205 37.4636 579.907 36.9891Z" fill="#EE3796"/>
<path d="M575.957 123.166C574.541 120.725 573.944 118.488 574.019 115.98C574.168 113.81 574.168 113.81 573.795 115.302C573.571 116.183 573.348 118.488 573.348 120.522C573.199 123.98 573.273 124.251 574.541 126.963L575.808 129.742L576.256 128.386C577.076 126.217 576.927 124.929 575.957 123.166Z" fill="#EE3796"/>
<path d="M575.957 76.1786L575.435 74.6193L575.137 77.5345C574.988 79.2294 574.988 80.8565 575.212 81.3311L575.585 82.2125L575.808 81.1956C576.405 78.6871 576.405 77.6023 575.957 76.1786Z" fill="#EE3796"/>
<path d="M573.943 88.3824C573.496 88.7892 570.96 109.738 571.259 110.01C571.557 110.281 571.781 109.06 572.228 105.264C572.377 103.433 572.974 99.6367 573.346 96.7892C574.241 91.6367 574.465 87.9756 573.943 88.3824Z" fill="#EE3796"/>
<path d="M549.323 222.288C543.284 217.339 539.928 215.102 532.099 210.356C523.524 205.203 518.9 201.339 512.339 193.949C512.115 193.61 511.295 192.661 510.549 191.712C509.803 190.763 509.058 189.746 508.685 189.474C507.641 188.525 507.194 186.966 507.566 185.949C508.536 183.305 515.247 183.915 523.3 187.44C527.848 189.407 531.502 192.457 533.515 196.051C535.305 199.169 535.305 199.847 533.142 201.542L531.428 202.898L533.59 203.644C534.783 204.119 536.796 204.864 538.064 205.407C539.332 205.949 541.643 206.83 543.209 207.508C544.775 208.119 546.639 208.864 547.31 209.135C548.578 209.61 548.578 209.61 550.069 208.254C550.889 207.508 551.56 206.559 551.56 206.085C551.56 203.78 548.876 198.356 546.192 195.169C543.06 191.576 538.213 188.457 529.489 184.525C515.545 178.22 497.351 174.424 492.28 176.796C490.342 177.746 489.521 178.627 489.223 179.847C489.074 180.796 489.372 181.407 491.46 184.322C491.907 184.864 493.473 187.102 495.039 189.339C498.917 194.695 503.167 198.491 509.729 202.424C512.488 204.051 515.694 206.017 516.887 206.763C519.422 208.525 526.432 213.542 526.432 213.746C526.432 213.881 513.233 209.135 510.996 208.186C510.4 207.915 508.685 207.305 507.194 206.83C505.777 206.288 504.211 205.746 503.763 205.61C503.316 205.474 501.303 204.729 499.215 204.051C497.127 203.373 494.89 202.627 494.219 202.288C493.548 202.017 492.877 201.746 492.653 201.746C492.206 201.746 491.684 206.966 492.057 207.305C492.206 207.441 494.741 208.322 497.724 209.339C500.632 210.288 503.913 211.441 504.957 211.78C506 212.186 511.22 214.085 516.589 215.983C525.76 219.305 538.511 224.119 542.687 225.881C543.731 226.288 545.595 227.102 546.863 227.576C548.13 228.119 549.696 228.729 550.293 229C551.56 229.542 551.635 229.475 552.082 226.356L552.306 224.729L549.323 222.288Z" fill="#EE3796"/>
<path d="M549.26 231.098C549.036 231.302 545.979 242.624 546.128 242.759C546.277 242.895 548.216 238.285 548.813 236.048C549.335 234.149 549.633 230.692 549.26 231.098Z" fill="#EE3796"/>
<path d="M546.508 176.858C543.152 174.621 530.923 167.366 526.748 165.129C524.063 163.638 518.918 161.129 515.339 159.434C506.018 155.163 503.259 153.332 501.47 150.146C500.575 148.519 500.053 145.671 500.426 144.316C500.873 142.892 502.812 142.282 506.764 142.485C511.014 142.756 513.848 143.434 518.024 145.265C524.362 148.112 528.015 151.434 528.09 154.282C528.165 156.655 526.3 159.638 524.735 159.705C524.063 159.773 533.459 162.553 539.051 164.044C542.481 164.926 542.556 164.926 543.525 164.316C545.538 162.96 546.359 159.638 545.166 157.129C544.42 155.434 538.977 148.994 536.143 146.485C530.327 141.265 521.826 137.332 510.642 134.756C498.264 131.909 489.017 132.587 484.021 136.654C482.232 138.146 481.934 139.299 482.455 142.621C482.754 144.519 483.127 145.4 484.394 147.027C486.184 149.468 487.75 150.621 492.895 153.061C497.369 155.299 504.527 159.095 510.716 162.756C513.177 164.18 516.383 166.078 517.874 166.892C519.366 167.773 520.484 168.519 520.41 168.519C520.335 168.587 519.366 168.383 518.247 167.977C516.234 167.299 507.733 164.858 497.667 162.078C494.833 161.265 491.18 160.248 489.539 159.773C487.899 159.299 486.407 158.96 486.184 158.96C485.96 158.96 485.811 160.587 485.886 162.96L486.035 166.96L490.061 168.112C505.273 172.519 510.492 174.011 523.169 178.011C530.998 180.451 539.424 183.095 541.885 183.909C544.271 184.722 546.582 185.468 546.955 185.536C547.552 185.672 547.626 185.4 547.626 181.604C547.477 177.536 547.477 177.468 546.508 176.858Z" fill="#EE3796"/>
<path d="M545.75 237.609C545.005 240.185 544.632 246.016 545.228 245.135C545.527 244.796 545.75 243.304 545.825 241.813C545.899 240.321 546.049 238.355 546.123 237.406L546.272 235.643L545.75 237.609Z" fill="#EE3796"/>
<path d="M543.816 239.975C543.741 238.891 543.592 237.942 543.443 237.942C543.294 237.942 542.772 239.162 542.25 240.653C541.803 242.077 540.46 245.738 539.342 248.721C537.627 253.196 537.254 254.823 536.732 258.755C535.986 264.45 535.986 265.264 536.732 263.433C537.03 262.687 537.552 259.908 537.851 257.399C538.447 252.992 539.118 250.281 541.504 244.247L542.399 242.009L542.623 243.908L542.772 245.806L543.369 243.908C543.667 242.823 543.89 241.06 543.816 239.975Z" fill="#EE3796"/>
<path d="M543.369 247.3C543.22 247.028 542.922 246.893 542.847 246.961C542.549 247.232 540.088 254.215 538.746 258.418C538.075 260.588 537.404 262.622 537.329 262.893C537.255 263.164 537.404 263.028 537.777 262.554C538.075 262.079 538.522 260.927 538.821 259.91C539.119 258.893 539.417 258.147 539.566 258.283C539.715 258.418 539.79 258.215 539.715 257.944C539.342 256.995 541.356 251.842 542.176 251.842C542.549 251.842 543.742 248.995 543.742 248.249C543.742 248.045 543.593 247.571 543.369 247.3Z" fill="#EE3796"/>
<path d="M542.17 139.032C542.021 138.626 541.797 137.405 541.797 136.253L541.797 134.151L539.486 132.795C537.398 131.575 531.358 127.643 527.48 124.998C521.366 120.795 511.225 114.761 508.093 113.541C507.198 113.134 503.843 112.32 500.786 111.642C497.654 110.964 493.329 110.015 491.167 109.541C489.004 109.066 487.14 108.727 487.066 108.795C486.991 108.863 488.706 110.083 491.018 111.575C493.255 112.998 496.312 115.1 497.803 116.117C503.694 120.388 509.585 124.253 512.344 125.609C513.238 126.083 513.909 126.49 513.835 126.558C513.76 126.626 507.944 125.405 501.009 123.778C488.632 120.931 479.833 119.032 479.012 119.032C478.341 119.032 478.491 121.473 479.311 123.032L479.982 124.456L485.649 125.676C497.356 128.253 522.634 134.626 538.218 138.965C539.858 139.439 541.573 139.914 541.946 139.982C542.617 140.321 542.692 140.117 542.17 139.032Z" fill="#EE3796"/>
<path d="M534.792 264.315L534.345 261.4L533.674 263.095C533.301 264.044 533.003 265.4 533.003 266.078C533.003 266.756 532.257 269.129 531.362 271.298C529.125 276.586 529.2 276.519 529.423 275.027C529.573 274.281 529.573 273.739 529.498 273.739C529.051 273.739 528.081 277.4 526.739 283.637C525.993 287.095 525.248 290.281 525.024 290.824C524.875 291.366 524.8 291.773 524.875 291.773C525.322 291.773 526.292 288.858 527.186 285.197C528.007 281.807 529.871 276.519 531.139 273.942C531.288 273.536 531.884 272.247 532.332 271.027L533.226 268.79L533.45 270.146L533.599 271.502L533.972 270.485C534.121 269.942 534.494 269.061 534.792 268.586C535.091 268.112 535.314 267.637 535.314 267.502C535.24 267.298 535.016 265.942 534.792 264.315Z" fill="#EE3796"/>
<path d="M530.534 294.753C530.012 294.753 528.371 298.279 528.819 298.55C528.968 298.686 529.191 298.889 529.266 299.16C529.341 299.364 529.788 298.482 530.235 297.126C530.832 295.431 530.906 294.753 530.534 294.753Z" fill="#EE3796"/>
<path d="M524.72 310.081C523.676 310.827 521.886 314.149 522.259 314.488C522.558 314.759 524.347 313.064 524.869 312.115C525.167 311.641 525.466 310.827 525.615 310.217L525.913 309.268L524.72 310.081Z" fill="#EE3796"/>
<path d="M523.383 287.37C522.861 288.523 522.19 290.15 521.743 291.031C517.716 299.099 517.12 300.862 516.523 305.404C516.15 307.913 516.001 309.947 516.001 310.014C516.225 310.15 522.787 296.862 523.681 294.421C524.576 291.913 524.352 291.641 523.308 294.014C521.072 298.828 518.089 304.93 518.014 304.862C517.94 304.794 518.089 303.438 518.313 301.811C518.685 298.964 519.356 296.93 521.444 292.794C522.712 290.286 524.352 286.218 524.352 285.743C524.203 285.404 523.83 286.218 523.383 287.37Z" fill="#EE3796"/>
<path d="M521.375 319.443C519.884 320.053 519.586 320.325 518.467 323.036C517.647 324.935 513.024 336.053 511.831 338.833C511.681 339.104 512.278 338.833 513.024 338.155C514.813 336.664 516.379 334.223 516.454 332.799C516.603 331.172 516.603 331.172 516.976 331.308C517.125 331.443 517.274 331.104 517.274 330.562C517.349 329.545 518.989 325.342 519.884 323.918C520.48 323.036 521.002 322.02 521.673 320.46C521.897 319.986 522.195 319.511 522.27 319.308C522.344 319.172 521.972 319.24 521.375 319.443Z" fill="#EE3796"/>
<path d="M516.455 312.109C516.156 312.584 515.933 313.126 515.933 313.33C515.933 313.533 516.156 313.262 516.455 312.787C516.753 312.313 516.977 311.77 516.977 311.567C516.977 311.431 516.753 311.635 516.455 312.109Z" fill="#EE3796"/>
<path d="M516.9 313.538C516.826 313.605 515.857 315.571 514.738 317.809C513.62 320.114 512.65 322.012 512.576 322.148C512.128 322.555 513.098 319.978 514.365 317.063C515.185 315.3 515.707 313.877 515.633 313.877C515.409 313.877 513.47 317.944 512.874 319.639C512.576 320.453 512.203 320.995 512.054 320.927C511.83 320.792 511.83 321.063 511.979 321.334C512.128 321.809 512.128 321.877 511.681 321.673C511.308 321.538 511.233 321.538 511.457 321.809C511.606 322.012 511.457 323.029 511.084 324.046C510.786 324.995 510.488 326.826 510.562 328.114L510.562 330.419L511.383 328.521C511.83 327.504 512.277 326.148 512.427 325.538C512.576 324.995 513.694 322.148 514.887 319.165C516.975 314.08 517.273 313.199 516.9 313.538Z" fill="#EE3796"/>
<path d="M512.272 310.762C512.123 310.762 511.079 312.728 509.588 315.982C509.215 316.66 508.917 318.287 508.842 319.643C508.768 320.999 508.469 322.965 508.171 323.982C507.5 326.152 507.649 326.762 508.32 324.728C508.544 323.914 508.917 323.304 509.066 323.304C509.513 323.304 510.185 320.524 510.856 316.66C511.154 314.762 511.601 312.728 511.9 312.05C512.198 311.236 512.347 310.694 512.272 310.762Z" fill="#EE3796"/>
<path d="M510.779 322.823C510.481 323.297 510.182 324.043 510.033 324.586C509.884 325.06 510.183 324.789 510.555 324.043C511.376 322.484 511.525 321.535 510.779 322.823Z" fill="#EE3796"/>
<path d="M509.065 326.691C508.618 327.369 508.319 328.047 508.319 328.251C508.319 328.454 508.618 328.047 509.065 327.369C509.512 326.691 509.811 326.013 509.811 325.81C509.736 325.606 509.438 326.013 509.065 326.691Z" fill="#EE3796"/>
<path d="M508.168 328.718C507.87 328.718 504.962 335.565 504.216 337.87C503.62 339.769 503.545 339.904 503.098 339.294C502.8 338.955 502.576 338.548 502.576 338.345C502.576 337.599 501.905 338.209 500.935 339.972C499.742 342.142 499.817 342.616 501.905 344.108C503.098 344.989 503.098 344.989 502.725 346.955C502.576 347.972 502.427 348.786 502.576 348.65C503.321 347.837 504.44 344.582 504.44 343.226C504.44 340.447 506.379 332.989 508.094 329.396C508.243 328.989 508.243 328.786 508.168 328.718Z" fill="#EE3796"/>
<path d="M505.481 355.988C503.617 357.412 503.244 358.226 504.363 358.226C504.885 358.226 505.257 357.751 505.705 356.802L506.301 355.31L505.481 355.988Z" fill="#EE3796"/>
<path d="M501.675 330.493C501.303 330.493 498.618 334.425 497.5 336.73C493.548 344.459 492.727 346.086 492.876 346.086C492.951 346.086 493.622 345.069 494.517 343.781C495.561 342.018 496.008 341.612 496.083 342.154C496.381 343.849 491.385 352.459 490.789 351.171C490.64 350.764 490.192 351.171 488.999 352.934C487.359 355.442 486.315 357.815 486.762 358.154C486.911 358.29 487.135 358.154 487.359 357.883C487.508 357.612 488.253 356.662 488.999 355.781C491.982 352.052 497.351 343.035 498.693 339.645C499.662 337.001 499.886 335.171 499.215 335.51C498.991 335.645 499.513 334.561 500.333 333.137C501.079 331.645 501.75 330.493 501.675 330.493Z" fill="#EE3796"/>
<path d="M493.032 352.993C492.883 352.993 491.839 354.146 490.72 355.57L488.707 358.146L490.348 358.146L491.988 358.146L492.659 355.841C493.554 353.197 493.554 352.993 493.032 352.993Z" fill="#EE3796"/>
<path d="M490.05 348.865C488.783 348.865 481.997 356.594 481.997 358.017C481.997 358.153 482.668 358.153 483.488 358.153L484.98 358.153L486.769 354.966C487.739 353.204 488.932 351.17 489.454 350.492C490.423 349.068 490.498 348.865 490.05 348.865Z" fill="#EE3796"/>
<path d="M486.325 193.605C486.027 192.656 485.505 191.91 485.132 191.774C483.193 191.232 475.214 188.723 474.543 188.452C474.096 188.317 472.605 187.774 471.113 187.368C469.697 186.961 468.205 186.554 467.982 186.418C467.609 186.283 467.609 186.554 467.982 187.368C468.727 188.995 468.429 189.605 466.192 190.69C464.402 191.639 463.88 191.707 460.376 191.639C457.095 191.639 456.051 191.503 453.143 190.554C449.265 189.334 445.91 187.571 443.449 185.469C441.063 183.503 438.155 180.181 438.304 179.503C438.379 179.164 438.901 178.622 439.423 178.215C440.392 177.605 440.989 177.537 445.463 177.537C450.533 177.605 452.621 177.944 459.183 179.842L461.047 180.384L460.749 178.012C460.599 176.723 460.376 175.435 460.301 175.164C460.078 174.554 458.213 174.012 453.367 172.859C447.327 171.503 440.69 169.062 438.901 167.571C434.65 164.045 447.849 164.927 456.573 168.656C459.705 170.012 462.464 171.978 462.464 172.927C462.464 173.266 463.88 173.808 466.565 174.554C468.802 175.164 472.828 176.317 475.513 177.062C478.197 177.808 480.509 178.351 480.583 178.283C480.881 177.944 479.614 175.639 478.346 174.215C475.214 170.622 465.67 166.079 454.261 162.689C441.063 158.757 426.001 157.334 421.229 159.571C416.68 161.673 418.097 163.842 426.448 167.774L431.146 169.944L427.79 170.351C424.137 170.825 422.422 171.3 420.557 172.384C418.768 173.469 418.395 174.554 419.141 176.52C420.856 181.13 425.404 188.249 427.045 188.859C427.492 188.995 429.878 189.673 432.264 190.215C444.941 193.266 465.297 199.029 477.153 202.825C478.495 203.3 479.017 203.3 479.912 202.961C481.553 202.351 485.132 199.096 485.952 197.401C487.07 195.639 487.07 195.707 486.325 193.605Z" fill="#EE3796"/>
<path d="M479.017 150.756C478.495 150.214 475.959 149.468 469.547 147.977C464.775 146.824 460.599 145.875 460.45 145.875C460.226 145.875 460.301 146.011 460.524 146.282C461.195 146.892 461.121 148.451 460.301 149.061C455.603 152.926 438.676 149.536 432.86 143.57C431.22 141.875 430.549 140.451 431.294 139.773C432.189 138.96 442.479 140.044 449.488 141.672C451.054 142.078 452.397 142.35 452.471 142.282C452.546 142.214 452.322 140.994 452.098 139.502C451.651 136.451 452.247 136.858 446.357 135.638C437.707 133.875 431.294 130.349 431.294 127.434C431.294 126.417 431.369 126.417 434.128 126.011C438.154 125.4 448.146 127.773 452.397 130.282C454.783 131.705 455.23 132.18 455.23 133.4C455.23 134.146 455.081 134.078 460.524 135.299C464.402 136.18 471.113 137.739 472.455 138.146C473.648 138.485 473.275 136.18 471.784 134.282C469.92 131.909 466.117 128.451 463.805 127.095C459.629 124.519 452.546 121.807 446.655 120.519C441.435 119.366 432.413 118.214 428.237 118.214C421.601 118.214 415.635 119.638 413.026 121.875C411.907 122.824 411.758 123.163 411.982 124.044C412.802 127.095 416.53 131.027 420.855 133.265L423.167 134.417L417.649 135.163C414.592 135.57 411.982 135.977 411.833 136.044C411.236 136.587 411.758 139.231 412.877 141.129C416.754 148.18 429.579 154.553 447.401 158.417C456.199 160.316 458.586 160.655 464.327 160.655C468.876 160.655 469.77 160.519 472.306 159.706C475.885 158.553 477.898 157.265 478.868 155.638C479.911 153.807 479.911 151.638 479.017 150.756Z" fill="#EE3796"/>
<path d="M473.343 108.859C473.268 108.385 473.044 108.046 472.97 108.046C472.821 108.046 470.658 107.639 468.123 107.164C463.724 106.351 455.074 104.927 454.552 104.927C454.403 104.927 454.403 105.605 454.403 106.486C454.701 109.198 452.613 111.436 449.034 112.249C444.709 113.198 435.537 111.978 430.616 109.741C424.427 106.961 422.19 101.808 426.44 100.046C427.335 99.7068 427.932 99.3678 427.857 99.3678C424.8 98.961 417.12 98.2152 412.646 97.8085L406.755 97.2661L405.86 98.2152C405.04 99.0288 404.965 99.3678 405.115 101.469C405.711 108.385 410.856 111.368 428.305 114.825C443.292 117.876 457.311 119.842 462.978 119.842C467.75 119.842 470.584 118.419 472.299 115.232C473.119 113.334 473.715 110.351 473.343 108.859Z" fill="#EE3796"/>
<path d="M389.525 171.978C388.63 168.046 387.511 163.775 386.393 159.165C384.603 152.317 383.858 148.182 383.187 140.046C382.739 135.029 382.441 133.537 381.844 132.317C381.248 131.232 380.95 129.741 380.651 126.08C380.428 123.503 379.98 120.656 379.757 119.775C379.458 118.893 379.011 116.927 378.787 115.3C378.489 113.673 378.042 111.436 377.743 110.351C377.445 109.266 376.998 105.876 376.699 102.893C376.401 99.8424 376.028 97.1305 375.879 96.8593C375.73 96.5203 375.283 96.3169 374.91 96.3169C374.388 96.3169 374.239 96.4525 374.388 96.8593C374.537 97.1983 374.91 99.9101 375.208 102.825C375.506 105.808 376.028 109.063 376.327 109.944C376.625 110.893 377.072 113.198 377.296 114.961C377.52 116.792 377.967 119.029 378.265 119.978C378.563 120.927 379.011 123.639 379.16 126.012C379.384 128.927 379.831 130.826 380.353 132.046C380.95 133.266 381.248 135.029 381.472 138.487C381.919 144.046 383.559 154.283 384.529 157.944C387.139 167.097 388.257 172.927 388.257 178.148C388.257 181.266 388.332 181.47 389.003 181.47C389.748 181.47 389.748 181.266 389.748 177.063C389.674 174.622 389.599 172.317 389.525 171.978Z" fill="#EE3796"/>
<path d="M371.646 350.429C370.006 347.446 368.291 345.548 364.861 343.107C360.983 340.395 357.702 339.039 354.72 339.039C352.557 339.039 352.035 339.175 350.619 340.056C348.605 341.345 347.263 343.582 347.934 344.328C348.158 344.599 349.798 345.819 351.439 346.972L354.496 349.141L355.167 348.124C356.584 346.023 359.194 345.955 361.878 347.921C364.115 349.548 365.159 351.379 364.935 353.073C364.413 356.531 360.909 357.006 356.808 354.158C355.913 353.48 354.944 353.006 354.794 353.006C354.422 353.006 353.229 355.785 353.229 356.599C353.229 358.023 354.123 358.158 363.593 358.226C373.809 358.226 373.063 358.497 373.063 354.972C372.989 353.277 372.765 352.395 371.646 350.429Z" fill="#EE3796"/>
<path d="M348.082 356.18C346.74 355.163 345.174 353.942 344.503 353.468C343.906 352.993 343.31 352.654 343.235 352.654C342.49 352.654 342.266 357.739 343.012 358.078C343.31 358.214 345.099 358.214 347.038 358.146L350.468 358.01L348.082 356.18Z" fill="#EE3796"/>
<path d="M345.911 333.944C345.687 333.063 344.867 331.232 344.121 329.809C342.332 326.622 337.411 321.944 333.757 319.91C331.371 318.622 331.147 318.554 328.015 318.554C324.883 318.554 324.66 318.622 322.87 319.775C321.603 320.588 320.633 321.605 319.887 322.893C318.918 324.521 318.844 325.063 318.993 327.029L319.142 329.266L322.497 332.317L325.853 335.368L325.704 333.131C325.629 331.91 325.704 330.351 326.002 329.673C326.971 326.961 330.028 325.402 332.564 326.351C335.099 327.3 337.56 330.012 338.231 332.385C338.902 335.232 336.963 339.3 334.13 340.588C332.638 341.334 332.34 341.334 330.327 340.927C328.239 340.521 320.782 337.47 319.515 336.521C319.216 336.249 318.545 335.978 318.098 335.843C317.427 335.707 317.203 335.775 316.979 336.385C316.83 336.86 316.308 337.741 315.786 338.487L314.892 339.775L317.501 342.419C318.918 343.91 323.318 347.978 327.27 351.571L334.428 358.08L337.038 358.08C339.275 358.08 339.722 357.944 340.095 357.402C340.244 356.995 340.468 356.588 340.468 356.453C340.468 356.317 337.56 353.605 333.981 350.487C330.401 347.436 327.642 344.86 327.717 344.86C327.792 344.86 328.537 345.131 329.357 345.538C331.52 346.555 335.77 347.639 337.485 347.639C339.797 347.639 341.81 346.554 343.301 344.385C345.837 341.266 346.731 337.402 345.911 333.944Z" fill="#EE3796"/>
<path d="M342.861 160.729C342.413 157 342.041 153.949 341.966 153.881C341.817 153.746 334.584 154.288 330.93 154.695L328.991 154.898L329.29 157.339C329.439 158.695 329.588 161.678 329.588 163.848L329.588 167.915L328.395 168.051C315.57 169.949 307.218 171.848 300.656 174.288C298.867 174.899 296.779 175.644 296.033 175.915C294.691 176.322 293.498 177.814 293.796 178.627C293.871 178.831 295.66 178.356 297.748 177.61C309.604 173.339 326.978 170.221 341.369 169.543C343.383 169.475 343.457 169.407 343.532 168.458C343.532 167.983 343.234 164.458 342.861 160.729Z" fill="#EE3796"/>
<path d="M341.004 145.468C340.855 144.451 340.333 140.451 339.886 136.654C338.767 127.502 338.991 128.247 337.5 128.383C333.92 128.79 327.806 129.603 327.209 129.739C326.613 129.874 326.613 130.417 326.687 133.942C326.762 136.18 327.06 139.569 327.433 141.468C328.253 146.281 328.402 145.942 325.494 146.485C317.739 147.705 305.883 150.959 299.769 153.536C297.979 154.281 297.532 154.62 297.234 155.569C297.01 156.18 296.936 156.722 296.936 156.79C297.01 156.858 297.83 156.519 298.874 156.112C305.436 153.468 316.024 150.756 325.569 149.4C330.192 148.722 338.618 147.841 340.93 147.841C341.153 147.841 341.377 147.705 341.377 147.569C341.302 147.434 341.153 146.485 341.004 145.468Z" fill="#EE3796"/>
<path d="M337.71 119.299C337.635 119.164 337.114 115.435 336.666 111.232C336.144 106.96 335.622 103.435 335.548 103.299C335.398 103.164 324.81 104.927 324.288 105.266C324.139 105.401 324.139 106.418 324.288 107.706C324.736 110.96 325.78 120.994 325.63 121.13C325.556 121.198 322.946 121.808 319.814 122.554C310.493 124.791 298.041 129.333 297.37 130.757C297.221 131.096 297.221 131.435 297.221 131.435C297.295 131.503 298.19 131.164 299.234 130.689C308.107 126.757 320.336 123.503 333.236 121.74C337.412 121.13 337.859 121.062 337.859 120.384C337.934 119.977 337.859 119.503 337.71 119.299Z" fill="#EE3796"/>
<path d="M322.292 356.317C317.669 352.52 315.357 351.639 312.822 352.792C311.33 353.537 308.124 357.605 308.721 358.08C308.795 358.148 312.374 358.215 316.625 358.148L324.379 358.012L322.292 356.317Z" fill="#EE3796"/>
<path d="M319.145 309.875C317.579 303.841 311.539 296.722 306.319 294.485C302.069 292.722 296.849 293.739 294.016 296.926C292.375 298.824 292.003 300.18 292.748 302.146C293.867 305.4 294.538 307.638 295.284 311.841C296.327 317.672 297.595 320.994 299.981 324.18C304.082 329.739 309.153 332.451 313.552 331.57C315.342 331.163 316.162 330.282 316.46 328.044C316.609 327.027 317.206 324.926 317.803 323.231C319.741 317.672 320.114 313.672 319.145 309.875ZM311.315 316.858C310.719 318.621 310.197 320.655 310.197 321.333C310.197 322.688 309.004 324.112 308.034 323.773C307.736 323.638 307.289 323.57 307.14 323.57C306.468 323.57 304.082 321.468 303.038 319.841C301.696 317.943 299.086 311.841 298.415 308.926C297.819 306.553 298.042 305.536 299.757 303.841C301.547 302.01 304.008 301.197 305.947 301.671C308.109 302.282 310.048 303.977 311.315 306.349C312.881 309.333 312.881 312.383 311.315 316.858Z" fill="#EE3796"/>
<path d="M308.042 345.875C306.029 340.045 297.081 328.384 292.756 325.943C290.146 324.452 286.641 325.401 284.106 328.18C281.72 330.824 281.496 331.909 281.422 339.841C281.422 348.113 281.869 350.689 284.255 355.367L285.747 358.214L296.186 358.214L306.625 358.214L307.595 355.435C308.713 352.248 308.862 348.316 308.042 345.875ZM301.555 347.638C300.884 350.486 298.721 354.689 297.006 356.316C295.217 358.011 293.874 357.943 291.488 355.909C287.536 352.519 285.448 344.994 287.089 339.841C288.133 336.519 289.699 334.689 292.309 333.74C293.651 333.265 293.874 333.265 295.366 333.875C298.199 335.028 301.033 338.892 301.704 342.553C302.151 344.858 302.151 344.926 301.555 347.638Z" fill="#EE3796"/>
<path d="M294.684 280.249C294.087 278.351 290.955 272.249 290.135 271.503C289.911 271.232 289.166 270.418 288.569 269.605C285.885 266.283 282.156 264.384 279.472 265.062C277.086 265.673 275.147 268.317 274.774 271.367C274.625 272.927 274.774 273.469 276.117 275.91C276.937 277.469 277.906 279.164 278.354 279.774L279.099 280.859L279.099 279.029C279.174 276.791 280.665 274.147 282.231 273.605C285.437 272.52 289.613 278.079 289.091 282.893C288.718 286.215 286.108 289.198 284.095 288.723C283.2 288.52 281.336 286.486 277.086 281.062C276.042 279.774 275.147 278.893 275.147 279.164C275.147 279.435 274.625 280.317 274.029 281.062C273.432 281.808 272.91 282.622 272.91 282.757C272.91 283.706 280.889 297.198 285.661 304.249C286.407 305.402 287.451 306.825 287.823 307.503C288.271 308.113 288.718 308.588 288.867 308.588C289.315 308.588 291.179 305.673 291.179 304.927C291.179 304.52 290.881 303.842 290.508 303.368C290.135 302.893 289.464 302.012 289.017 301.334C288.569 300.656 287.078 298.418 285.661 296.317C281.784 290.554 281.784 290.351 285.139 293.537C288.942 297.13 289.613 297.266 291.775 295.029C294.311 292.384 295.131 290.215 295.28 285.944C295.205 283.368 295.056 281.469 294.684 280.249Z" fill="#EE3796"/>
<path d="M293.951 119.844C293.653 118.013 293.354 116.522 293.28 116.454C293.205 116.386 291.639 117.403 289.701 118.623C286.569 120.657 280.38 125.81 278.068 128.318C275.309 131.369 270.09 139.437 270.09 140.657C270.09 142.42 270.612 142.284 271.954 140.183C274.415 136.25 277.845 132.183 281.498 128.793L285.152 125.471L285.376 126.488C285.525 127.098 285.6 128.115 285.674 128.928C285.749 130.216 285.525 130.488 282.393 133.267C280.529 134.894 278.59 136.657 278.068 137.267C276.577 138.894 272.923 143.708 272.029 145.267C270.985 147.233 270.985 148.386 272.029 146.759C273.818 143.979 276.875 140.522 280.156 137.471C284.854 133.064 284.929 133.064 284.929 135.572C284.929 137.606 284.928 137.606 282.542 139.776L280.156 141.945L282.99 139.844C284.556 138.691 287.464 136.725 289.552 135.505C291.714 134.216 293.429 132.928 293.578 132.454C293.727 132.047 293.876 130.284 293.951 128.589C294.026 126.894 294.1 124.928 294.249 124.25C294.324 123.64 294.175 121.674 293.951 119.844Z" fill="#EE3796"/>
<path d="M293.049 140.582C292.453 140.582 286.637 144.175 283.057 146.819C277.017 151.226 272.842 155.361 268.293 161.599C266.205 164.446 266.056 164.65 266.578 164.378C267.398 163.904 267.1 164.514 265.534 166.548C264.714 167.633 264.043 168.785 264.043 169.124C264.043 169.87 265.161 172.446 265.534 172.446C265.683 172.446 266.876 171.09 268.219 169.328C271.276 165.463 280.373 157.192 281.566 157.192C282.088 157.192 282.685 159.497 282.685 161.192C282.685 162.412 282.535 162.751 281.119 163.633C280.224 164.243 277.763 166.209 275.675 168.039L271.872 171.361L275.675 168.582C280.373 165.192 286.04 161.734 289.545 160.039C291.782 158.955 292.303 158.548 292.676 157.531C293.347 155.7 293.198 154.073 292.08 150.48C290.738 146.141 290.812 145.124 292.229 143.972C293.124 143.226 293.347 142.751 293.347 141.734C293.347 141.192 293.198 140.582 293.049 140.582ZM276.719 155.361C274.631 157.056 271.649 159.7 270.083 161.327C268.591 162.887 267.249 164.107 267.175 164.039C266.578 163.497 278.285 152.378 280.448 151.294C282.163 150.48 280.298 152.514 276.719 155.361Z" fill="#EE3796"/>
<path d="M292.299 166.217C292.224 165.471 292.075 164.929 291.926 164.929C291.777 164.929 290.286 165.607 288.571 166.488C277.386 172.183 269.258 178.488 261.802 187.37L259.639 189.878L260.161 192.048L260.683 194.217L263.442 190.895C266.797 186.827 273.21 180.793 277.61 177.675C279.399 176.387 280.965 175.37 281.189 175.37C281.562 175.37 281.562 178.624 281.189 179.776C281.04 180.183 280.07 181.065 278.952 181.878C275.671 184.116 271.197 187.912 268.363 190.827C266.947 192.387 264.411 194.895 262.771 196.522C261.13 198.149 259.341 199.98 258.67 200.59L257.626 201.743L256.88 198.488C256.06 194.76 256.209 194.624 253.003 200.251C249.573 206.353 246.292 213.878 243.607 221.539C242.489 224.861 242.414 225.811 243.458 223.37C243.831 222.556 245.024 220.319 246.143 218.556C247.261 216.658 248.23 214.963 248.23 214.692C248.23 214.217 251.586 208.929 251.884 208.929C251.959 208.929 251.959 209.2 251.81 209.539C251.661 210.014 251.661 210.014 252.108 209.472C255.687 204.726 265.008 195.505 269.184 192.59C270.153 191.98 271.271 191.166 271.644 190.76C273.061 189.607 281.86 184.454 285.066 182.827C287.676 181.607 288.198 181.2 288.198 180.454C288.198 179.98 288.869 179.099 289.913 178.149C290.882 177.268 291.703 176.048 292.001 175.302C292.597 174.082 292.672 168.929 292.299 166.217Z" fill="#EE3796"/>
<path d="M284.325 316.246C283.804 313.94 279.926 306.144 277.465 302.212C277.093 301.669 276.272 300.313 275.601 299.229C273.886 296.517 271.276 294.076 270.083 294.076C268.741 294.076 266.952 295.229 265.908 296.72C265.162 297.873 265.013 298.483 265.013 300.72C265.013 303.161 265.162 303.568 267.101 307.296L269.263 311.229L269.263 308.788C269.263 305.195 270.456 303.364 272.842 303.364C274.259 303.364 275.676 304.652 277.316 307.771C279.33 311.568 279.18 314.89 276.943 317.873C275.974 319.093 275.601 319.364 274.632 319.364C273.364 319.364 271.426 318.212 269.711 316.449C269.114 315.907 268.294 315.025 267.772 314.551C267.25 314.076 265.833 312.652 264.565 311.364L262.328 309.059L260.091 311.025C258.898 312.11 257.854 313.195 257.854 313.33C257.854 313.873 264.715 326.686 266.877 330.144C272.32 338.822 273.812 340.924 274.334 340.788C274.632 340.72 275.452 339.771 276.272 338.618C277.465 336.991 277.614 336.449 277.316 336.042C276.571 335.093 270.605 325.127 269.711 323.364L268.89 321.669L270.68 323.229C271.724 324.042 272.917 325.059 273.439 325.534C273.961 325.941 275.228 326.686 276.272 327.161C278.062 328.11 278.136 328.11 279.628 327.5C281.194 326.822 281.939 326.076 283.356 323.364C284.325 321.601 284.773 318.212 284.325 316.246Z" fill="#EE3796"/>
<path d="M271.574 240.588C270.604 233.944 265.832 222.486 263.52 221.334C262.551 220.859 262.402 220.859 261.731 221.673C260.538 223.096 259.419 227.435 259.419 230.893C259.419 232.588 259.121 236.181 258.823 238.825C258.301 242.893 258.226 244.249 258.674 247.164C259.568 254.351 262.327 260.588 265.534 262.758C268.591 264.927 269.411 263.978 267.92 259.978C267.472 258.893 266.727 255.707 266.205 252.927C265.683 250.08 264.788 245.944 264.266 243.639C262.626 236.588 262.327 231.3 263.446 230.079C263.968 229.401 264.49 229.876 265.459 231.91C267.547 236.181 268.293 243.029 266.95 244.927C266.578 245.469 266.801 246.215 267.845 248.927C269.635 253.605 269.56 253.469 270.455 251.842C271.872 249.402 272.319 245.469 271.574 240.588ZM265.385 254.961C264.564 254.961 262.327 248.181 261.955 244.385L261.805 242.283L262.7 245.402C263.222 247.164 264.117 249.673 264.639 251.096C265.459 253.673 265.757 254.961 265.385 254.961Z" fill="#EE3796"/>
<path d="M268.219 146.484L267.921 144.925L266.952 147.84C265.833 151.162 263.745 158.755 263.447 160.857C263.298 161.603 263.596 160.721 264.193 158.959C264.715 157.128 265.237 155.637 265.386 155.501C265.61 155.298 265.237 159.23 264.939 160.179C264.789 160.586 265.162 160.043 265.833 158.959C266.504 157.806 266.952 156.518 267.026 155.637C267.026 154.891 267.399 153.535 267.772 152.721C268.592 151.23 268.667 149.535 268.219 146.484Z" fill="#EE3796"/>
<path d="M263.821 347.298C263.373 344.789 262.031 340.383 261.36 338.891C257.706 331.433 253.754 326.416 251.294 325.806C248.535 325.196 246.67 327.501 246.298 331.976C246.074 334.62 246.745 336.789 248.982 341.332L249.877 343.094L250.026 340.721C250.324 335.908 252.487 334.077 254.873 336.654C257.706 339.84 259.123 345.942 257.781 349.535C257.035 351.501 255.693 352.789 254.574 352.45C253.829 352.315 251.89 350.484 250.175 348.383C249.504 347.637 248.833 346.755 248.535 346.552C248.311 346.349 247.192 344.925 246.074 343.569C245.03 342.145 243.986 340.993 243.837 340.993C243.539 340.993 241.525 344.315 241.525 344.925C241.525 345.4 244.21 351.298 246.521 355.84L247.789 358.349L250.175 358.349C251.517 358.349 252.561 358.213 252.561 358.145C252.561 358.01 252.114 357.264 251.592 356.518C250.175 354.349 250.473 354.349 252.487 356.45L254.276 358.349L258.452 358.417L262.702 358.417L263.15 356.789C263.746 354.823 264.044 348.993 263.821 347.298Z" fill="#EE3796"/>
<path d="M260.837 269.471C258.749 261.132 255.469 249.946 254.723 248.861C253.754 247.573 251.889 247.641 250.622 248.997C250.1 249.607 249.578 250.014 249.429 250.014C248.832 250.014 249.279 245.743 250.025 244.048C252.486 238.556 253.008 234.149 252.411 224.387L252.113 219.37L251.442 220.454C250.995 221.2 250.771 222.42 250.771 224.251C250.696 225.742 250.473 228.183 250.1 229.742C249.727 231.302 249.354 235.234 249.279 238.556L249.056 244.59L248.31 243.234C247.639 242.014 247.565 241.2 247.639 235.98C247.714 230.353 247.788 230.081 248.683 228.861C249.354 227.98 249.727 226.895 249.876 225.2L250.174 222.759L249.429 223.641C248.236 224.997 243.985 232.522 244.284 232.793C244.433 232.929 244.358 232.997 244.134 232.997C243.911 232.997 243.762 233.404 243.762 233.81C243.762 234.285 243.314 235.709 242.867 237.065C241.748 240.319 241.897 245.607 243.24 248.658C244.582 251.776 247.192 254.082 249.354 254.082C250.025 254.082 250.1 254.285 250.1 255.437C250.1 257.268 249.205 260.183 248.086 262.217C244.134 269.336 243.538 276.997 246.371 284.319C246.968 285.878 248.086 287.98 248.907 288.997C250.547 291.234 253.53 292.929 255.469 292.794C257.258 292.658 258.377 291.234 258.302 289.268C258.227 287.98 256.065 279.166 254.648 274.488C253.455 270.624 251.74 262.285 251.74 260.59C251.74 258.353 252.635 256.726 253.753 256.861C255.021 256.997 255.916 258.488 256.885 262.149C258.078 266.556 258.153 269.539 256.96 271.912L256.065 273.675L256.885 276.116C257.333 277.404 258.078 279.302 258.451 280.183L259.197 281.81L260.464 279.505C261.881 276.726 261.956 274.488 260.837 269.471ZM254.648 283.166C254.052 283.844 254.052 283.844 253.157 282.827C252.635 282.285 251.889 280.726 251.367 279.37C250.622 277.336 250.473 276.183 250.473 272.59C250.473 267.98 250.92 265.132 251.442 266.014C251.591 266.285 252.188 268.454 252.71 270.827C253.231 273.2 254.052 276.251 254.425 277.607C255.319 280.726 255.394 282.285 254.648 283.166Z" fill="#EE3796"/>
<path d="M260.167 180.317C259.571 179.164 259.049 177.808 259.049 177.198L258.974 176.181L258.378 177.401C255.917 182.351 252.711 191.029 250.921 197.469C249.952 201.13 250.026 201.13 251.965 197.469C254.351 193.063 257.632 187.707 259.645 185.13C260.54 183.978 261.286 182.893 261.211 182.69C261.286 182.486 260.764 181.469 260.167 180.317Z" fill="#EE3796"/>
<path d="M260.388 209.806C259.866 210.348 259.419 211.23 259.27 211.772C259.121 212.315 258.599 213.467 258.151 214.281L257.256 215.84L257.107 214.62L256.958 213.399L255.467 215.23L253.976 217.06L254.423 219.23C254.87 221.603 256.511 225.196 257.853 226.552L258.673 227.433L258.524 225.942C258.375 224.857 258.599 223.84 259.27 222.348C260.239 220.111 260.836 216.789 261.059 211.908L261.208 208.857L260.388 209.806Z" fill="#EE3796"/>
<path d="M242.718 299.298C242.271 296.518 238.468 278.417 237.946 276.45L237.648 275.569L237.349 276.586C237.2 277.196 236.678 279.23 236.231 281.196C235.56 284.247 235.485 285.671 235.56 291.773C235.709 295.637 236.007 301.467 236.455 304.722C237.2 311.027 237.051 313.196 235.858 313.4C234.441 313.671 232.503 306.823 232.503 301.874C232.503 300.044 232.801 298.213 233.323 296.654C234.218 293.874 234.218 294.078 233.845 289.061C233.621 285.806 233.472 285.4 233.025 285.806C232.204 286.484 230.713 290.688 230.042 293.942C228.252 302.417 231.31 319.501 235.187 322.688C236.306 323.637 237.797 323.501 238.766 322.417C239.512 321.535 239.586 320.993 239.586 316.857C239.586 314.213 239.139 308.722 238.543 303.84C237.573 295.637 237.2 287.434 237.871 286.01C238.244 285.061 238.468 285.535 239.139 288.722C240.556 295.434 240.929 299.637 240.183 302.145C239.885 303.162 240.034 304.247 240.779 307.501C241.301 309.739 241.823 311.637 241.898 311.705C241.973 311.773 242.345 311.027 242.644 310.01C243.091 308.044 243.166 302.756 242.718 299.298Z" fill="#EE3796"/>
<path d="M239.507 243.233C238.24 244.656 237.419 246.148 236.077 249.741C235.108 252.318 234.362 254.487 234.437 254.555C234.81 254.894 237.792 251.64 238.612 250.012C239.358 248.656 241.148 242.623 241.148 241.606C241.148 241.47 240.402 242.284 239.507 243.233Z" fill="#EE3796"/>
<path d="M236.604 267.365C235.485 271.501 233.621 273.06 232.13 271.026C231.608 270.28 231.459 269.399 231.459 267.094L231.533 264.179L231.011 266.619C230.713 267.975 230.266 270.212 229.967 271.636C229.147 275.501 228.923 278.009 229.147 279.365C229.445 280.789 230.937 282.416 232.055 282.416C234.814 282.416 237.424 275.501 237.349 268.043L237.349 264.924L236.604 267.365Z" fill="#EE3796"/>
<path d="M157.634 355.836C156.963 354.819 156.441 354.006 156.366 354.074C155.994 354.413 157.858 358.142 158.305 358.142C159.051 358.209 158.976 357.938 157.634 355.836Z" fill="#EE3796"/>
<path d="M155.33 5.19144C154.883 4.78466 153.391 4.10672 152.049 3.56434C149.141 2.4118 146.755 1.12363 146.084 0.445663C145.711 0.0388814 145.562 0.174483 145.264 1.25923C144.369 3.97111 144.369 5.19146 145.04 5.80163C145.413 6.14061 147.277 7.08975 149.216 7.90332C151.154 8.71688 153.168 9.73384 153.764 10.0728L154.808 10.7508L155.405 8.71689C155.777 7.63214 156.076 6.54739 156.15 6.344C156.076 6.07281 155.777 5.59822 155.33 5.19144Z" fill="#EE3796"/>
<path d="M150.634 354.279C149.665 352.381 148.696 350.279 148.472 349.669C148.248 348.991 147.95 348.584 147.875 348.652C147.726 348.855 149.665 353.466 151.156 356.381C152.946 359.567 152.498 358.076 150.634 354.279Z" fill="#EE3796"/>
<path d="M149.28 354.356C148.46 352.526 147.416 350.424 147.043 349.678C144.806 345.611 143.688 342.899 143.39 341.611C143.24 340.526 142.942 340.119 142.42 340.119C141.227 340.119 140.854 340.865 141.302 342.356C141.6 343.305 141.6 344.119 141.302 345.136C140.78 347.034 140.78 350.221 141.302 352.051C143.017 357.882 143.091 358.085 144.359 358.085C145.254 358.085 145.477 357.95 145.328 357.475C144.135 353.678 144.135 352.322 145.477 352.594C146.074 352.729 146.223 352.661 145.999 352.051C145.776 351.102 147.714 354.492 148.535 356.594C148.982 357.678 149.355 358.017 149.951 358.017C150.399 358.017 150.772 357.882 150.772 357.746C150.772 357.746 150.1 356.187 149.28 354.356Z" fill="#EE3796"/>
<path d="M148.315 339.165C147.793 338.148 146.302 335.165 145.108 332.588C143.841 330.012 142.573 327.3 142.2 326.622C141.678 325.673 141.38 325.402 140.784 325.402C140.187 325.47 139.963 325.266 139.889 324.385C139.74 323.436 139.591 323.232 138.919 323.232C137.354 323.232 136.757 322.487 136.161 319.436C135.862 317.809 135.266 315.232 134.893 313.741C134.445 312.249 134.147 309.944 134.073 308.724C133.998 306.758 134.147 306.283 135.042 304.927L136.086 303.368L135.415 298.69C134.52 292.046 134.371 291.436 133.998 291.436C133.849 291.436 133.252 292.046 132.805 292.859L131.836 294.283L131.463 293.334C131.09 292.385 131.09 292.385 130.046 294.351C128.256 297.673 128.48 300.859 131.836 316.385C133.7 325.063 134.818 328.114 137.279 330.826C138.323 331.978 138.994 333.198 139.218 334.148C139.441 335.368 139.74 335.707 140.485 335.775C141.007 335.843 141.604 335.639 141.902 335.3C142.275 334.826 142.424 334.961 143.021 336.588C143.915 339.097 143.915 339.029 145.034 338.215C146.451 337.198 146.823 337.334 147.793 339.3C148.315 340.249 148.837 341.131 148.986 341.199C149.433 341.334 149.433 341.334 148.315 339.165Z" fill="#EE3796"/>
<path d="M146.384 26.6196C145.787 25.7383 144.371 24.3823 143.252 23.5688C142.134 22.7552 140.866 21.806 140.493 21.5348C139.748 20.9247 139.748 20.9247 139.077 23.9755L138.629 26.0094L141.164 28.1789C144.072 30.6874 144.818 32.0433 144.818 35.162C144.818 37.8061 143.103 43.0942 141.612 45.1281C139.897 47.4332 136.019 47.7044 135.05 45.6705C134.677 44.9925 134.603 45.2637 134.23 47.2298C133.633 50.3485 133.633 50.6197 134.826 51.501C136.84 53.1281 140.568 52.3146 142.208 49.8739C144.445 46.5519 147.577 35.501 147.577 30.8908C147.428 28.4501 147.279 27.9755 146.384 26.6196Z" fill="#EE3796"/>
<path d="M145.559 -6.39324C145.186 -6.66442 143.769 -7.34241 142.278 -8.02038C139.668 -9.10513 136.76 -11.2746 136.76 -12.0882C136.76 -12.3594 136.312 -12.9695 135.865 -13.4441L134.97 -14.3933L136.685 -20.5628C138.326 -26.3255 138.4 -26.8001 137.804 -27.3425C137.431 -27.6815 137.133 -27.8848 137.058 -27.7492C136.76 -27.4781 131.987 -9.91868 129.974 -2.12204C128.93 1.81017 128.93 2.21695 129.452 2.82712C129.825 3.1661 130.123 3.3695 130.198 3.30171C130.347 3.16611 132.137 -3.20678 133.031 -7.07121C133.479 -9.03731 133.479 -9.03731 134.224 -8.42714C134.672 -8.08816 135.194 -7.34241 135.492 -6.66444C135.79 -6.05427 136.611 -5.17289 137.282 -4.69832C138.549 -3.81696 144.813 -0.9017 144.962 -1.10509C145.037 -1.17289 145.335 -2.25762 145.633 -3.54576C146.08 -5.71526 146.08 -5.98645 145.559 -6.39324Z" fill="#EE3796"/>
<path d="M139.372 60.6592C139.073 60.4558 137.657 59.7101 136.091 59.0321C134.45 58.2863 133.257 57.4728 133.108 56.9982C132.661 55.7101 132.213 57.2016 131.989 60.6592C131.915 62.4219 131.617 64.7949 131.468 65.9474C131.318 67.0999 130.871 69.8796 130.498 72.1847C130.125 74.4898 129.678 77.2017 129.38 78.2186C128.783 80.4559 128.336 83.9813 128.634 83.6424C128.783 83.5068 129.081 82.5576 129.38 81.4051L129.827 79.4389L129.827 81.9474C129.902 84.8627 130.349 86.1509 132.362 88.1848L133.779 89.7441L134.301 88.0492C135.047 85.4051 134.972 84.7271 133.481 83.439C131.244 81.4729 130.498 79.5745 130.722 76.3881C130.871 74.0152 132.437 63.3711 132.735 63.0999C132.81 63.0321 134.152 63.7101 135.867 64.5236L138.924 66.0152L139.372 64.1169C139.894 61.6762 139.894 61.1338 139.372 60.6592Z" fill="#EE3796"/>
<path d="M138.099 18.143C137.204 15.6345 137.279 15.7023 129.673 8.10905C128.704 7.22769 127.883 6.48193 127.809 6.54973C127.66 6.61752 127.361 7.83787 127.063 9.2616C126.467 11.7023 126.467 11.8379 127.138 12.1769C127.511 12.3125 128.331 12.9904 128.927 13.6684C129.598 14.2786 130.941 15.6345 131.91 16.5837C134.669 19.3633 135.638 21.3973 135.638 24.5837C135.713 29.6007 133.625 35.0244 131.388 36.1092C129.449 36.9905 128.405 36.7871 126.467 35.0244C124.677 33.3973 122.664 31.9735 122.44 32.1769C122.366 32.2447 122.142 33.3973 121.918 34.6854L121.471 37.0583L124.155 39.3634C127.212 41.9397 127.958 42.2787 129.748 42.0075C133.327 41.4651 134.893 38.8888 137.204 29.8719C138.621 24.3803 138.919 20.5159 138.099 18.143Z" fill="#EE3796"/>
<path d="M132.449 94.0058C132.002 93.6668 131.48 93.4634 131.256 93.4634C130.436 93.4634 128.646 91.9041 127.975 90.6159L127.304 89.1922L127.006 91.8363C126.856 93.26 126.856 94.616 127.006 94.8871C127.155 95.0905 126.856 98.8872 126.409 103.362C125.962 107.836 125.663 111.769 125.738 112.108C125.813 112.447 126.185 109.599 126.558 105.802C126.931 102.006 127.304 98.4126 127.453 97.8702L127.677 96.921L129.019 97.8702C129.839 98.4126 130.436 98.8194 130.51 98.8872C130.585 98.955 130.063 103.294 129.466 108.582C128.348 117.667 128.348 118.277 128.944 118.684C129.317 118.955 129.69 119.091 129.764 119.023C129.839 118.955 130.137 116.989 130.436 114.616C131.256 108.175 132.896 96.5821 133.12 95.4973C133.344 94.8194 133.195 94.4804 132.449 94.0058Z" fill="#EE3796"/>
<path d="M129.46 49.7983C127.819 49.0525 125.508 47.561 123.643 46.0694C122.003 44.7135 120.586 43.6288 120.512 43.6966C120.437 43.7644 119.915 46.8152 119.393 50.5441C118.871 54.2051 118.2 58.5441 117.976 60.0356C117.305 64.3746 117.38 72.3068 118.051 73.5272C118.946 75.1543 119.99 74.8831 120.884 72.7814C121.332 71.7645 121.779 70.9509 121.854 70.9509C122.003 70.9509 122.227 71.9678 122.301 73.1882C122.599 75.8323 123.643 78.0696 125.358 79.6289L126.626 80.7137L126.85 78.8831C126.999 77.8662 127.223 76.7136 127.297 76.3069C127.446 75.8323 126.999 75.0865 125.806 73.8662C123.793 71.8322 123.42 71.0865 123.121 68.3068C122.972 66.4763 124.389 53.8661 124.911 53.4593C124.986 53.3237 126.402 54.0017 128.117 54.8153L131.1 56.3746L131.324 55.4932C131.473 55.0186 131.697 53.7983 131.846 52.7813L132.069 51.0186L129.46 49.7983ZM122.674 60.239C121.63 67.5611 120.884 70.0018 119.841 69.1882C118.647 68.239 118.797 64.3068 120.512 52.578L120.959 49.6627L122.376 50.8152C123.718 51.9 123.793 52.1034 123.643 53.2559C123.494 54.0017 123.047 57.1203 122.674 60.239Z" fill="#EE3796"/>
<path d="M130.42 262.215C129.749 262.215 127.587 263.436 127.587 263.843C127.587 264.453 127.96 264.385 129.376 263.571C130.42 263.029 131.017 262.215 130.42 262.215Z" fill="#EE3796"/>
<path d="M127.209 291.168C126.762 288.728 126.389 285.948 126.24 285.135C126.091 283.779 125.942 283.711 125.42 284.185C124.898 284.728 124.972 285.27 126.314 290.897C128.179 299.304 128.477 299.372 127.209 291.168Z" fill="#EE3796"/>
<path d="M125.796 142.96C124.753 142.486 123.709 141.808 123.485 141.333L122.963 140.452L123.187 141.469C123.559 142.825 124.007 143.299 125.573 143.91C127.139 144.52 127.586 144.52 127.586 144.045C127.586 143.91 126.766 143.367 125.796 142.96Z" fill="#EE3796"/>
<path d="M125.5 260.662C123.934 260.391 123.412 260.391 123.412 260.73C123.412 261.34 123.86 261.543 125.873 261.747C127.215 261.882 127.588 261.882 127.588 261.475C127.588 261.137 126.842 260.865 125.5 260.662Z" fill="#EE3796"/>
<path d="M126.536 95.7009C126.461 96.0399 126.461 96.5823 126.536 96.9213C126.685 97.2602 126.685 96.9891 126.685 96.3111C126.76 95.6331 126.685 95.2941 126.536 95.7009Z" fill="#EE3796"/>
<path d="M126.172 99.1624C126.097 99.5014 126.097 100.044 126.172 100.383C126.322 100.722 126.322 100.451 126.322 99.7725C126.397 99.0946 126.322 98.8234 126.172 99.1624Z" fill="#EE3796"/>
<path d="M124.386 84.7876C122.82 84.0419 119.241 81.669 117.078 79.9062L115.96 78.9571L115.736 81.1266C115.363 84.1774 113.872 101.737 113.872 103.364C113.872 106.144 114.319 104.178 114.841 98.8894C115.662 90.6859 116.184 85.3978 116.333 85.33C116.407 85.2622 116.929 85.669 117.675 86.1436C118.793 86.9571 118.868 87.1605 118.644 88.2452C117.973 91.4317 117.078 103.771 117.451 104.245C117.6 104.517 117.973 104.584 118.122 104.381C118.271 104.245 118.719 101.059 119.017 97.33C119.39 93.6012 119.763 90.008 119.837 89.2622L120.061 87.9741L121.776 89.0588C122.671 89.6012 123.416 90.2791 123.416 90.4825C123.416 90.7537 122.969 94.008 122.447 97.8046C120.658 110.889 120.658 109.872 121.403 110.415C122.298 111.025 122.447 110.686 123.416 102.957C123.864 99.2961 124.61 93.8724 125.057 90.8893L125.952 85.5334L124.386 84.7876Z" fill="#EE3796"/>
<path d="M125.806 102.764C125.731 103.171 125.731 103.781 125.806 104.12C125.956 104.459 125.956 104.053 125.956 103.307C125.956 102.629 125.881 102.358 125.806 102.764Z" fill="#EE3796"/>
<path d="M125.423 105.88C125.348 106.287 125.348 106.965 125.423 107.44C125.498 107.847 125.573 107.508 125.573 106.626C125.573 105.813 125.498 105.474 125.423 105.88Z" fill="#EE3796"/>
<path d="M124.155 168.722C123.185 168.45 122.44 167.976 122.067 167.433C121.62 166.62 121.545 167.094 121.247 172.857C121.098 176.383 121.023 179.84 121.098 180.45C121.247 181.128 121.321 180.315 121.396 178.552C121.47 175.705 121.992 172.247 122.216 172.993C122.291 173.196 122.365 179.637 122.365 187.23C122.44 199.84 122.514 201.196 123.036 201.806C123.409 202.145 123.857 202.823 124.006 203.23C124.379 204.179 124.751 197.535 125.05 181.806C125.199 176.179 125.348 171.027 125.422 170.349C125.646 169.196 125.646 169.128 124.155 168.722Z" fill="#EE3796"/>
<path d="M125.423 231.499C125.274 229.465 125.2 229.329 124.23 229.126C123.186 228.923 123.186 228.855 122.963 225.533C122.814 223.702 122.59 217.736 122.441 212.312C122.292 206.685 121.993 201.94 121.77 201.194C121.546 200.516 121.248 196.923 121.099 193.194C120.949 189.465 120.949 195.295 121.024 206.143C121.099 217.058 121.099 225.804 121.024 225.736C120.949 225.668 120.577 220.855 120.278 215.024C119.309 199.228 119.085 196.719 118.414 195.973C118.041 195.567 117.818 194.685 117.743 193.465C117.743 192.177 117.594 191.838 117.445 192.312C117.147 192.855 117.072 192.719 116.848 191.431C116.475 189.058 115.879 174.55 115.879 169.465C115.879 165.058 115.879 164.99 116.625 165.6C117.37 166.211 117.37 166.211 117.37 164.109C117.37 161.261 116.923 160.38 115.282 159.702C114.537 159.431 113.866 159.16 113.791 159.16C113.493 159.16 113.642 181.872 113.94 186.753C114.238 191.295 114.313 191.77 115.208 192.719C116.252 193.872 116.177 193.058 117.221 209.397C117.967 221.804 118.041 221.397 116.923 221.262C116.028 221.126 116.028 220.923 115.581 216.719C115.059 211.634 114.835 208.516 114.388 199.431C114.015 193.194 113.418 189.736 112.896 191.092C112.747 191.431 112.598 187.567 112.598 182.55C112.523 177.533 112.449 169.261 112.3 164.109L112.076 154.753L111.032 153.804L109.988 152.855L109.765 153.804C109.615 154.482 109.466 154.278 109.466 152.855C109.466 151.295 109.317 150.821 108.646 150.482C107.9 150.075 107.9 150.143 107.9 151.702C107.9 154.143 108.87 165.397 109.765 174.007C110.51 180.719 111.107 184.312 111.48 183.973C111.554 183.906 111.33 179.973 111.032 175.228C110.659 170.414 110.361 165.329 110.286 163.77C110.212 162.211 110.137 160.041 109.988 158.888C109.839 157.736 109.839 157.058 109.988 157.329C110.137 157.6 110.361 158.143 110.51 158.549C110.734 158.956 111.032 163.566 111.256 168.787C111.48 174.007 111.852 180.041 112.002 182.143C112.225 184.244 112.374 186.346 112.374 186.821C112.374 187.634 112.374 187.634 112.002 186.956C111.703 186.414 111.703 186.617 111.852 187.634C111.927 188.38 112.225 192.041 112.523 195.77C112.896 200.584 113.12 202.075 113.269 200.99C113.418 200.109 113.418 201.262 113.418 203.431C113.344 206.007 113.344 207.092 113.642 206.55C113.866 206.007 113.866 206.821 113.791 208.99C113.717 210.821 113.791 212.109 113.94 211.838C114.089 211.634 114.238 212.923 114.313 214.821C114.313 216.651 114.686 220.245 115.059 222.753L115.804 227.296L117.892 227.906C119.533 228.38 120.055 228.719 120.129 229.329C120.204 229.736 120.577 230.279 121.024 230.414C121.621 230.685 121.77 231.16 121.77 232.516C121.77 234.279 122.441 235.296 123.559 235.296C123.932 235.296 124.603 235.431 125.051 235.499C125.796 235.702 125.871 235.635 125.796 234.55C125.647 234.143 125.498 232.651 125.423 231.499ZM112.822 196.651C112.747 195.906 112.747 194.685 112.822 193.872C112.896 193.058 112.971 193.6 112.971 195.16C112.971 196.719 112.896 197.397 112.822 196.651Z" fill="#EE3796"/>
<path d="M125.131 109.259C124.832 110.073 124.758 112.174 124.982 112.174C125.131 112.174 125.28 111.429 125.28 110.547C125.28 109.666 125.205 109.056 125.131 109.259Z" fill="#EE3796"/>
<path d="M123.41 5.3271C123.261 4.37794 122.814 2.88642 122.441 2.07286C122.143 1.2593 121.845 0.242351 121.845 -0.16443C121.77 -1.11359 120.875 -2.19834 118.936 -3.21529L117.371 -4.09668L116.849 -1.58819C116.625 -0.232252 116.327 0.988092 116.327 1.12369C116.327 1.25928 117.147 1.86945 118.191 2.47962C120.055 3.63217 120.13 3.63217 120.95 6.88642C122.068 10.9542 122.068 12.7847 121.099 17.7339C119.906 24.039 118.787 26.6153 117.371 26.6153C116.849 26.6153 116.55 26.2763 116.401 25.4628C116.252 24.5814 115.73 24.039 114.388 23.2255C113.419 22.6153 112.524 22.2085 112.449 22.2763C112.375 22.3441 112.076 23.4967 111.853 24.9204L111.405 27.4289L112.524 28.1068C114.388 29.1238 115.357 30.0729 115.581 31.1577C115.73 31.9034 116.028 32.1746 116.699 32.1746C118.564 32.1746 119.533 30.2763 121.024 24.1746C123.038 16.1746 124.007 8.44575 123.41 5.3271Z" fill="#EE3796"/>
<path d="M122.589 137.599C122.291 137.464 121.247 136.854 120.203 136.311C119.159 135.769 117.891 134.888 117.369 134.345C116.847 133.803 115.58 132.989 114.536 132.447C112.895 131.566 112.746 131.566 112.895 132.108C112.97 132.447 113.865 133.193 114.909 133.667C115.952 134.21 117.145 135.023 117.667 135.633C118.115 136.176 119.308 136.921 120.203 137.26C121.097 137.599 122.141 138.142 122.514 138.413C123.111 138.888 123.185 138.888 123.185 138.413C123.036 138.142 122.812 137.735 122.589 137.599Z" fill="#EE3796"/>
<path d="M122.674 255.161C122.524 254.822 121.555 254.212 120.586 253.941C119.02 253.398 118.796 253.33 118.945 253.805C119.02 254.076 119.766 254.619 120.735 254.89C121.63 255.229 122.525 255.703 122.748 255.974C123.121 256.585 123.121 256.11 122.674 255.161Z" fill="#EE3796"/>
<path d="M116.401 39.8413C115.431 39.0278 114.536 37.943 114.387 37.4006C114.014 36.1125 113.567 35.6379 111.927 34.8921L110.51 34.2141L110.286 35.1633C110.137 35.7057 109.913 37.6718 109.69 39.5701C109.466 41.4684 109.093 44.0447 108.944 45.2651C108.198 49.5363 107.9 56.5193 108.198 59.4346C108.571 62.2142 109.839 66.0787 110.51 66.0787C110.659 66.0787 110.957 65.2651 111.181 64.2482C111.479 62.6211 111.554 62.621 111.628 63.638C111.703 65.4007 112.523 68.0448 113.567 69.8753C114.462 71.3668 114.462 71.4346 114.76 70.5533C114.909 70.0787 115.058 68.8584 115.058 67.8414C115.133 66.4177 114.909 65.7397 114.089 64.7227C112.448 62.4176 112.15 59.7736 112.97 52.8583C113.343 49.5362 113.716 46.1464 113.865 45.3328L114.089 43.9091L115.729 45.1295C116.624 45.8074 117.444 46.2142 117.519 46.0786C117.668 45.943 117.817 44.7905 117.966 43.5701L118.265 41.265L116.401 39.8413ZM112.747 50.0786C111.927 56.7227 111.405 60.2482 111.032 60.5194C110.51 60.9939 110.062 58.4854 110.062 55.638C110.062 51.8413 111.181 41.5362 111.628 41.0616C112.15 40.5193 113.492 41.8752 113.492 42.96C113.492 43.4345 113.12 46.621 112.747 50.0786Z" fill="#EE3796"/>
<path d="M117.072 181.399C116.997 182.009 116.997 183.161 117.072 183.839C117.147 184.585 117.222 184.11 117.222 182.755C117.222 181.399 117.147 180.788 117.072 181.399Z" fill="#EE3796"/>
<path d="M112.526 75.3612C111.557 74.6155 110.513 73.5307 110.14 72.9206C109.767 72.3104 108.947 71.4968 108.127 71.0222L106.71 70.2765L106.486 73.5307C106.337 75.2934 106.113 81.124 105.964 86.4799C105.741 96.0393 105.741 96.2426 106.486 96.5816C107.232 96.9884 107.232 96.8528 107.53 87.1579C107.679 81.8019 107.903 77.2596 107.978 77.124C108.052 76.9884 108.5 77.0561 108.947 77.2595C109.693 77.6663 109.767 77.8019 109.469 84.9884C109.32 88.9884 109.096 93.124 109.022 94.141C108.872 95.2257 108.947 95.9715 109.171 95.9715C109.394 95.9715 109.693 92.7172 109.842 87.9036C109.991 83.4968 110.215 79.768 110.289 79.7002C110.364 79.6324 111.035 80.0392 111.78 80.5816C113.123 81.5307 113.197 81.5307 112.973 83.6324C112.526 88.107 112.228 102.073 112.601 102.277C112.824 102.412 113.123 98.7512 113.421 92.3783C113.645 86.8189 113.943 80.9884 114.092 79.4969L114.316 76.7172L112.526 75.3612Z" fill="#EE3796"/>
<path d="M110.951 127.501C109.981 126.823 109.012 125.873 108.639 125.195C108.266 124.314 107.595 123.772 106.178 123.094C103.643 121.941 103.569 122.755 106.029 124.043C107.222 124.585 108.117 125.331 108.639 126.212C109.459 127.568 112.666 129.873 112.666 129.06C112.74 128.856 111.92 128.111 110.951 127.501Z" fill="#EE3796"/>
</g>
</g>
<defs>
<clipPath id="clip0_196_45849">
<rect width="732.416" height="546.893" fill="white" transform="matrix(4.37114e-08 1 1 -4.37114e-08 104 -374)"/>
</clipPath>
</defs>
</svg>
