<svg width="354" height="358" viewBox="0 0 354 358" fill="none" xmlns="http://www.w3.org/2000/svg">
<g clip-path="url(#clip0_237_44865)">
<path d="M545.849 -367.687C545.551 -367.416 543.836 -365.518 542.046 -363.348L538.765 -359.416L533.769 -360.569C516.545 -364.501 488.209 -369.179 470.761 -370.942C465.989 -371.416 460.844 -371.958 459.352 -372.162C457.936 -372.297 451.523 -372.84 445.259 -373.247C435.491 -373.925 430.644 -373.992 411.705 -373.992C384.712 -374.06 378.672 -373.721 356.451 -371.145C348.249 -370.196 345.341 -369.721 332.814 -367.484C313.277 -364.026 290.236 -357.586 272.564 -350.738C269.88 -349.653 266.226 -348.297 264.586 -347.619C260.634 -346.06 242.887 -337.992 241.47 -337.111C240.874 -336.704 240.352 -336.433 240.277 -336.433C239.755 -336.433 227.526 -329.585 221.114 -325.789C214.403 -321.721 203.292 -314.467 198.371 -310.806C182.041 -298.806 170.707 -289.314 157.285 -276.501C148.337 -267.89 147.368 -266.873 138.569 -257.585C129.472 -247.958 119.704 -236.636 109.786 -224.161C108.966 -223.144 107.997 -221.924 107.698 -221.517C107.4 -221.11 105.834 -219.077 104.268 -216.975C100.764 -212.365 94.7985 -204.093 93.9037 -202.738C93.0089 -201.382 88.6096 -195.009 87.8639 -193.992C87.4911 -193.517 86.5217 -191.958 85.6269 -190.534C84.7321 -189.11 83.3154 -186.941 82.5697 -185.721C80.9293 -183.212 78.1703 -178.805 73.5472 -171.144C70.0426 -165.449 62.3623 -151.619 59.1559 -145.178C57.9629 -142.805 56.3224 -139.551 55.5022 -137.992C54.682 -136.432 54.0109 -135.076 54.0109 -134.941C54.0109 -134.873 53.4889 -133.788 52.8924 -132.568C51.6247 -129.992 47.8965 -121.924 47.1508 -120.161C46.8526 -119.483 46.4051 -118.466 46.1814 -117.924C45.1375 -115.754 41.4837 -107.008 39.8433 -102.873C38.9485 -100.5 37.7554 -97.5846 37.308 -96.4321C36.4878 -94.3304 34.4746 -88.9744 31.5665 -80.8388C26.5705 -67.0082 20.0087 -44.7708 15.9076 -27.8217C15.0874 -24.364 14.118 -20.4995 13.8197 -19.1436C13.5214 -17.7877 12.7758 -14.6691 12.2538 -12.2284C11.7319 -9.71988 11.1354 -7.008 10.9862 -6.19443C10.8371 -5.31308 10.0168 -1.44867 9.27119 2.48355C8.52552 6.41577 7.77992 10.4836 7.55622 11.6361C6.13946 19.026 3.75331 36.1786 2.85852 45.399C2.48569 48.721 2.03825 52.9244 1.88912 54.7549C0.323234 67.7719 -0.496974 103.026 0.323254 123.501C1.36718 150.416 4.87183 190.213 8.00361 211.705C9.42036 221.264 11.4336 233.603 12.1793 237.671C12.6267 239.84 13.2978 243.976 13.6706 246.823C14.7891 254.417 16.5787 265.332 17.4735 269.535C20.5307 284.044 21.7238 289.332 24.1099 298.485C24.6318 300.383 25.2284 303.027 25.4521 304.383C28.0619 319.027 33.4307 340.451 38.5012 355.976L39.2468 358.281L47.0016 358.281C51.3265 358.281 54.8311 358.146 54.8311 358.01C54.8311 357.807 54.2346 356.79 53.489 355.637C51.1774 352.247 43.7953 338.417 40.6635 331.705C39.0231 328.247 37.7555 325.332 37.7555 325.197C37.7555 325.061 37.3081 324.18 36.8607 323.163C35.593 320.586 34.4746 317.129 34.1763 315.095C34.0272 314.146 33.8034 312.654 33.5797 311.773C33.2069 310.213 31.0446 295.976 29.9261 287.841C29.4787 284.451 28.211 273.468 26.7197 260.451C25.8995 253.196 24.3336 232.789 23.6625 220.789C22.6186 202.484 22.8423 159.84 24.0353 145.603C24.1845 143.162 24.7064 137.874 25.0046 133.806C27.3907 104.857 34.4746 68.4499 44.2427 34.6871C47.971 21.7379 50.2826 14.2124 54.3092 1.94119C61.4675 -19.686 72.0559 -47.2793 79.3634 -63.3472C80.1836 -65.2455 81.5258 -68.1608 82.2715 -69.7879C83.0171 -71.415 84.1356 -73.7201 84.7322 -74.9405C85.3287 -76.1608 85.8507 -77.1778 85.8507 -77.3134C85.8507 -77.4489 86.298 -78.2625 92.3379 -90.127C94.724 -94.6693 96.7373 -98.6016 96.8864 -98.805C97.0355 -98.9406 98.4523 -101.381 100.018 -104.161C107.4 -117.11 112.322 -124.771 120.375 -135.619C124.178 -140.771 131.038 -149.449 131.858 -150.263C132.007 -150.398 132.529 -151.076 133.2 -151.822C134.468 -153.449 143.863 -163.687 144.758 -164.5C145.131 -164.839 146.92 -166.602 148.784 -168.5C154.824 -174.534 168.321 -186.602 175.703 -192.568C177.194 -193.788 178.685 -194.941 178.909 -195.144C180.475 -196.432 191.213 -204.365 193.45 -205.856C194.27 -206.399 195.09 -206.941 195.165 -207.009C195.314 -207.212 200.161 -210.534 202.994 -212.365C206.946 -214.941 213.06 -218.805 214.403 -219.551C215.223 -220.026 217.534 -221.382 219.548 -222.466C236.4 -232.433 258.248 -241.992 278.455 -248.229C294.636 -253.246 314.172 -256.975 331.621 -258.331C340.345 -259.009 356.973 -259.348 366.667 -259.009C376.733 -258.602 394.778 -257.246 399.923 -256.5C401.713 -256.229 405.739 -255.687 409.02 -255.28C420.727 -253.856 442.65 -249.789 457.414 -246.331C469.493 -243.483 482.02 -240.297 482.393 -239.958C482.468 -239.89 482.095 -238.06 481.573 -235.89C479.038 -224.907 476.875 -209.856 475.31 -192.907C473.818 -176.093 473.595 -170.127 473.818 -140.432C474.191 -80.093 473.967 21.8056 473.52 36.2463C472.551 64.7888 472.327 71.2973 471.954 73.4668C471.208 77.5346 468.971 95.9754 467.406 109.67C466.585 117.128 465.765 124.518 465.467 126.145L465.019 129.128L460.918 127.908C428.706 118.348 393.511 109.942 366.592 105.331C362.193 104.586 357.793 103.772 356.899 103.569C354.811 103.162 340.494 101.06 333.261 100.111C287.627 94.2127 247.734 94.7551 220.07 101.738C206.797 105.06 194.344 110.416 186.813 116.179C184.427 117.942 178.76 123.026 177.045 124.925C167.202 135.704 162.654 145.535 159.149 163.162C158.702 165.332 158.105 167.501 157.807 168.111C157.509 168.654 156.763 170.755 156.017 172.857C155.346 174.891 154.079 178.349 153.184 180.383C151.693 183.84 150.798 186.077 148.486 193.061C148.039 194.281 147.368 196.789 146.92 198.552C146.473 200.383 145.653 202.823 145.056 204.044C142.446 209.467 138.494 220.925 137.227 226.62C136.854 228.247 136.183 230.281 135.735 231.23C134.542 233.603 131.261 242.891 129.77 247.637C127.608 254.823 125.669 264.451 124.774 272.451C124.103 278.078 124.103 303.095 124.774 308.993C125.669 316.925 127.831 327.637 130.068 335.095C131.411 339.773 134.841 349.603 135.735 351.434C136.034 352.044 136.705 353.671 137.301 355.163L138.345 357.807L218.578 357.807C262.722 357.807 298.662 357.671 298.439 357.536C298.29 357.4 295.531 355.773 292.399 354.01C285.837 350.281 270.476 340.858 268.389 339.23C268.239 339.095 267.195 338.417 266.226 337.807C265.257 337.197 264.213 336.519 263.915 336.315C263.616 336.044 261.678 334.688 259.59 333.264C257.502 331.841 255.19 330.213 254.445 329.603C253.699 329.061 252.282 327.976 251.387 327.366C250.418 326.688 249.001 325.603 248.107 324.925C247.286 324.247 245.571 322.891 244.304 321.942C234.237 314.349 215.297 297.061 209.407 290.078C208.885 289.535 208.437 288.993 208.288 288.857C207.543 288.247 201.055 280.722 197.924 276.722C195.91 274.145 193.748 271.434 193.151 270.688C190.914 267.84 184.651 258.349 181.444 252.925C178.014 247.095 172.646 236.45 171.527 233.128C171.154 232.112 170.632 230.756 170.334 230.213C168.544 226.417 164.816 213.942 163.399 206.891L162.803 203.637L164.518 202.213C170.334 197.467 180.028 191.84 188.528 188.315C195.463 185.399 207.17 182.077 214.999 180.857C227.675 178.823 230.882 178.552 246.839 178.62C261.305 178.62 262.274 178.688 272.191 179.705C284.942 181.06 297.246 182.959 307.088 184.993C324.015 188.518 335.125 191.23 349.74 195.298C355.78 196.993 369.724 201.128 374.123 202.62C375.242 203.027 378.896 204.179 382.102 205.196C387.843 207.027 395.822 209.739 404.248 212.586C413.494 215.84 434.074 223.501 439.592 225.874C440.86 226.417 442.128 226.891 442.277 226.891C443.097 226.891 443.022 227.637 441.68 231.434C437.728 242.891 436.833 245.332 434.224 252.179C432.658 256.247 430.346 262.01 429.228 264.79C428.035 267.637 426.692 271.095 426.17 272.383C425.574 273.739 424.903 275.434 424.53 276.179C424.157 276.925 423.411 278.756 422.815 280.179C422.218 281.603 421.622 282.959 421.473 283.095C421.324 283.298 420.727 284.654 420.131 286.01C419.534 287.434 418.714 289.4 418.192 290.349C417.67 291.298 416.626 293.603 415.806 295.366C414.091 299.027 406.485 311.637 402.608 317.197C402.16 317.874 400.743 319.908 399.55 321.807C396.941 325.739 387.993 338.078 385.979 340.586C385.159 341.536 384.041 342.959 383.444 343.705C379.79 348.315 375.987 352.79 372.781 356.315L371.514 357.671L386.501 357.671L401.489 357.671L404.099 352.247C406.932 346.281 413.42 331.637 414.24 329.468C414.464 328.722 414.836 327.976 414.986 327.773C415.135 327.637 415.731 326.146 416.328 324.451C416.924 322.824 417.595 321.061 417.894 320.451C419.534 317.061 428.258 292.654 431.614 281.671C431.912 280.722 432.583 278.891 433.105 277.535C433.702 276.247 435.417 271.773 436.983 267.637C438.548 263.569 440.04 259.705 440.189 259.162C441.68 255.366 447.198 240.247 448.689 235.976C449.659 233.128 450.628 230.688 450.777 230.552C451.076 230.281 454.655 231.705 467.555 237.264C470.164 238.349 473.669 239.908 475.31 240.586C486.122 245.128 520.198 260.857 536.976 268.993C542.121 271.501 546.52 273.535 546.595 273.535C546.744 273.535 546.744 247.23 546.744 215.027L546.744 156.518L545.327 155.908C543.239 155.094 530.116 150.348 525.194 148.586C522.883 147.772 518.558 146.213 515.501 145.128C509.61 143.094 500.438 139.976 490.521 136.721C487.166 135.637 484.258 134.62 484.108 134.484C483.959 134.348 484.407 132.45 485.152 130.281C488.657 120.314 497.307 96.5178 497.53 96.1788C497.679 96.0432 498.201 94.8229 498.574 93.6025C499.022 92.3822 500.14 89.3991 501.109 87.0262C505.583 75.6363 506.702 72.9244 507.075 72.3143C507.224 71.9075 508.044 70.1448 508.79 68.3143C509.535 66.4838 510.803 63.3651 511.698 61.399C516.545 50.2125 517.29 48.4498 521.019 40.1108C521.764 38.4159 522.659 36.4497 523.032 35.9074C523.33 35.2972 524.001 33.8057 524.523 32.5854C525.045 31.365 525.865 29.4667 526.462 28.3819C526.984 27.2972 527.357 26.1446 527.282 25.8735C527.133 25.6023 527.208 25.4667 527.431 25.6023C527.655 25.7379 527.953 25.4667 528.102 24.9921C528.252 24.5175 528.774 23.365 529.221 22.4836C529.668 21.5345 530.414 19.9073 530.936 18.8904C531.383 17.8734 532.054 16.3819 532.427 15.5683C532.8 14.7548 533.62 12.9921 534.217 11.5683C534.888 10.1446 536.901 5.87339 538.691 2.07676C540.555 -1.71984 542.643 -6.26223 543.463 -7.95715C544.283 -9.65209 545.327 -11.9572 545.924 -13.1097L546.893 -15.1436L546.893 -191.348C546.446 -343.958 546.371 -368.026 545.849 -367.687Z" fill="#FFC906"/>
<path d="M382.325 193.605C382.027 192.656 381.505 191.91 381.132 191.774C379.193 191.232 371.214 188.723 370.543 188.452C370.096 188.317 368.605 187.774 367.113 187.368C365.697 186.961 364.205 186.554 363.982 186.418C363.609 186.283 363.609 186.554 363.982 187.368C364.727 188.995 364.429 189.605 362.192 190.69C360.402 191.639 359.88 191.707 356.376 191.639C353.095 191.639 352.051 191.503 349.143 190.554C345.265 189.334 341.91 187.571 339.449 185.469C337.063 183.503 334.155 180.181 334.304 179.503C334.379 179.164 334.901 178.622 335.423 178.215C336.392 177.605 336.989 177.537 341.463 177.537C346.533 177.605 348.621 177.944 355.183 179.842L357.047 180.384L356.749 178.012C356.599 176.723 356.376 175.435 356.301 175.164C356.078 174.554 354.213 174.012 349.367 172.859C343.327 171.503 336.69 169.062 334.901 167.571C330.65 164.045 343.849 164.927 352.573 168.656C355.705 170.012 358.464 171.978 358.464 172.927C358.464 173.266 359.88 173.808 362.565 174.554C364.802 175.164 368.828 176.317 371.513 177.062C374.197 177.808 376.509 178.351 376.583 178.283C376.881 177.944 375.614 175.639 374.346 174.215C371.214 170.622 361.67 166.079 350.261 162.689C337.063 158.757 322.001 157.334 317.229 159.571C312.68 161.673 314.097 163.842 322.448 167.774L327.146 169.944L323.79 170.351C320.137 170.825 318.422 171.3 316.557 172.384C314.768 173.469 314.395 174.554 315.141 176.52C316.856 181.13 321.404 188.249 323.045 188.859C323.492 188.995 325.878 189.673 328.264 190.215C340.941 193.266 361.297 199.029 373.153 202.825C374.495 203.3 375.017 203.3 375.912 202.961C377.553 202.351 381.132 199.096 381.952 197.401C383.07 195.639 383.07 195.707 382.325 193.605Z" fill="#EE3796"/>
<path d="M375.017 150.756C374.495 150.214 371.959 149.468 365.547 147.977C360.775 146.824 356.599 145.875 356.45 145.875C356.226 145.875 356.301 146.011 356.524 146.282C357.195 146.892 357.121 148.451 356.301 149.061C351.603 152.926 334.676 149.536 328.86 143.57C327.22 141.875 326.549 140.451 327.294 139.773C328.189 138.96 338.479 140.044 345.488 141.672C347.054 142.078 348.397 142.35 348.471 142.282C348.546 142.214 348.322 140.994 348.098 139.502C347.651 136.451 348.247 136.858 342.357 135.638C333.707 133.875 327.294 130.349 327.294 127.434C327.294 126.417 327.369 126.417 330.128 126.011C334.154 125.4 344.146 127.773 348.397 130.282C350.783 131.705 351.23 132.18 351.23 133.4C351.23 134.146 351.081 134.078 356.524 135.299C360.402 136.18 367.113 137.739 368.455 138.146C369.648 138.485 369.275 136.18 367.784 134.282C365.92 131.909 362.117 128.451 359.805 127.095C355.629 124.519 348.546 121.807 342.655 120.519C337.435 119.366 328.413 118.214 324.237 118.214C317.601 118.214 311.635 119.638 309.026 121.875C307.907 122.824 307.758 123.163 307.982 124.044C308.802 127.095 312.53 131.027 316.855 133.265L319.167 134.417L313.649 135.163C310.592 135.57 307.982 135.977 307.833 136.044C307.236 136.587 307.758 139.231 308.877 141.129C312.754 148.18 325.579 154.553 343.401 158.417C352.199 160.316 354.586 160.655 360.327 160.655C364.876 160.655 365.77 160.519 368.306 159.706C371.885 158.553 373.898 157.265 374.868 155.638C375.911 153.807 375.911 151.638 375.017 150.756Z" fill="#EE3796"/>
<path d="M369.343 108.859C369.268 108.385 369.044 108.046 368.97 108.046C368.821 108.046 366.658 107.639 364.123 107.164C359.724 106.351 351.074 104.927 350.552 104.927C350.403 104.927 350.403 105.605 350.403 106.486C350.701 109.198 348.613 111.436 345.034 112.249C340.709 113.198 331.537 111.978 326.616 109.741C320.427 106.961 318.19 101.808 322.44 100.046C323.335 99.7068 323.932 99.3678 323.857 99.3678C320.8 98.961 313.12 98.2152 308.646 97.8085L302.755 97.2661L301.86 98.2152C301.04 99.0288 300.965 99.3678 301.115 101.469C301.711 108.385 306.856 111.368 324.305 114.825C339.292 117.876 353.311 119.842 358.978 119.842C363.75 119.842 366.584 118.419 368.299 115.232C369.119 113.334 369.715 110.351 369.343 108.859Z" fill="#EE3796"/>
<path d="M285.525 171.978C284.63 168.046 283.511 163.775 282.393 159.165C280.603 152.317 279.858 148.182 279.187 140.046C278.739 135.029 278.441 133.537 277.844 132.317C277.248 131.232 276.95 129.741 276.651 126.08C276.428 123.503 275.98 120.656 275.757 119.775C275.458 118.893 275.011 116.927 274.787 115.3C274.489 113.673 274.042 111.436 273.743 110.351C273.445 109.266 272.998 105.876 272.699 102.893C272.401 99.8424 272.028 97.1305 271.879 96.8593C271.73 96.5203 271.283 96.3169 270.91 96.3169C270.388 96.3169 270.239 96.4525 270.388 96.8593C270.537 97.1983 270.91 99.9101 271.208 102.825C271.506 105.808 272.028 109.063 272.327 109.944C272.625 110.893 273.072 113.198 273.296 114.961C273.52 116.792 273.967 119.029 274.265 119.978C274.563 120.927 275.011 123.639 275.16 126.012C275.384 128.927 275.831 130.826 276.353 132.046C276.95 133.266 277.248 135.029 277.472 138.487C277.919 144.046 279.559 154.283 280.529 157.944C283.139 167.097 284.257 172.927 284.257 178.148C284.257 181.266 284.332 181.47 285.003 181.47C285.748 181.47 285.748 181.266 285.748 177.063C285.674 174.622 285.599 172.317 285.525 171.978Z" fill="#EE3796"/>
<path d="M267.646 350.429C266.006 347.446 264.291 345.548 260.861 343.107C256.983 340.395 253.702 339.039 250.72 339.039C248.557 339.039 248.035 339.175 246.619 340.056C244.605 341.345 243.263 343.582 243.934 344.328C244.158 344.599 245.798 345.819 247.439 346.972L250.496 349.141L251.167 348.124C252.584 346.023 255.194 345.955 257.878 347.921C260.115 349.548 261.159 351.379 260.935 353.073C260.413 356.531 256.909 357.006 252.808 354.158C251.913 353.48 250.944 353.006 250.794 353.006C250.422 353.006 249.229 355.785 249.229 356.599C249.229 358.023 250.123 358.158 259.593 358.226C269.809 358.226 269.063 358.497 269.063 354.972C268.989 353.277 268.765 352.395 267.646 350.429Z" fill="#EE3796"/>
<path d="M244.082 356.18C242.74 355.163 241.174 353.942 240.503 353.468C239.906 352.993 239.31 352.654 239.235 352.654C238.49 352.654 238.266 357.739 239.012 358.078C239.31 358.214 241.099 358.214 243.038 358.146L246.468 358.01L244.082 356.18Z" fill="#EE3796"/>
<path d="M241.911 333.944C241.687 333.063 240.867 331.232 240.121 329.809C238.332 326.622 233.411 321.944 229.757 319.91C227.371 318.622 227.147 318.554 224.015 318.554C220.883 318.554 220.66 318.622 218.87 319.775C217.603 320.588 216.633 321.605 215.887 322.893C214.918 324.521 214.844 325.063 214.993 327.029L215.142 329.266L218.497 332.317L221.853 335.368L221.704 333.131C221.629 331.91 221.704 330.351 222.002 329.673C222.971 326.961 226.028 325.402 228.564 326.351C231.099 327.3 233.56 330.012 234.231 332.385C234.902 335.232 232.963 339.3 230.13 340.588C228.638 341.334 228.34 341.334 226.327 340.927C224.239 340.521 216.782 337.47 215.515 336.521C215.216 336.249 214.545 335.978 214.098 335.843C213.427 335.707 213.203 335.775 212.979 336.385C212.83 336.86 212.308 337.741 211.786 338.487L210.892 339.775L213.501 342.419C214.918 343.91 219.318 347.978 223.27 351.571L230.428 358.08L233.038 358.08C235.275 358.08 235.722 357.944 236.095 357.402C236.244 356.995 236.468 356.588 236.468 356.453C236.468 356.317 233.56 353.605 229.981 350.487C226.401 347.436 223.642 344.86 223.717 344.86C223.792 344.86 224.537 345.131 225.357 345.538C227.52 346.555 231.77 347.639 233.485 347.639C235.797 347.639 237.81 346.554 239.301 344.385C241.837 341.266 242.731 337.402 241.911 333.944Z" fill="#EE3796"/>
<path d="M238.861 160.729C238.413 157 238.041 153.949 237.966 153.881C237.817 153.746 230.584 154.288 226.93 154.695L224.991 154.898L225.29 157.339C225.439 158.695 225.588 161.678 225.588 163.848L225.588 167.915L224.395 168.051C211.57 169.949 203.218 171.848 196.656 174.288C194.867 174.899 192.779 175.644 192.033 175.915C190.691 176.322 189.498 177.814 189.796 178.627C189.871 178.831 191.66 178.356 193.748 177.61C205.604 173.339 222.978 170.221 237.369 169.543C239.383 169.475 239.457 169.407 239.532 168.458C239.532 167.983 239.234 164.458 238.861 160.729Z" fill="#EE3796"/>
<path d="M237.004 145.468C236.855 144.451 236.333 140.451 235.886 136.654C234.767 127.502 234.991 128.247 233.5 128.383C229.92 128.79 223.806 129.603 223.209 129.739C222.613 129.874 222.613 130.417 222.687 133.942C222.762 136.18 223.06 139.569 223.433 141.468C224.253 146.281 224.402 145.942 221.494 146.485C213.739 147.705 201.883 150.959 195.769 153.536C193.979 154.281 193.532 154.62 193.234 155.569C193.01 156.18 192.936 156.722 192.936 156.79C193.01 156.858 193.83 156.519 194.874 156.112C201.436 153.468 212.024 150.756 221.569 149.4C226.192 148.722 234.618 147.841 236.93 147.841C237.153 147.841 237.377 147.705 237.377 147.569C237.302 147.434 237.153 146.485 237.004 145.468Z" fill="#EE3796"/>
<path d="M233.71 119.299C233.635 119.164 233.114 115.435 232.666 111.232C232.144 106.96 231.622 103.435 231.548 103.299C231.398 103.164 220.81 104.927 220.288 105.266C220.139 105.401 220.139 106.418 220.288 107.706C220.736 110.96 221.78 120.994 221.63 121.13C221.556 121.198 218.946 121.808 215.814 122.554C206.493 124.791 194.041 129.333 193.37 130.757C193.221 131.096 193.221 131.435 193.221 131.435C193.295 131.503 194.19 131.164 195.234 130.689C204.107 126.757 216.336 123.503 229.236 121.74C233.412 121.13 233.859 121.062 233.859 120.384C233.934 119.977 233.859 119.503 233.71 119.299Z" fill="#EE3796"/>
<path d="M218.292 356.317C213.669 352.52 211.357 351.639 208.822 352.792C207.33 353.537 204.124 357.605 204.721 358.08C204.795 358.148 208.374 358.215 212.625 358.148L220.379 358.012L218.292 356.317Z" fill="#EE3796"/>
<path d="M215.145 309.875C213.579 303.841 207.539 296.722 202.319 294.485C198.069 292.722 192.849 293.739 190.016 296.926C188.375 298.824 188.003 300.18 188.748 302.146C189.867 305.4 190.538 307.638 191.284 311.841C192.327 317.672 193.595 320.994 195.981 324.18C200.082 329.739 205.153 332.451 209.552 331.57C211.342 331.163 212.162 330.282 212.46 328.044C212.609 327.027 213.206 324.926 213.803 323.231C215.741 317.672 216.114 313.672 215.145 309.875ZM207.315 316.858C206.719 318.621 206.197 320.655 206.197 321.333C206.197 322.688 205.004 324.112 204.034 323.773C203.736 323.638 203.289 323.57 203.14 323.57C202.468 323.57 200.082 321.468 199.038 319.841C197.696 317.943 195.086 311.841 194.415 308.926C193.819 306.553 194.042 305.536 195.757 303.841C197.547 302.01 200.008 301.197 201.947 301.671C204.109 302.282 206.048 303.977 207.315 306.349C208.881 309.333 208.881 312.383 207.315 316.858Z" fill="#EE3796"/>
<path d="M204.042 345.875C202.029 340.045 193.081 328.384 188.756 325.943C186.146 324.452 182.641 325.401 180.106 328.18C177.72 330.824 177.496 331.909 177.422 339.841C177.422 348.113 177.869 350.689 180.255 355.367L181.747 358.214L192.186 358.214L202.625 358.214L203.595 355.435C204.713 352.248 204.862 348.316 204.042 345.875ZM197.555 347.638C196.884 350.486 194.721 354.689 193.006 356.316C191.217 358.011 189.874 357.943 187.488 355.909C183.536 352.519 181.448 344.994 183.089 339.841C184.133 336.519 185.699 334.689 188.309 333.74C189.651 333.265 189.874 333.265 191.366 333.875C194.199 335.028 197.033 338.892 197.704 342.553C198.151 344.858 198.151 344.926 197.555 347.638Z" fill="#EE3796"/>
<path d="M190.684 280.249C190.087 278.351 186.955 272.249 186.135 271.503C185.911 271.232 185.166 270.418 184.569 269.605C181.885 266.283 178.156 264.384 175.472 265.062C173.086 265.673 171.147 268.317 170.774 271.367C170.625 272.927 170.774 273.469 172.117 275.91C172.937 277.469 173.906 279.164 174.354 279.774L175.099 280.859L175.099 279.029C175.174 276.791 176.665 274.147 178.231 273.605C181.437 272.52 185.613 278.079 185.091 282.893C184.718 286.215 182.108 289.198 180.095 288.723C179.2 288.52 177.336 286.486 173.086 281.062C172.042 279.774 171.147 278.893 171.147 279.164C171.147 279.435 170.625 280.317 170.029 281.062C169.432 281.808 168.91 282.622 168.91 282.757C168.91 283.706 176.889 297.198 181.661 304.249C182.407 305.402 183.451 306.825 183.823 307.503C184.271 308.113 184.718 308.588 184.867 308.588C185.315 308.588 187.179 305.673 187.179 304.927C187.179 304.52 186.881 303.842 186.508 303.368C186.135 302.893 185.464 302.012 185.017 301.334C184.569 300.656 183.078 298.418 181.661 296.317C177.784 290.554 177.784 290.351 181.139 293.537C184.942 297.13 185.613 297.266 187.775 295.029C190.311 292.384 191.131 290.215 191.28 285.944C191.205 283.368 191.056 281.469 190.684 280.249Z" fill="#EE3796"/>
<path d="M189.951 119.844C189.653 118.013 189.354 116.522 189.28 116.454C189.205 116.386 187.639 117.403 185.701 118.623C182.569 120.657 176.38 125.81 174.068 128.318C171.309 131.369 166.09 139.437 166.09 140.657C166.09 142.42 166.612 142.284 167.954 140.183C170.415 136.25 173.845 132.183 177.498 128.793L181.152 125.471L181.376 126.488C181.525 127.098 181.6 128.115 181.674 128.928C181.749 130.216 181.525 130.488 178.393 133.267C176.529 134.894 174.59 136.657 174.068 137.267C172.577 138.894 168.923 143.708 168.029 145.267C166.985 147.233 166.985 148.386 168.029 146.759C169.818 143.979 172.875 140.522 176.156 137.471C180.854 133.064 180.929 133.064 180.929 135.572C180.929 137.606 180.928 137.606 178.542 139.776L176.156 141.945L178.99 139.844C180.556 138.691 183.464 136.725 185.552 135.505C187.714 134.216 189.429 132.928 189.578 132.454C189.727 132.047 189.876 130.284 189.951 128.589C190.026 126.894 190.1 124.928 190.249 124.25C190.324 123.64 190.175 121.674 189.951 119.844Z" fill="#EE3796"/>
<path d="M189.049 140.582C188.453 140.582 182.637 144.175 179.057 146.819C173.017 151.226 168.842 155.361 164.293 161.599C162.205 164.446 162.056 164.65 162.578 164.378C163.398 163.904 163.1 164.514 161.534 166.548C160.714 167.633 160.043 168.785 160.043 169.124C160.043 169.87 161.161 172.446 161.534 172.446C161.683 172.446 162.876 171.09 164.219 169.328C167.276 165.463 176.373 157.192 177.566 157.192C178.088 157.192 178.685 159.497 178.685 161.192C178.685 162.412 178.535 162.751 177.119 163.633C176.224 164.243 173.763 166.209 171.675 168.039L167.872 171.361L171.675 168.582C176.373 165.192 182.04 161.734 185.545 160.039C187.782 158.955 188.303 158.548 188.676 157.531C189.347 155.7 189.198 154.073 188.08 150.48C186.738 146.141 186.812 145.124 188.229 143.972C189.124 143.226 189.347 142.751 189.347 141.734C189.347 141.192 189.198 140.582 189.049 140.582ZM172.719 155.361C170.631 157.056 167.649 159.7 166.083 161.327C164.591 162.887 163.249 164.107 163.175 164.039C162.578 163.497 174.285 152.378 176.448 151.294C178.163 150.48 176.298 152.514 172.719 155.361Z" fill="#EE3796"/>
<path d="M188.299 166.217C188.224 165.471 188.075 164.929 187.926 164.929C187.777 164.929 186.286 165.607 184.571 166.488C173.386 172.183 165.258 178.488 157.802 187.37L155.639 189.878L156.161 192.048L156.683 194.217L159.442 190.895C162.797 186.827 169.21 180.793 173.61 177.675C175.399 176.387 176.965 175.37 177.189 175.37C177.562 175.37 177.562 178.624 177.189 179.776C177.04 180.183 176.07 181.065 174.952 181.878C171.671 184.116 167.197 187.912 164.363 190.827C162.947 192.387 160.411 194.895 158.771 196.522C157.13 198.149 155.341 199.98 154.67 200.59L153.626 201.743L152.88 198.488C152.06 194.76 152.209 194.624 149.003 200.251C145.573 206.353 142.292 213.878 139.607 221.539C138.489 224.861 138.414 225.811 139.458 223.37C139.831 222.556 141.024 220.319 142.143 218.556C143.261 216.658 144.23 214.963 144.23 214.692C144.23 214.217 147.586 208.929 147.884 208.929C147.959 208.929 147.959 209.2 147.81 209.539C147.661 210.014 147.661 210.014 148.108 209.472C151.687 204.726 161.008 195.505 165.184 192.59C166.153 191.98 167.271 191.166 167.644 190.76C169.061 189.607 177.86 184.454 181.066 182.827C183.676 181.607 184.198 181.2 184.198 180.454C184.198 179.98 184.869 179.099 185.913 178.149C186.882 177.268 187.703 176.048 188.001 175.302C188.597 174.082 188.672 168.929 188.299 166.217Z" fill="#EE3796"/>
<path d="M180.325 316.246C179.804 313.94 175.926 306.144 173.465 302.212C173.093 301.669 172.272 300.313 171.601 299.229C169.886 296.517 167.276 294.076 166.083 294.076C164.741 294.076 162.952 295.229 161.908 296.72C161.162 297.873 161.013 298.483 161.013 300.72C161.013 303.161 161.162 303.568 163.101 307.296L165.263 311.229L165.263 308.788C165.263 305.195 166.456 303.364 168.842 303.364C170.259 303.364 171.676 304.652 173.316 307.771C175.33 311.568 175.18 314.89 172.943 317.873C171.974 319.093 171.601 319.364 170.632 319.364C169.364 319.364 167.426 318.212 165.711 316.449C165.114 315.907 164.294 315.025 163.772 314.551C163.25 314.076 161.833 312.652 160.565 311.364L158.328 309.059L156.091 311.025C154.898 312.11 153.854 313.195 153.854 313.33C153.854 313.873 160.715 326.686 162.877 330.144C168.32 338.822 169.812 340.924 170.334 340.788C170.632 340.72 171.452 339.771 172.272 338.618C173.465 336.991 173.614 336.449 173.316 336.042C172.571 335.093 166.605 325.127 165.711 323.364L164.89 321.669L166.68 323.229C167.724 324.042 168.917 325.059 169.439 325.534C169.961 325.941 171.228 326.686 172.272 327.161C174.062 328.11 174.136 328.11 175.628 327.5C177.194 326.822 177.939 326.076 179.356 323.364C180.325 321.601 180.773 318.212 180.325 316.246Z" fill="#EE3796"/>
<path d="M167.574 240.588C166.604 233.944 161.832 222.486 159.52 221.334C158.551 220.859 158.402 220.859 157.731 221.673C156.538 223.096 155.419 227.435 155.419 230.893C155.419 232.588 155.121 236.181 154.823 238.825C154.301 242.893 154.226 244.249 154.674 247.164C155.568 254.351 158.327 260.588 161.534 262.758C164.591 264.927 165.411 263.978 163.92 259.978C163.472 258.893 162.727 255.707 162.205 252.927C161.683 250.08 160.788 245.944 160.266 243.639C158.626 236.588 158.327 231.3 159.446 230.079C159.968 229.401 160.49 229.876 161.459 231.91C163.547 236.181 164.293 243.029 162.95 244.927C162.578 245.469 162.801 246.215 163.845 248.927C165.635 253.605 165.56 253.469 166.455 251.842C167.872 249.402 168.319 245.469 167.574 240.588ZM161.385 254.961C160.564 254.961 158.327 248.181 157.955 244.385L157.805 242.283L158.7 245.402C159.222 247.164 160.117 249.673 160.639 251.096C161.459 253.673 161.757 254.961 161.385 254.961Z" fill="#EE3796"/>
<path d="M164.219 146.484L163.921 144.925L162.952 147.84C161.833 151.162 159.745 158.755 159.447 160.857C159.298 161.603 159.596 160.721 160.193 158.959C160.715 157.128 161.237 155.637 161.386 155.501C161.61 155.298 161.237 159.23 160.939 160.179C160.789 160.586 161.162 160.043 161.833 158.959C162.504 157.806 162.952 156.518 163.026 155.637C163.026 154.891 163.399 153.535 163.772 152.721C164.592 151.23 164.667 149.535 164.219 146.484Z" fill="#EE3796"/>
<path d="M159.821 347.298C159.373 344.789 158.031 340.383 157.36 338.891C153.706 331.433 149.754 326.416 147.294 325.806C144.535 325.196 142.67 327.501 142.298 331.976C142.074 334.62 142.745 336.789 144.982 341.332L145.877 343.094L146.026 340.721C146.324 335.908 148.487 334.077 150.873 336.654C153.706 339.84 155.123 345.942 153.781 349.535C153.035 351.501 151.693 352.789 150.574 352.45C149.829 352.315 147.89 350.484 146.175 348.383C145.504 347.637 144.833 346.755 144.535 346.552C144.311 346.349 143.192 344.925 142.074 343.569C141.03 342.145 139.986 340.993 139.837 340.993C139.539 340.993 137.525 344.315 137.525 344.925C137.525 345.4 140.21 351.298 142.521 355.84L143.789 358.349L146.175 358.349C147.517 358.349 148.561 358.213 148.561 358.145C148.561 358.01 148.114 357.264 147.592 356.518C146.175 354.349 146.473 354.349 148.487 356.45L150.276 358.349L154.452 358.417L158.702 358.417L159.15 356.789C159.746 354.823 160.044 348.993 159.821 347.298Z" fill="#EE3796"/>
<path d="M156.837 269.471C154.749 261.132 151.469 249.946 150.723 248.861C149.754 247.573 147.889 247.641 146.622 248.997C146.1 249.607 145.578 250.014 145.429 250.014C144.832 250.014 145.279 245.743 146.025 244.048C148.486 238.556 149.008 234.149 148.411 224.387L148.113 219.37L147.442 220.454C146.995 221.2 146.771 222.42 146.771 224.251C146.696 225.742 146.473 228.183 146.1 229.742C145.727 231.302 145.354 235.234 145.279 238.556L145.056 244.59L144.31 243.234C143.639 242.014 143.565 241.2 143.639 235.98C143.714 230.353 143.788 230.081 144.683 228.861C145.354 227.98 145.727 226.895 145.876 225.2L146.174 222.759L145.429 223.641C144.236 224.997 139.985 232.522 140.284 232.793C140.433 232.929 140.358 232.997 140.134 232.997C139.911 232.997 139.762 233.404 139.762 233.81C139.762 234.285 139.314 235.709 138.867 237.065C137.748 240.319 137.897 245.607 139.24 248.658C140.582 251.776 143.192 254.082 145.354 254.082C146.025 254.082 146.1 254.285 146.1 255.437C146.1 257.268 145.205 260.183 144.086 262.217C140.134 269.336 139.538 276.997 142.371 284.319C142.968 285.878 144.086 287.98 144.907 288.997C146.547 291.234 149.53 292.929 151.469 292.794C153.258 292.658 154.377 291.234 154.302 289.268C154.227 287.98 152.065 279.166 150.648 274.488C149.455 270.624 147.74 262.285 147.74 260.59C147.74 258.353 148.635 256.726 149.753 256.861C151.021 256.997 151.916 258.488 152.885 262.149C154.078 266.556 154.153 269.539 152.96 271.912L152.065 273.675L152.885 276.116C153.333 277.404 154.078 279.302 154.451 280.183L155.197 281.81L156.464 279.505C157.881 276.726 157.956 274.488 156.837 269.471ZM150.648 283.166C150.052 283.844 150.052 283.844 149.157 282.827C148.635 282.285 147.889 280.726 147.367 279.37C146.622 277.336 146.473 276.183 146.473 272.59C146.473 267.98 146.92 265.132 147.442 266.014C147.591 266.285 148.188 268.454 148.71 270.827C149.231 273.2 150.052 276.251 150.425 277.607C151.319 280.726 151.394 282.285 150.648 283.166Z" fill="#EE3796"/>
<path d="M156.167 180.317C155.571 179.164 155.049 177.808 155.049 177.198L154.974 176.181L154.378 177.401C151.917 182.351 148.711 191.029 146.921 197.469C145.952 201.13 146.026 201.13 147.965 197.469C150.351 193.063 153.632 187.707 155.645 185.13C156.54 183.978 157.286 182.893 157.211 182.69C157.286 182.486 156.764 181.469 156.167 180.317Z" fill="#EE3796"/>
<path d="M156.388 209.806C155.866 210.348 155.419 211.23 155.27 211.772C155.121 212.315 154.599 213.467 154.151 214.281L153.256 215.84L153.107 214.62L152.958 213.399L151.467 215.23L149.976 217.06L150.423 219.23C150.87 221.603 152.511 225.196 153.853 226.552L154.673 227.433L154.524 225.942C154.375 224.857 154.599 223.84 155.27 222.348C156.239 220.111 156.836 216.789 157.059 211.908L157.208 208.857L156.388 209.806Z" fill="#EE3796"/>
<path d="M138.718 299.298C138.271 296.518 134.468 278.417 133.946 276.45L133.648 275.569L133.349 276.586C133.2 277.196 132.678 279.23 132.231 281.196C131.56 284.247 131.485 285.671 131.56 291.773C131.709 295.637 132.007 301.467 132.455 304.722C133.2 311.027 133.051 313.196 131.858 313.4C130.441 313.671 128.503 306.823 128.503 301.874C128.503 300.044 128.801 298.213 129.323 296.654C130.218 293.874 130.218 294.078 129.845 289.061C129.621 285.806 129.472 285.4 129.025 285.806C128.204 286.484 126.713 290.688 126.042 293.942C124.252 302.417 127.31 319.501 131.187 322.688C132.306 323.637 133.797 323.501 134.766 322.417C135.512 321.535 135.586 320.993 135.586 316.857C135.586 314.213 135.139 308.722 134.543 303.84C133.573 295.637 133.2 287.434 133.871 286.01C134.244 285.061 134.468 285.535 135.139 288.722C136.556 295.434 136.929 299.637 136.183 302.145C135.885 303.162 136.034 304.247 136.779 307.501C137.301 309.739 137.823 311.637 137.898 311.705C137.973 311.773 138.345 311.027 138.644 310.01C139.091 308.044 139.166 302.756 138.718 299.298Z" fill="#EE3796"/>
<path d="M135.507 243.233C134.24 244.656 133.419 246.148 132.077 249.741C131.108 252.318 130.362 254.487 130.437 254.555C130.81 254.894 133.792 251.64 134.612 250.012C135.358 248.656 137.148 242.623 137.148 241.606C137.148 241.47 136.402 242.284 135.507 243.233Z" fill="#EE3796"/>
<path d="M132.604 267.365C131.485 271.501 129.621 273.06 128.13 271.026C127.608 270.28 127.459 269.399 127.459 267.094L127.533 264.179L127.011 266.619C126.713 267.975 126.266 270.212 125.967 271.636C125.147 275.501 124.923 278.009 125.147 279.365C125.445 280.789 126.937 282.416 128.055 282.416C130.814 282.416 133.424 275.501 133.349 268.043L133.349 264.924L132.604 267.365Z" fill="#EE3796"/>
<path d="M53.6339 355.836C52.9628 354.819 52.4409 354.006 52.3664 354.074C51.9935 354.413 53.8577 358.142 54.3051 358.142C55.0507 358.209 54.9761 357.938 53.6339 355.836Z" fill="#EE3796"/>
<path d="M51.33 5.19144C50.8826 4.78466 49.3913 4.10672 48.0491 3.56434C45.141 2.4118 42.7549 1.12363 42.0838 0.445663C41.711 0.0388814 41.5619 0.174483 41.2636 1.25923C40.3688 3.97111 40.3688 5.19146 41.0399 5.80163C41.4127 6.14061 43.2769 7.08975 45.2156 7.90332C47.1544 8.71688 49.1676 9.73384 49.7642 10.0728L50.8081 10.7508L51.4046 8.71689C51.7774 7.63214 52.0757 6.54739 52.1502 6.344C52.0757 6.07281 51.7774 5.59822 51.33 5.19144Z" fill="#EE3796"/>
<path d="M46.6342 354.279C45.6648 352.381 44.6956 350.279 44.4719 349.669C44.2482 348.991 43.9499 348.584 43.8753 348.652C43.7262 348.855 45.6649 353.466 47.1562 356.381C48.9458 359.567 48.4984 358.076 46.6342 354.279Z" fill="#EE3796"/>
<path d="M45.2803 354.356C44.46 352.526 43.4161 350.424 43.0433 349.678C40.8063 345.611 39.6878 342.899 39.3895 341.611C39.2404 340.526 38.9421 340.119 38.4201 340.119C37.2271 340.119 36.8542 340.865 37.3016 342.356C37.5999 343.305 37.5999 344.119 37.3016 345.136C36.7797 347.034 36.7797 350.221 37.3016 352.051C39.0167 357.882 39.0913 358.085 40.3589 358.085C41.2537 358.085 41.4774 357.95 41.3282 357.475C40.1352 353.678 40.1352 352.322 41.4774 352.594C42.0739 352.729 42.223 352.661 41.9993 352.051C41.7756 351.102 43.7144 354.492 44.5346 356.594C44.982 357.678 45.3548 358.017 45.9514 358.017C46.3988 358.017 46.7716 357.882 46.7716 357.746C46.7716 357.746 46.1005 356.187 45.2803 354.356Z" fill="#EE3796"/>
<path d="M44.3148 339.165C43.7928 338.148 42.3015 335.165 41.1085 332.588C39.8409 330.012 38.5732 327.3 38.2004 326.622C37.6784 325.673 37.3801 325.402 36.7836 325.402C36.1871 325.47 35.9634 325.266 35.8888 324.385C35.7397 323.436 35.5905 323.232 34.9195 323.232C33.3536 323.232 32.7571 322.487 32.1605 319.436C31.8623 317.809 31.2657 315.232 30.8929 313.741C30.4455 312.249 30.1472 309.944 30.0727 308.724C29.9981 306.758 30.1473 306.283 31.042 304.927L32.0859 303.368L31.4149 298.69C30.5201 292.046 30.3709 291.436 29.9981 291.436C29.849 291.436 29.2525 292.046 28.8051 292.859L27.8357 294.283L27.4628 293.334C27.09 292.385 27.09 292.385 26.0461 294.351C24.2565 297.673 24.4802 300.859 27.8357 316.385C29.6998 325.063 30.8184 328.114 33.279 330.826C34.323 331.978 34.994 333.198 35.2177 334.148C35.4414 335.368 35.7397 335.707 36.4853 335.775C37.0073 335.843 37.6038 335.639 37.9021 335.3C38.2749 334.826 38.4241 334.961 39.0206 336.588C39.9154 339.097 39.9153 339.029 41.0338 338.215C42.4506 337.198 42.8235 337.334 43.7928 339.3C44.3148 340.249 44.8367 341.131 44.9859 341.199C45.4333 341.334 45.4333 341.334 44.3148 339.165Z" fill="#EE3796"/>
<path d="M42.384 26.6196C41.7875 25.7383 40.3708 24.3823 39.2523 23.5688C38.1338 22.7552 36.8661 21.806 36.4933 21.5348C35.7476 20.9247 35.7476 20.9247 35.0765 23.9755L34.6291 26.0094L37.1644 28.1789C40.0725 30.6874 40.8182 32.0433 40.8182 35.162C40.8182 37.8061 39.1031 43.0942 37.6118 45.1281C35.8968 47.4332 32.0194 47.7044 31.05 45.6705C30.6772 44.9925 30.6025 45.2637 30.2297 47.2298C29.6332 50.3485 29.6332 50.6197 30.8263 51.501C32.8396 53.1281 36.5679 52.3146 38.2083 49.8739C40.4453 46.5519 43.5771 35.501 43.5771 30.8908C43.4279 28.4501 43.2788 27.9755 42.384 26.6196Z" fill="#EE3796"/>
<path d="M41.5585 -6.39324C41.1857 -6.66442 39.7689 -7.34241 38.2776 -8.02038C35.6678 -9.10513 32.7597 -11.2746 32.7597 -12.0882C32.7597 -12.3594 32.3123 -12.9695 31.8649 -13.4441L30.9701 -14.3933L32.6851 -20.5628C34.3256 -26.3255 34.4001 -26.8001 33.8036 -27.3425C33.4308 -27.6815 33.1325 -27.8848 33.058 -27.7492C32.7597 -27.4781 27.9875 -9.91868 25.9742 -2.12204C24.9302 1.81017 24.9303 2.21695 25.4522 2.82712C25.8251 3.1661 26.1233 3.3695 26.1979 3.30171C26.347 3.16611 28.1366 -3.20678 29.0314 -7.07121C29.4788 -9.03731 29.4787 -9.03731 30.2244 -8.42714C30.6718 -8.08816 31.1938 -7.34241 31.4921 -6.66444C31.7903 -6.05427 32.6106 -5.17289 33.2817 -4.69832C34.5493 -3.81696 40.8128 -0.9017 40.9619 -1.10509C41.0365 -1.17289 41.3348 -2.25762 41.6331 -3.54576C42.0805 -5.71526 42.0805 -5.98645 41.5585 -6.39324Z" fill="#EE3796"/>
<path d="M35.3715 60.6592C35.0733 60.4558 33.6565 59.7101 32.0906 59.0321C30.4502 58.2863 29.2571 57.4728 29.108 56.9982C28.6606 55.7101 28.2132 57.2016 27.9895 60.6592C27.9149 62.4219 27.6167 64.7949 27.4675 65.9474C27.3184 67.0999 26.871 69.8796 26.4982 72.1847C26.1253 74.4898 25.6779 77.2017 25.3797 78.2186C24.7831 80.4559 24.3357 83.9813 24.634 83.6424C24.7831 83.5068 25.0814 82.5576 25.3797 81.4051L25.8271 79.4389L25.8271 81.9474C25.9017 84.8627 26.349 86.1509 28.3623 88.1848L29.7791 89.7441L30.3011 88.0492C31.0468 85.4051 30.9721 84.7271 29.4808 83.439C27.2438 81.4729 26.4982 79.5745 26.7219 76.3881C26.871 74.0152 28.4369 63.3711 28.7351 63.0999C28.8097 63.0321 30.1519 63.7101 31.867 64.5236L34.9242 66.0152L35.3715 64.1169C35.8935 61.6762 35.8935 61.1338 35.3715 60.6592Z" fill="#EE3796"/>
<path d="M34.099 18.143C33.2042 15.6345 33.2787 15.7023 25.673 8.10905C24.7036 7.22769 23.8834 6.48193 23.8088 6.54973C23.6597 6.61752 23.3614 7.83787 23.0632 9.2616C22.4666 11.7023 22.4666 11.8379 23.1377 12.1769C23.5105 12.3125 24.3308 12.9904 24.9273 13.6684C25.5984 14.2786 26.9406 15.6345 27.91 16.5837C30.6689 19.3633 31.6383 21.3973 31.6383 24.5837C31.7128 29.6007 29.625 35.0244 27.388 36.1092C25.4493 36.9905 24.4054 36.7871 22.4667 35.0244C20.6771 33.3973 18.6638 31.9735 18.4401 32.1769C18.3655 32.2447 18.1418 33.3973 17.9181 34.6854L17.4707 37.0583L20.1551 39.3634C23.2123 41.9397 23.9579 42.2787 25.7475 42.0075C29.3267 41.4651 30.8926 38.8888 33.2041 29.8719C34.6209 24.3803 34.9192 20.5159 34.099 18.143Z" fill="#EE3796"/>
<path d="M28.4489 94.0058C28.0015 93.6668 27.4795 93.4634 27.2558 93.4634C26.4356 93.4634 24.6461 91.9041 23.975 90.6159L23.3039 89.1922L23.0056 91.8363C22.8564 93.26 22.8564 94.616 23.0056 94.8871C23.1547 95.0905 22.8564 98.8872 22.409 103.362C21.9616 107.836 21.6634 111.769 21.738 112.108C21.8126 112.447 22.1854 109.599 22.5582 105.802C22.931 102.006 23.3038 98.4126 23.453 97.8702L23.6767 96.921L25.0188 97.8702C25.839 98.4126 26.4356 98.8194 26.5101 98.8872C26.5847 98.955 26.0628 103.294 25.4663 108.582C24.3478 117.667 24.3477 118.277 24.9443 118.684C25.3171 118.955 25.6899 119.091 25.7645 119.023C25.8391 118.955 26.1373 116.989 26.4356 114.616C27.2558 108.175 28.8963 96.5821 29.12 95.4973C29.3437 94.8194 29.1946 94.4804 28.4489 94.0058Z" fill="#EE3796"/>
<path d="M25.4596 49.7983C23.8191 49.0525 21.5075 47.561 19.6434 46.0694C18.0029 44.7135 16.5862 43.6288 16.5117 43.6966C16.4371 43.7644 15.9151 46.8152 15.3932 50.5441C14.8712 54.2051 14.2001 58.5441 13.9764 60.0356C13.3053 64.3746 13.3798 72.3068 14.0509 73.5272C14.9457 75.1543 15.9897 74.8831 16.8845 72.7814C17.3319 71.7645 17.7792 70.9509 17.8538 70.9509C18.0029 70.9509 18.2266 71.9678 18.3012 73.1882C18.5994 75.8323 19.6434 78.0696 21.3585 79.6289L22.626 80.7137L22.8498 78.8831C22.9989 77.8662 23.2226 76.7136 23.2972 76.3069C23.4463 75.8323 22.9989 75.0865 21.8058 73.8662C19.7925 71.8322 19.4197 71.0865 19.1215 68.3068C18.9723 66.4763 20.389 53.8661 20.911 53.4593C20.9855 53.3237 22.4023 54.0017 24.1174 54.8153L27.1 56.3746L27.3237 55.4932C27.4729 55.0186 27.6965 53.7983 27.8457 52.7813L28.0694 51.0186L25.4596 49.7983ZM18.674 60.239C17.6301 67.5611 16.8845 70.0018 15.8405 69.1882C14.6475 68.239 14.7966 64.3068 16.5117 52.578L16.959 49.6627L18.3758 50.8152C19.718 51.9 19.7925 52.1034 19.6434 53.2559C19.4943 54.0017 19.0468 57.1203 18.674 60.239Z" fill="#EE3796"/>
<path d="M26.4204 262.215C25.7493 262.215 23.5869 263.436 23.5869 263.843C23.5869 264.453 23.9597 264.385 25.3764 263.571C26.4204 263.029 27.0169 262.215 26.4204 262.215Z" fill="#EE3796"/>
<path d="M23.2093 291.168C22.7619 288.728 22.389 285.948 22.2399 285.135C22.0907 283.779 21.9416 283.711 21.4197 284.185C20.8977 284.728 20.9722 285.27 22.3144 290.897C24.1786 299.304 24.4769 299.372 23.2093 291.168Z" fill="#EE3796"/>
<path d="M21.7964 142.96C20.7525 142.486 19.7086 141.808 19.4849 141.333L18.9629 140.452L19.1866 141.469C19.5595 142.825 20.0068 143.299 21.5727 143.91C23.1386 144.52 23.586 144.52 23.586 144.045C23.586 143.91 22.7658 143.367 21.7964 142.96Z" fill="#EE3796"/>
<path d="M21.5 260.662C19.9341 260.391 19.4121 260.391 19.4121 260.73C19.4121 261.34 19.8595 261.543 21.8728 261.747C23.215 261.882 23.5879 261.882 23.5879 261.475C23.5879 261.137 22.8422 260.865 21.5 260.662Z" fill="#EE3796"/>
<path d="M22.5357 95.7009C22.4608 96.0399 22.4608 96.5823 22.5357 96.9213C22.6854 97.2602 22.6854 96.9891 22.6854 96.3111C22.7603 95.6331 22.6854 95.2941 22.5357 95.7009Z" fill="#EE3796"/>
<path d="M22.1724 99.1624C22.0975 99.5014 22.0975 100.044 22.1724 100.383C22.3222 100.722 22.3221 100.451 22.3221 99.7725C22.397 99.0946 22.3222 98.8234 22.1724 99.1624Z" fill="#EE3796"/>
<path d="M20.3859 84.7876C18.82 84.0419 15.2408 81.669 13.0784 79.9062L11.9599 78.9571L11.7362 81.1266C11.3634 84.1774 9.87207 101.737 9.87207 103.364C9.87207 106.144 10.3194 104.178 10.8414 98.8894C11.6616 90.6859 12.1836 85.3978 12.3327 85.33C12.4073 85.2622 12.9293 85.669 13.6749 86.1436C14.7934 86.9571 14.868 87.1605 14.6443 88.2452C13.9732 91.4317 13.0784 103.771 13.4512 104.245C13.6003 104.517 13.9732 104.584 14.1223 104.381C14.2714 104.245 14.7189 101.059 15.0172 97.33C15.39 93.6012 15.7628 90.008 15.8374 89.2622L16.061 87.9741L17.7761 89.0588C18.6709 89.6012 19.4165 90.2791 19.4165 90.4825C19.4165 90.7537 18.9691 94.008 18.4472 97.8046C16.6576 110.889 16.6576 109.872 17.4032 110.415C18.298 111.025 18.4471 110.686 19.4165 102.957C19.8639 99.2961 20.6096 93.8724 21.057 90.8893L21.9517 85.5334L20.3859 84.7876Z" fill="#EE3796"/>
<path d="M21.8062 102.764C21.7313 103.171 21.7313 103.781 21.8062 104.12C21.9559 104.459 21.9559 104.053 21.9559 103.307C21.9559 102.629 21.8811 102.358 21.8062 102.764Z" fill="#EE3796"/>
<path d="M21.4234 105.88C21.3485 106.287 21.3485 106.965 21.4234 107.44C21.4982 107.847 21.5731 107.508 21.5731 106.626C21.5731 105.813 21.4982 105.474 21.4234 105.88Z" fill="#EE3796"/>
<path d="M20.1548 168.722C19.1854 168.45 18.4398 167.976 18.067 167.433C17.6196 166.62 17.5451 167.094 17.2468 172.857C17.0977 176.383 17.023 179.84 17.0976 180.45C17.2467 181.128 17.3213 180.315 17.3959 178.552C17.4705 175.705 17.9924 172.247 18.2161 172.993C18.2907 173.196 18.3653 179.637 18.3653 187.23C18.4398 199.84 18.5143 201.196 19.0363 201.806C19.4091 202.145 19.8566 202.823 20.0057 203.23C20.3785 204.179 20.7514 197.535 21.0496 181.806C21.1988 176.179 21.3479 171.027 21.4225 170.349C21.6462 169.196 21.6461 169.128 20.1548 168.722Z" fill="#EE3796"/>
<path d="M21.4234 231.499C21.2743 229.465 21.1998 229.329 20.2304 229.126C19.1865 228.923 19.1864 228.855 18.9627 225.533C18.8136 223.702 18.5899 217.736 18.4408 212.312C18.2917 206.685 17.9934 201.94 17.7697 201.194C17.546 200.516 17.2477 196.923 17.0986 193.194C16.9494 189.465 16.9494 195.295 17.024 206.143C17.0986 217.058 17.0986 225.804 17.024 225.736C16.9494 225.668 16.5766 220.855 16.2784 215.024C15.309 199.228 15.0853 196.719 14.4142 195.973C14.0414 195.567 13.8177 194.685 13.7431 193.465C13.7431 192.177 13.5939 191.838 13.4448 192.312C13.1465 192.855 13.072 192.719 12.8483 191.431C12.4755 189.058 11.8789 174.55 11.8789 169.465C11.8789 165.058 11.8789 164.99 12.6246 165.6C13.3703 166.211 13.3703 166.211 13.3703 164.109C13.3703 161.261 12.9229 160.38 11.2825 159.702C10.5368 159.431 9.8657 159.16 9.79113 159.16C9.49287 159.16 9.64197 181.872 9.94023 186.753C10.2385 191.295 10.313 191.77 11.2078 192.719C12.2517 193.872 12.1772 193.058 13.2212 209.397C13.9668 221.804 14.0414 221.397 12.9229 221.262C12.0281 221.126 12.028 220.923 11.5807 216.719C11.0587 211.634 10.835 208.516 10.3876 199.431C10.0148 193.194 9.41825 189.736 8.89629 191.092C8.74715 191.431 8.598 187.567 8.598 182.55C8.52344 177.533 8.44894 169.261 8.29981 164.109L8.07608 154.753L7.03213 153.804L5.98819 152.855L5.76454 153.804C5.61541 154.482 5.46626 154.278 5.46626 152.855C5.46626 151.295 5.31715 150.821 4.64605 150.482C3.90039 150.075 3.90039 150.143 3.90039 151.702C3.90039 154.143 4.86975 165.397 5.76454 174.007C6.51021 180.719 7.10668 184.312 7.47951 183.973C7.55408 183.906 7.3304 179.973 7.03213 175.228C6.6593 170.414 6.36104 165.329 6.28647 163.77C6.2119 162.211 6.13732 160.041 5.98819 158.888C5.83906 157.736 5.83906 157.058 5.98819 157.329C6.13732 157.6 6.36107 158.143 6.51021 158.549C6.7339 158.956 7.03217 163.566 7.25587 168.787C7.47957 174.007 7.8524 180.041 8.00153 182.143C8.22523 184.244 8.37436 186.346 8.37436 186.821C8.37436 187.634 8.37436 187.634 8.00153 186.956C7.70326 186.414 7.70321 186.617 7.85234 187.634C7.92691 188.38 8.22519 192.041 8.52346 195.77C8.89629 200.584 9.11999 202.075 9.26912 200.99C9.41825 200.109 9.4183 201.262 9.4183 203.431C9.34374 206.007 9.34368 207.092 9.64195 206.55C9.86565 206.007 9.8657 206.821 9.79114 208.99C9.71657 210.821 9.7911 212.109 9.94023 211.838C10.0894 211.634 10.2385 212.923 10.3131 214.821C10.3131 216.651 10.6859 220.245 11.0587 222.753L11.8044 227.296L13.8923 227.906C15.5327 228.38 16.0547 228.719 16.1293 229.329C16.2038 229.736 16.5766 230.279 17.024 230.414C17.6205 230.685 17.7697 231.16 17.7697 232.516C17.7697 234.279 18.4408 235.296 19.5593 235.296C19.9321 235.296 20.6032 235.431 21.0506 235.499C21.7963 235.702 21.8708 235.635 21.7963 234.55C21.6471 234.143 21.498 232.651 21.4234 231.499ZM8.82174 196.651C8.74717 195.906 8.74717 194.685 8.82174 193.872C8.89631 193.058 8.97083 193.6 8.97083 195.16C8.97083 196.719 8.89631 197.397 8.82174 196.651Z" fill="#EE3796"/>
<path d="M21.1307 109.259C20.8325 110.073 20.7579 112.174 20.9816 112.174C21.1308 112.174 21.2798 111.429 21.2798 110.547C21.2798 109.666 21.2053 109.056 21.1307 109.259Z" fill="#EE3796"/>
<path d="M19.4104 5.3271C19.2613 4.37794 18.8139 2.88642 18.4411 2.07286C18.1428 1.2593 17.8445 0.242351 17.8445 -0.16443C17.77 -1.11359 16.8752 -2.19834 14.9364 -3.21529L13.3706 -4.09668L12.8486 -1.58819C12.6249 -0.232252 12.3266 0.988092 12.3266 1.12369C12.3266 1.25928 13.1468 1.86945 14.1908 2.47962C16.0549 3.63217 16.1295 3.63217 16.9498 6.88642C18.0683 10.9542 18.0682 12.7847 17.0989 17.7339C15.9058 24.039 14.7873 26.6153 13.3706 26.6153C12.8486 26.6153 12.5504 26.2763 12.4013 25.4628C12.2521 24.5814 11.7301 24.039 10.3879 23.2255C9.41856 22.6153 8.52378 22.2085 8.44922 22.2763C8.37465 22.3441 8.07635 23.4967 7.85265 24.9204L7.40527 27.4289L8.52377 28.1068C10.3879 29.1238 11.3573 30.0729 11.581 31.1577C11.7301 31.9034 12.0284 32.1746 12.6995 32.1746C14.5636 32.1746 15.533 30.2763 17.0243 24.1746C19.0376 16.1746 20.0069 8.44575 19.4104 5.3271Z" fill="#EE3796"/>
<path d="M18.5888 137.599C18.2905 137.464 17.2466 136.854 16.2027 136.311C15.1588 135.769 13.8911 134.888 13.3691 134.345C12.8472 133.803 11.5796 132.989 10.5357 132.447C8.89523 131.566 8.74605 131.566 8.89518 132.108C8.96974 132.447 9.86459 133.193 10.9085 133.667C11.9524 134.21 13.1455 135.023 13.6674 135.633C14.1148 136.176 15.3079 136.921 16.2027 137.26C17.0975 137.599 18.1414 138.142 18.5142 138.413C19.1108 138.888 19.1853 138.888 19.1853 138.413C19.0362 138.142 18.8125 137.735 18.5888 137.599Z" fill="#EE3796"/>
<path d="M18.6736 255.161C18.5244 254.822 17.5551 254.212 16.5858 253.941C15.0199 253.398 14.7961 253.33 14.9453 253.805C15.0198 254.076 15.7655 254.619 16.7349 254.89C17.6297 255.229 18.5245 255.703 18.7482 255.974C19.121 256.585 19.121 256.11 18.6736 255.161Z" fill="#EE3796"/>
<path d="M12.4006 39.8413C11.4312 39.0278 10.5363 37.943 10.3872 37.4006C10.0144 36.1125 9.56704 35.6379 7.92659 34.8921L6.50981 34.2141L6.28608 35.1633C6.13695 35.7057 5.9133 37.6718 5.6896 39.5701C5.46591 41.4684 5.09307 44.0447 4.94394 45.2651C4.19828 49.5363 3.90002 56.5193 4.19828 59.4346C4.57111 62.2142 5.83872 66.0787 6.50981 66.0787C6.65895 66.0787 6.95723 65.2651 7.18093 64.2482C7.47919 62.6211 7.55374 62.621 7.62831 63.638C7.70287 65.4007 8.52308 68.0448 9.56701 69.8753C10.4618 71.3668 10.4618 71.4346 10.76 70.5533C10.9092 70.0787 11.0583 68.8584 11.0583 67.8414C11.1329 66.4177 10.9092 65.7397 10.0889 64.7227C8.44848 62.4176 8.15021 59.7736 8.97044 52.8583C9.34327 49.5362 9.71616 46.1464 9.86529 45.3328L10.0889 43.9091L11.7294 45.1295C12.6242 45.8074 13.4445 46.2142 13.519 46.0786C13.6682 45.943 13.8173 44.7905 13.9664 43.5701L14.2647 41.265L12.4006 39.8413ZM8.7468 50.0786C7.92657 56.7227 7.40457 60.2482 7.03174 60.5194C6.50978 60.9939 6.06243 58.4854 6.06243 55.638C6.06243 51.8413 7.18091 41.5362 7.6283 41.0616C8.15027 40.5193 9.49246 41.8752 9.49246 42.96C9.49246 43.4345 9.11963 46.621 8.7468 50.0786Z" fill="#EE3796"/>
<path d="M13.0718 181.399C12.9969 182.009 12.9969 183.161 13.0718 183.839C13.1467 184.585 13.2216 184.11 13.2216 182.755C13.2216 181.399 13.1467 180.788 13.0718 181.399Z" fill="#EE3796"/>
<path d="M8.52607 75.3612C7.55671 74.6155 6.51282 73.5307 6.13999 72.9206C5.76716 72.3104 4.94688 71.4968 4.12665 71.0222L2.70997 70.2765L2.48623 73.5307C2.3371 75.2934 2.11344 81.124 1.96431 86.4799C1.74061 96.0393 1.74057 96.2426 2.48624 96.5816C3.2319 96.9884 3.23192 96.8528 3.53018 87.1579C3.67931 81.8019 3.90299 77.2596 3.97756 77.124C4.05212 76.9884 4.49956 77.0561 4.94695 77.2595C5.69262 77.6663 5.76715 77.8019 5.46888 84.9884C5.31975 88.9884 5.09607 93.124 5.0215 94.141C4.87237 95.2257 4.9469 95.9715 5.1706 95.9715C5.3943 95.9715 5.69258 92.7172 5.84171 87.9036C5.99084 83.4968 6.21452 79.768 6.28909 79.7002C6.36366 79.6324 7.03475 80.0392 7.78041 80.5816C9.1226 81.5307 9.19715 81.5307 8.97345 83.6324C8.52606 88.107 8.22779 102.073 8.60062 102.277C8.82432 102.412 9.12266 98.7512 9.42092 92.3783C9.64462 86.8189 9.94281 80.9884 10.0919 79.4969L10.3157 76.7172L8.52607 75.3612Z" fill="#EE3796"/>
<path d="M6.9507 127.501C5.98134 126.823 5.012 125.873 4.63917 125.195C4.26634 124.314 3.59521 123.772 2.17845 123.094C-0.356796 121.941 -0.431326 122.755 2.02936 124.043C3.22242 124.585 4.11721 125.331 4.63917 126.212C5.4594 127.568 8.66576 129.873 8.66576 129.06C8.74033 128.856 7.92006 128.111 6.9507 127.501Z" fill="#EE3796"/>
</g>
<defs>
<clipPath id="clip0_237_44865">
<rect width="732.416" height="546.893" fill="white" transform="matrix(4.37114e-08 1 1 -4.37114e-08 0 -374)"/>
</clipPath>
</defs>
</svg>
